/* XPM */
static char *a04bd334704c4496952c66ffc3ee1132UgHntNIYvh6l3irB[] = {
/* columns rows colors chars-per-pixel */
"26 34 14 1 ",
"  c #004040",
". c #408080",
"X c #585858",
"o c gray22",
"O c #805030",
"+ c gray47",
"@ c #C07048",
"# c #E87818",
"$ c #F0B020",
"% c #181818",
"& c gray72",
"* c #E8A070",
"= c #E8B898",
"- c #E8D8C8",
/* pixels */
"                          ",
" ........................ ",
" .......XXXoooOOOOOO..... ",
" .....++XooOO@@##$$#@O... ",
" ....+XXooO@###$$$$$$#... ",
" ....+XooO@##$$$$##$#$O.. ",
" ...+Xo%oOO@####$@OO@##.. ",
" ...&X%%OOOOOOOO#OOOO@#.. ",
" ...&X%OOO@O@@@@O@@@@O#.. ",
" ...&X%OOOO@@@@@@***@OO.. ",
" ...&XOOOO@@@@**====*@O.. ",
" ...&X@OO@@@@*====--=@O.. ",
" ...&X@OO***===@Oooo-@O.. ",
" ..+&O@ooo@@=*@OooO@X@O.. ",
" ..&&Oo+X%%%@@@ooX@%**O@. ",
" ..&+O@&-+o#@*@#&-@o*=O*. ",
" ..&oO@@***@@-*@***==@O@. ",
" ..&oO@*---=@-===----*=@. ",
" ..&OO@*-=*@@-=**=--=*@*. ",
" ..&@OO@-*@OOOOO@=*=*@O@. ",
" ..+*OO@=@O@@@*=*@=*@@O.. ",
" ...@OO@=@**=*-=*@=*@*O.. ",
" ...+OO@=@O@@@@@O@=***... ",
" ....@O@@*===--=**=*=@... ",
" ....@OO@@@@****====*@... ",
" ....X@OO@*-====--=*@O... ",
" ....+o@OO@=*@*===*@O@... ",
" ....+%o@OOO@@@@@@@O@=... ",
" ....+o%oOOOOOOOOOO@==... ",
" ....+o%oXo%%%%%OO@==*... ",
" ....oX%o+o%%%%O@-=*=@... ",
" ....oX%oX+ooO@*-@O@*O... ",
" .....o%%oXXO@=*@X@@O.... ",
"                          "
};
