/* XPM */
static char *dca82c3be19a4c56caf393c4ca91351ap8386oLUtjgY6hNb[] = {
/* columns rows colors chars-per-pixel */
"26 34 14 1 ",
"  c #004040",
". c #408080",
"X c #585858",
"o c gray22",
"O c #805030",
"+ c gray47",
"@ c #C07048",
"# c #E87818",
"$ c #F0B020",
"% c #181818",
"& c gray72",
"* c #E8A070",
"= c #E8B898",
"- c #E8D8C8",
/* pixels */
"                          ",
" ........................ ",
" .......XXXoooOOOOOO..... ",
" .....++XooOO@@##$$#@O... ",
" ....+XXooO@###$$$$$$#... ",
" ....+XooO@##$$$$##$#$O.. ",
" ...+Xo%oOOO@###$@OO@##.. ",
" ...&X%%OOOOOOOO#OOOO@#.. ",
" ...&X%OOO@O@@@@O@@@@O#.. ",
" ...&X%OOOO@@@@@****@OO.. ",
" ...&XOOOO@@@@**=====@O.. ",
" ...&X@OO@@@@*====--=@O.. ",
" ...&X@@@@***====---*@O.. ",
" ..+&O@ooo@@=-==@Ooo-@O.. ",
" ..&&Oo+X%%%O@@%%o%@o*O@. ",
" ..&+O@&-o&#O*@#&o-&@=O*. ",
" ..&oO@@***@@-*@**===@O@. ",
" ..&oO@*---=@-===----*=@. ",
" ..&OO@*-=*@@-=**=--=*@*. ",
" ..&@OO@-*@OOOOO@===*@O@. ",
" ..+*OO@=@O@@@*=*@=*@@O.. ",
" ...@OO@=@**=*-=*@=*@*O.. ",
" ...+OO@=@O@@@@@O@=***... ",
" ....@O@@*===--=**=*=@... ",
" ....@OO@@@@****====*@... ",
" ....X@OO@*-====--=*@O... ",
" ....+o@OO@=*@*===*@O@... ",
" ....+%o@OOO@@@@@@@O@=... ",
" ....+o%oOOOOOOOOOO@==... ",
" ....+o%oXo%%%%%OO@==*... ",
" ....oX%o+o%%%%O@-=*=@... ",
" ....oX%oX+ooO@*-@O@*O... ",
" .....o%%oXXO@=*@X@@O.... ",
"                          "
};
