/* XPM */
static char *bf9dab212877489adccc7d9916927f28TTZmqZJjGR7dWVkW[] = {
/* columns rows colors chars-per-pixel */
"26 34 17 1 ",
"  c #004040",
". c #408080",
"X c gray22",
"o c #585858",
"O c #805030",
"+ c #C07048",
"@ c #E87818",
"# c #F0B020",
"$ c #E8B898",
"% c #E8D8C8",
"& c gray47",
"* c #181818",
"= c gray72",
"- c #E8A070",
"; c #F8F8F8",
": c #F7B521",
"> c white",
/* pixels */
"                          ",
" ........................ ",
" .......XooXXXOOOOO...... ",
" ......XooOO+++@###@..... ",
" .....XooO+@@@#$$%%#@.... ",
" ....XooO+@@#$%%%%%%#@... ",
" ...X&ooO+@##$%%%$$%#@@.. ",
" ...o&oXX+@@@##$%@@#@+@.. ",
" ...oo*XXOO+@@@##+OO+O@.. ",
" ...oo***OOOOXX@@OXXOO+.. ",
" ...=o*OOOOOOOOOOO+++++.. ",
" ...=o*OOO+++++--$%$-+O.. ",
" ...=oOOOO++++--$%;%$+O.. ",
" ..&=o+O--+++--$%;;%$+O.. ",
" ..==o+X*O---$$%-O*X+-O+. ",
" ..=&OX@X*O+$%%$O*X@X$O-. ",
" ..=X+O:>:*OO-OO*:>:O$+-. ",
" ..=X++OO+O++%-+O-++-$-+. ",
" ..=O+-%;%-++%$+-%;;%-++. ",
" ..=+O-$%-+%+;$%+-%%$-O+. ",
" ...-O+-+OO+$$$+OO+$-+O.. ",
" ...+O+OOO++OOO+++OO++O.. ",
" ...&OO+X*o+---+o*X+++... ",
" ....OO+OX&=====&XO-++... ",
" ....+O++O&=%;;=&O+--+... ",
" ....+OO+OO$$%%$+++$-+... ",
" ....o+OO+++OOO+--%$+O... ",
" ....&X+OO+$-+-$%%-+O+... ",
" ....&*X+OOO+O+--++O+$... ",
" ....&X*XOOOOOOOOOO+$$... ",
" ....Xo*X&X******X+-$+... ",
" ....Xo*Xo&XX**XOXO+-O... ",
" .....X**XooXOOOXo++O.... ",
"                          "
};
