/* XPM */
static char *face11678799272[] = {
/* columns rows colors chars-per-pixel */
"76 100 244 2 ",
"   c #1C1B1B",
".  c #151617",
"X  c #0F1316",
"o  c #231E1B",
"O  c #28221D",
"+  c #38281E",
"@  c #192525",
"#  c #003D3D",
"$  c #093434",
"%  c #113636",
"&  c #232323",
"*  c #2C2C2C",
"=  c #292725",
"-  c #362C25",
";  c #333434",
":  c #3B3B3B",
">  c #3A3836",
",  c #2E3333",
"<  c #1C1F20",
"1  c #422F21",
"2  c #493427",
"3  c #563B29",
"4  c #453C37",
"5  c #513E32",
"6  c #5C391F",
"7  c #2E483D",
"8  c #09413F",
"9  c #4B433C",
"0  c #574336",
"q  c #5C412E",
"w  c #68432B",
"e  c #7D4E2E",
"r  c #73482D",
"t  c #694936",
"y  c #7C4E31",
"u  c #734C34",
"i  c #7E5031",
"p  c #79553C",
"a  c #705235",
"s  c #7D633F",
"d  c #003F40",
"f  c #3D3E40",
"g  c #044444",
"h  c #0D4746",
"j  c #155555",
"k  c #1E5E5E",
"l  c #1A4747",
"z  c #3A4A49",
"x  c #325250",
"c  c #2C6C6C",
"v  c #2D6767",
"b  c #3E7E7E",
"n  c #3F7676",
"m  c #3D6868",
"M  c #444444",
"N  c #4D4C4C",
"B  c #494947",
"V  c #544D49",
"C  c #465449",
"Z  c #545453",
"A  c #5A5A59",
"S  c #515552",
"D  c #6B5946",
"F  c #775B45",
"G  c #6A5B53",
"H  c #596C5E",
"J  c #4D6559",
"K  c #656758",
"L  c #7C6756",
"P  c #767154",
"I  c #566B65",
"U  c #567268",
"Y  c #447C7B",
"T  c #4A7E7B",
"R  c #497875",
"E  c #5B7D7C",
"W  c #537D7A",
"Q  c #486D6A",
"!  c #636363",
"~  c #6C6C6C",
"^  c #666968",
"/  c #777968",
"(  c #697A79",
")  c #767875",
"_  c #6A7167",
"`  c #85512E",
"'  c #96582B",
"]  c #835231",
"[  c #8B5534",
"{  c #895838",
"}  c #935936",
"|  c #9B5A35",
" . c #945C3A",
".. c #9C5D3A",
"X. c #935633",
"o. c #824F2F",
"O. c #A95D27",
"+. c #A15F3A",
"@. c #A25E33",
"#. c #9B623C",
"$. c #926234",
"%. c #AB6428",
"&. c #B66424",
"*. c #A2613C",
"=. c #AA643E",
"-. c #A66233",
";. c #B46839",
":. c #B2752E",
">. c #9A551B",
",. c #D9751C",
"<. c #CE6F1D",
"1. c #E6791B",
"2. c #C86C25",
"3. c #DB7628",
"4. c #C36E39",
"5. c #C47736",
"6. c #D37536",
"7. c #CA7428",
"8. c #E27923",
"9. c #845B42",
"0. c #945E42",
"q. c #89634A",
"w. c #996546",
"e. c #9A7458",
"r. c #8E7254",
"t. c #AC6641",
"y. c #AD6944",
"u. c #A46744",
"i. c #B46A43",
"p. c #BC6E46",
"a. c #B46C46",
"s. c #BC724A",
"d. c #B5724A",
"f. c #A77657",
"g. c #B77A56",
"h. c #AC724D",
"j. c #88776B",
"k. c #AC7C61",
"l. c #C16F46",
"z. c #C3734A",
"x. c #C6784F",
"c. c #C7774B",
"v. c #C57A53",
"b. c #CA7D53",
"n. c #C67D57",
"m. c #4A817E",
"M. c #52827D",
"N. c #7C8574",
"B. c #EA871A",
"V. c #ED971C",
"C. c #F1981B",
"Z. c #EFA71F",
"A. c #F1A91E",
"S. c #F3B01F",
"D. c #D48D29",
"F. c #E49025",
"G. c #EDA822",
"H. c #F0AE20",
"J. c #F1B320",
"K. c #EEB121",
"L. c #DB861E",
"P. c #BA825C",
"I. c #8E8876",
"U. c #AB8466",
"Y. c #B98968",
"T. c #B19078",
"R. c #CC835A",
"E. c #CA8258",
"W. c #D3865A",
"Q. c #D5895D",
"!. c #D68859",
"~. c #CF834D",
"^. c #C98A66",
"/. c #D48C63",
"(. c #D78E65",
"). c #DB9265",
"_. c #D4926D",
"`. c #DC956A",
"'. c #DA9569",
"]. c #CA9676",
"[. c #DB9C75",
"{. c #D59976",
"}. c #CA936D",
"|. c #E39A6C",
" X c #E4986A",
".X c #E29D72",
"XX c #DCA17D",
"oX c #E8A375",
"OX c #E4A47C",
"+X c #E9A67A",
"@X c #E7A579",
"#X c #F1A676",
"$X c #BD8026",
"%X c #3C7F80",
"&X c #467F80",
"*X c #3E8182",
"=X c #418181",
"-X c #4C8585",
";X c #578482",
":X c #749A9A",
">X c #789798",
",X c #6F898A",
"<X c #8B8A8A",
"1X c #959393",
"2X c #8F928B",
"3X c #B1998B",
"4X c #9CACAC",
"5X c #A1ADAD",
"6X c #AAAAAA",
"7X c #B5B1AD",
"8X c #BCA594",
"9X c #CD9E82",
"0X c #DAA686",
"qX c #DAB49B",
"wX c #CCA98F",
"eX c #E4A984",
"rX c #E9AD84",
"tX c #E3AC8A",
"yX c #E5AB85",
"uX c #EAB28C",
"iX c #E6B18D",
"pX c #E5B493",
"aX c #E8B593",
"sX c #E9BA9B",
"dX c #E7B899",
"fX c #F0B893",
"gX c #DCBAA3",
"hX c #C8B7A9",
"jX c #E9BEA1",
"kX c #E4BEA3",
"lX c #DAC6B6",
"zX c #DFC2AC",
"xX c #E9C1A5",
"cX c #E9C5AC",
"vX c #E7C5AC",
"bX c #E9CBB4",
"nX c #E8CEB9",
"mX c #E5CBB6",
"MX c #E9D1BD",
"NX c #E6D1BF",
"BX c #EEC09F",
"VX c #E9D5C3",
"CX c #E8D9C9",
"ZX c #EFE1D2",
/* pixels */
"g # # # # # # # # # # # # # # # d d d d d d d d d d d d d d d d d d d d d d d d g d d # # # g d d # # # g g # # # # g # # # # # 8 8 8 8 # # 8 8 8 8 8 8 ",
"# g g g g g g g g g g g g g g g d d d d d d g d d h g d d d d d d d d d d h h d g g g g g g g g g g g g g g g g g 8 g g g g g g g g 8 8 g 8 g 8 8 8 8 # ",
"d g g j j j j j j j j j j j j j j j j j k j j j j j j j j j k d k j j j j k j j j j j j j j j j j j j j j j j j j j j j j j j j j j j j j j j j h g 8 # ",
"# g h k c c c c c c c c c c c c c c c v c c m c c c c c c c c v n c c c c c c c c c c c c c c c c c c c c c c c c c c c c c c c c c c c c c c c k j g # ",
"# g j c b =Xm.b b b b b Y b b b %X%X%X%X%X&X&XQ %XY &X%XR %X&X&X%Xn n %X%X%Xn n n b n R Y Y Y R %XY Y n m.n Y Y n n m.b b %X%X%Xb b b b %X*Xb b c j g # ",
"# g j c %X-X=X=X=X=X=X=X=X=X=X=X&X&X%X&X&X&X&X&XR R R R Q Q &XQ Q m m m m m m m Q Q U U I U I U U U U U H U U U U U R b m.*X*X=X=X=X=X=X=X=Xm.*Xc j g # ",
"# g j c b -X*X=X=X=X*X=X=X*X=X=X&X%X%X%X%X&X&X&XI Q I I I I I m x N z z z z z z C D D D D D D D D D D D D D D D D K U Y *X*X*X=X*X*X=X=X=X=Xm.*Xc j h # ",
"# g j c b =X=X*X*Xm.%X*Xm.*X*Xm.%X&X&X&X&X&X&X! A Z Z Z Z A Z N M f 4 : f f f f 0 a { [ [ [ ` ` ] [ $.] { ` $.` ` s K R m.m.m.m.m.=X=X*X=X=X=Xb c j g 8 ",
"# g j c b =X=X*X*X%X*X%X*X*X*X%X&X&XW &X&X&X&XG A Z N N V N B B 9 5 5 5 5 5 t D u 0.X.| O.O.O.O.>.:.>.$X:.:.:.%.%.%.r./ _ U I U m.J b b *X*X=X=Xc j g # ",
"# g j c b =X=X%X*Xm.m.*XY *Xm.%X&XW ( ( &Xj.&X! A Z N M f f f M 5 t r t t y 0.0.*.t.;.;.2.<.<.<.L.$XD.L.L.D.D.,.<.&.;.h.r.q.F K m.Q b %X=X=X=Xb c j g # ",
"# g j c b =X=Xm.*X%Xm.b =X&X*Xm.&XE ( ) j.&Xj.! A N M : > > 4 5 t ] ] ] ` @.=.4.l.l.l.6.8.1.1.1.B.V.K.K.K.K.Z.V.B.,.6.c.a.-.[ s J m.%X%X=X=X=Xb c j g # ",
"# g j c =X=X=X*Xb *X*X*X%X=X&XT W ( ~ ~ j.~ ~ G N B f > > 4 5 t ] ..@.@.O.4.2.6.6.6.6.8.B.B.C.B.V.Z.J.J.J.J.S.Z.C.V.F.F.D.7.%.$.N.m.%X%Xb =X=X=Xc j g # ",
"# g j c *X=X=X=X*X&X&XY =X&XW ( ~ ~ ! ! ! ! A N M f : ; 4 9 t ] 0.t.4.2.2.,.1.1.8.8.8.B.V.G.G.Z.Z.A.S.J.J.J.S.A.Z.Z.Z.Z.F.L.3.:.N.M.n b =X*X=X=Xc j 8 # ",
"# g j c Y =X=X=X%X=X%X-XY =X&X( ) ^ ! Z Z Z Z M f > > 4 5 t ]  .=.l.6.3.1.1.1.1.1.1.1.V.Z.H.J.H.A.A.A.A.A.A.A.J.A.K.A.H.G.B.B.5.$.M.R b =Xm.*X%Xc j g # ",
"# g j c b =X=X*X=XY &X&X&X&X&Xj.) ^ A Z N N M f : : 4 5 t ] ..;.4.6.8.8.1.1.B.C.B.C.C.C.G.J.J.J.K.A.Z.V.C.C.C.Z.K.J.A.C.C.C.V.D.$.M.U n b =X*X=Xc j g # ",
"# g j c b =X=X=X*X*X&X&X;X&X&X&X) ~ ! Z N M f : > 4 5 t ] 0.i.;.6.8.1.1.1.1.C.A.C.G.C.H.H.H.J.J.A.C.B.B.B.B.B.Z.A.A.C.V.B.C.V.D.:.s K U m.*Xm.b c j g # ",
"# g j c Y =X=X=X*X%X=X=X&XT &X) ~ ~ A N M : ; ; > 4 t y [ #.;.4.2.,.,.1.8.8.V.G.A.A.Z.Z.A.Z.J.K.K.V.L.,.1.,.1.B.G.F.V.1.L.V.Z.F.$X>.s H b %X=X=Xc j g # ",
"# g j c Y =X=X=X&X*XY T W E ~ ~ ! A Z M > * * * ; 4 q i [ ..*.;.;.&.2.7.3.F.F.C.C.C.C.C.C.C.Z.A.Z.V.D.,.2.&.&.&.$X$X5.3.3.F.V.B.<.&.$.P m.*X*Xb c j g # ",
"# g j c m.=X=X=X&X%X&X&X( &Xj.! A V M : * & & * ; 4 0 y ] [ [ [ ' ' @.;.6.6.8.B.B.B.B.B.B.B.V.Z.K.F.D.4.;.| ' ' $.$.:.4.6.8.L.1.1.,.%.N.m.b *Xb c j g g ",
"# g j c b =X=X%X&X&X&X&X&Xj.) ! Z B : * &   < * > 0 t y ] ] o.i o.o.X.u.p.4.2.,.,.,.,.,.,.,.B.Z.G.D.l.t...[ o.y i { #.=.;.6.3.1.1.1.$Xr.m.b *X%Xc j g # ",
"# g j c b =X=X=X%X&X-X,X1X<Xj.! V f ; & . . & - 0 q a y i i y e y y ]  ...-.%.&.&.&.&.&.&.&.<.B.F.D.:. .[ ] y r u o.{ ..=.4.6.3.1.1.5.N.m.*X*Xb c j g # ",
"# g j c b *X=X*X%X&X-X>X4X4X<X^ N > =   . . O 2 w u i i o.o.y y y o.] ] [ [ X.' >.' ' ` ' ' &.L.3.2.-.[ ] ] y y o.o.] [ #.=.4.6.8.B.5.r.M.*X*X=Xc j g # ",
"# g j c b =X=X=X%X%X-X:X4X6X1X~ N > O .   o - 3 r ` ] o.o.] [ [ ] o.] ] [ { [ { [ [ ` ` [ [ %.2.<.&.| [ ] [ [ [ { [ [ { } +.t.4.3.,.$Xs M.b *X%Xc j 8 # ",
"# g j c %X=X=X=X%X%X-X:X4X6X1X~ N ; o o O 1 3 w e ] ` o.[  .....[ ] ]  ...+.........+.....@.@.O.%.O.@...0.+...+.............+.;.<.,.D.I.m.*X*X=Xc j g # ",
"# g j c b =X=X=Xb %X-X:X5X6X1X~ N ; & & 1 w r y o.o.o.o.[ *.i.*. .] { +.i.i.a.i.i.i.i.i.i.t.*.| X.@.=.i.p.p.i.i.i.i.p.i.t...X.@.2.,.:.r.m.b *X%Xc j g # ",
"# g j c =X=X=X=Xb %X-X:X5X6X1X~ N ; & O 1 r o.o.o.y y o.[ *.y.t...X...t.p.z.z.l.z.l.p.z.z.z.y.....u.z.x.x.c.c.b.x.c.c.l.i...] ' &.<.:.I.m.b *Xb c j g # ",
"# g j c b =X*Xm.%X*X-X:X4X6X1X~ N ; < O 2 r ] ] ] y y ] [ } ..*.*.*.t.p.l.z.z.l.l.z.l.z.l.p.s.d.g.v.b././.W./.!./.!.b.c.i.| o.` >.%.$.P m.b =Xb c j g # ",
"# g j c b =X*X%X%X*X;X:X4X6X1X~ N ; & O 2 r ] ] o.] i o.] ] [  .=.i.a.p.l.z.l.l.z.p.z.p.l.z.n./.'.'. X X X X X|. X).b.c.i...[ ` ` $.F _ m.n *X=Xc j g # ",
"# g j c Y =X*X*Xm.%X-X:X5X7X2X~ N : - + 3 r ] ] i o.i o.o.] [ ..y.p.z.z.l.z.p.z.z.c.x.x.x.b./.|.oX+X+X+X.XrX#X#X#X.X`.n.s.y. .] ` ` D H m.*X*Xm.c j g # ",
"# g j c m.=X*Xm.b %X-X:X5X6X1X~ Z 9 2 3 w r o.] i i i i ] } ..t.a.p.l.z.z.p.p.p.c.W.W.!.!.).`.OXrXuXrXrXyXyXyXrXyXyXeX{.^.g.y...[ i D H Y *X*X%Xc j g # ",
"# g j c b =X=X=Xb %X-X:X5X6X1X~ Z 0 u r e o.o.o.o.i i ` } #.i.p.l.z.z.l.l.l.l.z.E.Q. X|. X|.OXuXaXaXaXaXaXaXaXaXaXaXaXtX0X/.s.t.| ] D H Y =X=X%Xc j g # ",
"# g j c b =X=X=Xb %X-X:X5X6X2X~ G F 9.X.o.o.o.] o.] ] [ #.=.p.l.z.l.l.p.z.z.x.v.!.[.oX+X+X+XrXuXdXdXsXsXjXjXjXjXjXjXjXdXtX_.v.t.| ] F H Y *X*Xm.c j g # ",
"d g j c %X=X=X%X%X%X&X:X5X6X<X~ G F w.+.| ] o.o.] [ } u.t.p.p.p.l.l.l.p.l.x.b./..XeXyXrXuXrXfXaXdXdXdXdXjXvXnXnXbXvXcXjXtX`.v.i.@.] F H Y *X=Xm.c j g d ",
"d g j c %X-X=X=X%X%X&X4X5X6X1X~ G q.y.t...[ y e o.[ +.t.a.p.z.z.z.p.z.l.z.n.(. X.XyXaXaXaXaXaXdXdXaXaXjXcXnXVXVXVXnXcXjXtX_.x.i.| ] D H Y *X=X%Xc j g # ",
"# g j c %X&X%X&X%X%X&X:X5X6X<X~ G q.h.i...i t w w y } t.s.v.b.b.v.l.z.z.b./. X.XyXfXaXsXdXdXdXdXsXjXjXjXnXVXCXCXZXnXcXaXeX/.x.t.| [ D H Y =X=X%Xc j g d ",
"# g j c %X=X&X%X%X%X&X:X4X6X<X~ ! q.h.a.0.t 5 2 1 3 e  .a.^.{._.n.z.z.b./.|..XuXaXfXdXsXjXdXfXdXjXjXbXVXCXCXZXZXZXVXcXuX.X/.c.i.$.{ D H T %X=X=Xc j g # ",
"# g j c &X&X%X%X%X%X&X>X6X6X<X~ G q.y.u.9.5 > = & + 3 o.w.}.0X0X/.b.b./. X.XuXaXaXdXdXdXaXdXdXaXsXjXmXVXVXVXVXVXVXmXsXyX X/.z.i...[ p H m.*X*Xb c j g # ",
"# g j c %X%X&X%X&X&X&X1X6X6X1X~ G 9.0.0.p 9 > = & O 1 q p U.].]._.b./.|..XfXsXjXjXjXdXsXsXdXpXtXtXpXgXhXhX7XhX7X7XhXqXyX.X(.c.t.| ] D H m.*X*Xb c j g # ",
"# g j c %X&X&X&X&X&X&X6X6X6X1Xq.G t t D t t q 4 - * - + q 9.f.Y.].[.eXyXfXjXbXbXbXjXdXjXsXfXuX.X_.^.T.k.j.j.j.) / j.8XkXaX{.x.i.$.[ D H b *X*X%Xc j 8 # ",
"# g j c &X&X&X&X~ &X<X1X7X6X<Xq.u t 5 4 t r t 5 > * = o + q i h.].0XiXiXaXjXbXnXbXjXdXdXaXpX{.^.s.u.0.9.D V B M B ! 1XhXkX0Xv.i.@.` D H m.=X=Xn c j g # ",
"# g j v &X=X*X=X&X1X1X4X6X6XT.0.y q 5 5 3 q q 2 ; =   . o + 3 p r.T.3X].].wXqXgXgXtX0X9XT.T.f.w.X.o.u q 4 - * - 5 D j.3X8X9Xn.v.*.[ p P U M.M.R c j g # ",
"# g j c Y =X%X-X&X1X4X7X7X7X1Xq.o.r t q 2 1 + - = < . . . o + - 5 V G w.f.Y.}.]._._.^.f.F D 0 3 3 3 3 2 - o O 3 u 9.L j.) k.n.n.y.[ p q.r.j.M.m.c j g # ",
"# g j c b *X&X-X:X4X7X7X7X6X<Xq.o.o.r w 2 = o         o o o O O o + 5 w { w.d.v.b.c.d.9.3 + O O & * > > * & - t 0.y.9.V G e.{./.h.{ { *.h.e.N.Y c j g d ",
"# g j c b *X%X-X:X5X7X7X7X6Xk.9.o.o.o.u q > * & & = : V V B M 4 2 1 6 w e } i.z.b.c.i.X.w 1 + * * ; ; > f B V j.k.k.q.D F k.{.{.g.{ } ;.x.U.N.b c j g # ",
"# g j c b =X*X-X:X4X7X6X1X<Xj.9.o.o.o.u D Z N ; , : ! <X1X2X,Xr. .>.>.e o.' s.W.b.b.l.&.O.>.i D N f f f ! j.1X8X8XT.k.0.w.n.0X9XP.{ #.s.Q.T.I.T c j g d ",
"# g j c b *X*X-X>X4X5X6X<Xj.G 9.o.o.o.p q.~ ! Z M A I.hXlXhX7X3X~.3.&.O.` u.^.|. Xb.c.6.<.2.;.r.~ A M N j.7XlXlX7X6XT.g.v.{.tX9Xf.{ #.g.'.T.N.-Xc j g d ",
"# g j c b *Xb -X:X4X7X1X&Xq.G u o.[ 0.0.w.j.j.G F r.3XgXmXzXgX9X!.D.2.O.+.h._.yX.X_.b.6.3.3.c.Y.U.j.G j.T.hXNXNXlXhX9X_./..X[.}.f.{ $.P./.Y.N.=Xc j g d ",
"# g j c b *X*X-X>X6X6X<X~ V t u [ X.u.y.a.h.f.k.f.Y.XXuXiXpX0X[.~.6.4.;.i.Y.wXjXdX.X).b.c.6.b./.T.k.g.k.9XgXkXkXgXqX0XeX9X_.^.g.#.` [ ;.E.U.N.Y c j g # ",
"# g j c b m.%X-X:X4X6X&XG 5 5 u [ +.i.p.z.s.v./._..X@X+X+X+X@X`./.x.l.l.s.}.qXmXcXuX.XQ.~.c.E.'.eX X XeXtXpXsXjXjXdXjXsXtXn.n.v.#.{  .=.p.f.N.n c j g g ",
"# g j c %X=X%X-X:X4X6X<XZ 4 5 r [ *.i.z.c.b.Q..XrXuXuXuXuXuXuX0X{.^.n.x.x.].gXVXbXsX+X[._.^.'.oXeXrXrXfXsXjXjXjXjXkXjXjXdX0Xn.n.g.f.h.d.d.e./ R c j g # ",
"# g j c %X%X%X-X:X4X5XN.Z 4 5 r [ +.p.c.b.).|.iXxXcXbXcXvXcXcXkXiX0X_.n.v.}.gXVXnXBXuXyX0XXXeXiXfXjXjXjXmXnXnXmXVXnXMXnXjXyX0Xb._.].}.n.s.e./ T c j g # ",
"# g j c %X*Xm.-X:X4X6X<XZ 4 5 r [ +.i.x.!. XrXsXnXVXVXVXVXVXMXmXjXtX{.n.v._.qXNXMXcXdXuXpXpXaXaXsXjXMXCXVXVXVXCXCXCXCXVXnXuXrXrXyX0X[./.v.e.) Y c j g # ",
"# g j c Y m.%X-X:X5X6XI.G 5 q y [ ..i.c.!. XrXxXVXCXVXMXMXbXcXxXpX0X_.b.v.].qXVXMXcXBXfXfXfXuXuXfXjXbXVXVXCXCXZXCXVXVXVXjXaXrX.X@XXX[.).R.U.N.m.c j g # ",
"# g j c b *X%X-X:X6X6X<XG r w y [ +.a.b.!.|.uXjXMXVXNXvXxXsXiXeX{./.n.z.x.].kXVXMXbXsXfXrX+X+X+XyXpXjXjXnXVXCXCXCXVXVXbXjXfXrX X'././.).).T.N.m.c j g d ",
"# g j c b *X%X-X:X4X6XT.q.] o.o.[ ..i.z.!. XeXjXMXVXvXsXuXrXoX).n.z.l.p.s.}.qXzXlXzXiX0XXX|.|..X.XrXfXsXjXVXCXCXVXVXjXjXuXrX X XE.x.x.!.'.T.N.m.c j g d ",
"# g j c b *X%X-X:X4X7X3Xf.} [ o.] } #.a.z.Q.[.dXMXMXcXuXOX|.(.~.p.=.+.+.*.g.T.8XwX].Y.^.P.E.E.Q.b.rXtXsXjXnXnXnXVXkXjXuXyX.X).b.s.;.a.~.).Y.N.m.c j g d ",
"# g j c b *Xb -X:X4X7X3Xg.u.| [ o.] [ ..i.v._.qXmXMXjXrX|.).b.s.t.} [ [ } 0.r.e.e.e.w.w.#.u.y.s.n._.tXdXjXjXjXjXjXjXuXrX.X Xb.x.*...#.a.b.U.N.m.c j 8 # ",
"# g j c b *X*X-X:X4X8X3Xn.p.+.[ o.e ] [ +.a.^.0XmXbXsX@X).R.z.t...[ [ ] [ [ [ [ { } { { { $.#.a.b.(.eXuXdXdXjXsXdXaXrX.X).b.x.a.#.[ } *.d.e./ T c j g # ",
"# g j c b =X*X-X;X1X6X9X^.v.a.0.y e e [ ..i.R.0XkXxXtX'.b.p.=.....X.} | | X.X.| | #.u.u.f.f.g.E.b._.{.0XtXpXaXaXuXyX.X Xb.b.z.t.| ` i q.r.j.M.Y c j g # ",
"# g j c b =X=X=X&X,X<X3X_./.d.} e e e [ @.i.n.0XpXqX[.W.s.*.}  .+.t.t.t.t.=.=.t.d.v.^._.].].{.'.).(.n./.{.tXaXuXyX.X(.b.b.z.l.i. .` s K U M.M.Y c j g # ",
"# g j c b =X=Xm.M.( j.T.]./.g. .o.y y [ ..p.n.[.tXtX_.v.i.#. .#.y.z.x.z.z.z.z.v.n.|..XrXiXiXrX+X X!.b.b._.0XpXuX#X XW.b.z.c.c.p.#.[ D H m.*Xm.%Xc j g g ",
"# g j c %X=X=X=XT W ( I.^.W.d. .o.r o.[ +.s.n.[.tXtX_.v.a.a.h.d.n./.b./._./.n./.`.yXjXjXjXsXfXrX.X!.c.x._.0XpXuX+X Xb.c.z.c.b.z.*.{ p U b *X*X%Xc j g # ",
"# g j c b =X=X&X%X&XE j.g.z.t.} o.y o.[ +.a.n.[.tX0X^.x.z.n././.).`..XeXtX.X.X.XeXjXbXbXjXfXuX#X X(.b.x._.eXaXuX+X Xb.c.b.b.(.n.:.i D J m.*X*X*Xc j g # ",
"# g j c b =X=X=X*X%Xm.) e.a.u.[ o.y y [ +.a.n.{.iXtX_.v.z.R.(. X X|..XeXtXeX.X.XeXkXmXkXjXaXeX.X`.b.c.v._.yXaXuX.X X!.b.b.(.|.(.U.$.D H m.*Xm.b c j g # ",
"# g j c Y =X=X=X*X*XY ( r.e.w.{ y e y [ +.i.n.0XiXtX_.x.p.s.g.n.R./.(.`.{.`././.`.0X0X0X9X{.^.g.g.s.p.v._.0XaXuXoX X).!.!. X.X}.U.P H Q m.*X=Xb c j 8 # ",
"# g j c Y =X=X=X=X%Xm.E ) j.q.F o.e o.[ +.i.n..XtXtX_.x.i.*.w.u.d.c.b.b.n.n.b.b.b.n.^.n.n.n.d.u.#.u.i.v._.tXaXrX+XoX X X X X.X}.I.U R b b *Xm.*Xc j g # ",
"# g j c Y =X=X=X*X*X=XM.( ~ L 9.] o.o.[ +.i.n._.eX0X_.v.d.w.0.u.y.g.v.n.v.v.n.b.n.n.n.n.n.v.i.0. .*.a.E.{.tXaXrXoX|.oX.XoXoX X}.I.M.b b =X=X=X%Xc j g # ",
"# g j c %X=X=X*X*XT =Xm.E ( L w...X.] [ +.a.v./._._.(./.R.g.g.Y.^._._._._.].9X9X9X9X9X9X_._.g.g.d.g.E.Q..XtXaXrXoXoX+XrX+X X).Y.N.M.%X%X*X=X=Xb c j g # ",
"# g j c %X=X=X=Xm.%X=X%XT E / u.=.| [ [ +.i.z.x.n.R.(.).[.XX0X0X0X0XtX0X0XpXgXvXkXVXkXkXqX0X.X`./.).)..XeXiXaXrXoXoXrXiXeX`.E.f.N.M.*X*X*X%X=X*Xc j g # ",
"# g j c b =X=X=X%X=X%X=X%XM./ f.i.*.[ [ ..t.p.p.z.c.!. X.XOXtX0XiXtXiXiXpXkXvXnXVXVXnXbXjXuXrX.XoXoX.XoXrXaXaXtX+X+XrXaXeX(.v.f./ m.%X*X*Xm.m.b c j g # ",
"# g j c %X=X=Xm.=X%X=X%X%XM.j.f.p.+.} ] [ ..t.i.p.c.b.Q.(.'.{.{.{._.[.eXrXaXsXjXkXjXjXfXuXrXrXrXrX+XrXrXuXaXaXaXrXrXiXrXOX/.v.f./ m.%X%X=X=X=X%Xc j g # ",
"# g j c b =X*X*X%Xm.%X%Xb W / f.a.-.[ o.] [  .=.p.z.c.x.v.n.b.n.n.b./.`.@X+X+XrXeXeXrX.X.XrXrXuXaXaXaXaXaXdXdXaXaXiXuX+X|.!.z.h.P R %X%X*X=X=Xb c j g # ",
"# g j c m.*X*X%Xm.%Xm.*X&XT / e.u.*.X.{ o.] X.0.t.p.l.z.z.z.c.x.n.^.^._.oXoXoXoX#X.X#X.X#X.XuXdXsXjXjXjXjXdXdXdXaXiX+X.X(.b.s.e./ m.b b =X=X=X%Xc j g # ",
"# g j c %X=X=X=X*X*X*X*X%XT ^ L q.w.*.*.} o.o.[ ..=.t.z.z.b.W./.{.9X0XeXrXrXrXrXrXeXrXrXyXtXaXjXbXbXbXcXxXjXaXaXrXrX.X(.~.p.=.q._ m.%X%X=X=X=X=Xc j g # ",
"# g j c b =X=X*X%X*X*X*X%XY Q ! L w.y.t...] y ] [  .=.l.c.W. XeXdXkXvXsXaXaXaXpXaXaXaXaXaXdXjXnXVXVXVXMXvXjXaXuX+X.X).b.s.*. .F H m.%X%X=X=Xm.b c j g # ",
"# g j c b =X=X*Xm.m.%X%X&X&XQ I ! q.w.u...} [ o.o.[  .t.z.W.).eXjXnXbXjXaXiXtXtXtXiXaXaXdXsXjXVXMXVXVXnXcXsXiX+X.X).b.p.t.@.X.F H m.*X=X=X*X*Xb c j g # ",
"# g j c Y =X=Xm.*X*X%X*X%XT E ^ ! G 9.9.0.+.+.X.] ] [ ..y.x.Q.[.dXcXcXsXyXeX.X{.[..XuXaXaXjXjXjXbXbXbXvXjXaX+X.X).b.d.*...@.| q._ m.%X%X=X=X=X%Xc j g # ",
"# g j c m.=X=X%X*Xb *X*X*XT &X) ~ A V 0 9.t.t.| ] ] ] [  .t.v./.0XdXsXuX.X)./.b./.`..XrXpXdXjXjXjXjXjXdXaX+X.X(.b.p.*.} } +.t.f.P m.=X%X=X=X=Xb c j g # ",
"# g j c b =X=X=X%X*Xb m.*X&XE ( ~ Z f 4 t 0.u.#.} [ ] o.[ ..t.g.}.9X0X.X X/.b.c.b.!. X.XeXeXtXtXtXtXtXeX@X X).b.z.=. .}  .i.g.k.N.m.=X%X=X=X=X%Xc j 8 # ",
"# g j c b =X=X=Xm.*X*X%X*XT ;X( ~ N ; * 4 u 9.0.*...} o.o.} ..u.f.g.n./.b.b.c.l.c.b./.(._._._._._._._._././.b.s.u.| | +.t.n._.T.I.m.%X%X=X=Xm.%Xc j g # ",
"# g j c b *X*X*X&X&X&X&X&X&X&XI.~ N * o * 4 0 9.t.t.0.o.o.o.[ 9.9.0.*.a.z.z.z.l.z.z.x.x.c.v.v.x.x.n.v.x.v.v.p.t.} X.#.;.P.'.tX8X2XM.%X%X=X=Xm.%Xc j g # ",
"# g j c b *Xm.*X%X&X&X&X&X&X&X&X~ N * < & * 4 p 0.0.0.[ o.o.o.o.y o.X.*.t.a.p.i.i.i.i.i.i.i.i.i.i.t.i.i.i.t.t.+.}  .y.g./.OXpX8X2XM.%X%X=X%X=X%Xc j g # ",
"# g j c b =X=Xm.&X%X&X&X&X&X&X) ~ Z > = & & * 5 u 9.u o.o.o.o.o.o.o.[ X.0.+.+.+.+.+...+.+.+.@.| .... .| | |  . ...y.P./.XXiXdXwX>XM.%X%X=X=X=X%Xc j g # ",
"# g j c *X=X=X%X%X&X&X&X&X&X,Xj.~ A f * & & & * 4 0 t y o.o.o.o.o.o.o.[ [ ] [ ] [ [ ] ] ] ] ` X.` [ [ [ ] [ } +.i.g._.0XuXaXkXwX2XM.%X%X=X=Xm.b c j g # ",
"# g j c m.*X*X=X&XY *X*X%X&XE &X~ ! M ; O   < & ; 4 0 t u F r r w w w w w w w w w w w w w w r r y e e o.o.[  .u.v.^.0XiXsXfXaX8X2XM.*X*Xb =X=X%Xc j 8 # ",
"# g j c %X=X=X=X%X*X%X*X&X&X&X) ~ A M ; &   < = ; 4 V D t V 5 5 2 2 1 1 1 1 1 1 1 1 1 - 1 1 3 w e e e e [  .t.v._.[.tXaXfXfXrX].I.-X*X*X=X=X=X=Xc j g # ",
"# g j c b =X=X=X*Xm.m.*X&X&X&X&X~ A M ; &     & ; f N Z V B 4 ; = o o o o o O o o o o o o o 2 r i i o.[  .t.v./.0XaXdXdXaXrXXX].I.m.*X*X=X=Xm.%Xc j g # ",
"# g j c b =X=Xb *X%X%X*X&XE ) I ! A B > *     * > f Z A A N > * & . . . . . . . X . .   o + 3 r { w.w.f.g.n.^.[.rXaXsXdXaX+X|.Y.N.m.*X*X=X%X=Xm.c j g # ",
"# g j c Y =X=X=X%X=X&X*X=XY Q Z Z N N f * < < = ; M A ! ! N : * & . X X . X X X X X . o + 3 r X.u.g.T.wX9X0X0XOXrXrXaXdXiX.X/.P.N.M.%X%Xb =X=Xb c j g # ",
"# g j c Y =X=X=X*X*X*X*X=Xn m z f N Z N > & < & > M A ~ ~ Z f * &       .     . .   o - 3 y X.u.g.].gXlXgXdXtXOX@X+XuXuXtX_.n.f.N.m.%X%Xb =X=Xb c j g # ",
"# g j c b =X=X=X=X&X*X=X*Xn m f f B Z N > &   & ; M A ~ ~ A N f * &   < O & O + + 1 2 w 9.=.g.n.{.0XqXgXqX0X{._.'.`.+XrXOX^.d.w.N.m.n b =X=X=X=Xc j g # ",
"# g j c %X=X=X=X%X*X&X=X=Xn x z > B Z N > & o & ; M Z ! ^ ^ A Z f * * * * - 2 3 w r ] w.h.n.9XtXqXqX0X{.Y.U.f.g.E.Q.|.+X[.n.*.q.H m.b b =X=X=Xb c j g # ",
"# g j c Y =X=X=X%X%X&X*X%Xn m f f B Z N ; &   & ; f N Z ! ~ ~ ! N : ; ; 4 4 q o.[ *.a.v.b..XaXjXkXwX^.s.u.0. .u.p.E.Q.[.'.d.$.s H m.*X*X=X=X=Xb c j h # ",
"# g j c *X=X=X=X&X%X&X%X&X&Xm x B N N M ; &   & * ; f N A ! ~ ! Z B 4 9 5 t ] 0.t.v.b.`. X#XfXsXgX9Xk.w...} ..+.p.c.~.R.P.r.F K m.m.=X=X=X=Xm.=Xc j g # ",
"# g j c %X-X-X=X&X&X&X&X&X%X%Xm m N N f * o     & * ; f N A ! ! A V V 0 t o.0.a.n.`.yXrX#X#XeX0X9Xk.r.q.0.=.=.l.l.l.;.h.w.P H U m.m.=X=X=X=X=X*Xc j g # ",
"# g j c b %X%Xb %X%X%X%X%X%X%X%Xm m f , =   . .   & * : M N Z A A A V D u [ *.a.n.9XtXyXeX Xb.n.g.q.G G L u.i.p.d.a.#.{ s K m.=Xn n b b *Xb =X%Xc j g # ",
"d g j k c c c c c c c c c c c c v x l , % @ @ X @ $ @ % ; z x x C C N B t a p q.r.I.T.T.I.U.r.$.q.D x S D F q.$.P s a 0 9 x c c c c c c c c c c k j g # ",
"d d h h j j j j j j j j j j j j j h l % $ $ $ $ $ $ % % 8 l l l l l l l 7 7 7 C C J J J J C J z 7 7 l l 7 x z 9 9 x 7 7 7 l j j j j j j j j j j h g g # ",
"# g g g g g g g 8 g g g g g h g 8 g # # # # # # # # g 8 d 8 g 8 g 8 8 8 8 8 8 8 h h h 8 h h 8 8 h 8 8 8 g 8 h h 8 8 h 8 8 8 g g g g 8 g g g g 8 g 8 8 g ",
"d d d # # # # # # # # # # # # g # # g g d g g g d g g g g # d # d d d 8 g d d d g # # # # # # 8 # # # # g # # # g # # g g # # # # # # # # # # # 8 8 g # "
};
