/* XPM */
static char *face31678799272[] = {
/* columns rows colors chars-per-pixel */
"76 100 244 2 ",
"   c #1B1B1B",
".  c #151617",
"X  c #0F1316",
"o  c #231E1B",
"O  c #29221D",
"+  c #36281E",
"@  c #182626",
"#  c #003D3D",
"$  c #093434",
"%  c #113636",
"&  c #232323",
"*  c #2C2C2C",
"=  c #292726",
"-  c #362C25",
";  c #3B3B3B",
":  c #353535",
">  c #303431",
",  c #201F21",
"<  c #503617",
"1  c #422F21",
"2  c #4A3327",
"3  c #553B2A",
"4  c #453D38",
"5  c #513E32",
"6  c #653F26",
"7  c #2E483D",
"8  c #09413F",
"9  c #574436",
"0  c #524434",
"q  c #68442A",
"w  c #7D4E2E",
"e  c #73482C",
"r  c #684936",
"t  c #7C4E31",
"y  c #734C34",
"u  c #7F5031",
"i  c #79553C",
"p  c #6B5239",
"a  c #6D4B22",
"s  c #003F40",
"d  c #3D3E40",
"f  c #044444",
"g  c #0D4746",
"h  c #155555",
"j  c #1E5E5E",
"k  c #1A4747",
"l  c #394B49",
"z  c #325250",
"x  c #2C6C6C",
"c  c #2D6767",
"v  c #3E7E7E",
"b  c #3F7676",
"n  c #3D6868",
"m  c #4D4C4C",
"M  c #454545",
"N  c #465449",
"B  c #545454",
"V  c #5A5A5A",
"C  c #53524D",
"Z  c #6B5A46",
"A  c #775A44",
"S  c #69584F",
"D  c #596C5E",
"F  c #4D6559",
"G  c #656758",
"H  c #7C6857",
"J  c #767154",
"K  c #566B65",
"L  c #567268",
"P  c #447C7B",
"I  c #4A7E7B",
"U  c #497875",
"Y  c #567D7B",
"T  c #486D6A",
"R  c #636363",
"E  c #6C6C6C",
"W  c #666A68",
"Q  c #777968",
"!  c #697A79",
"~  c #767774",
"^  c #687167",
"/  c #925316",
"(  c #85512E",
")  c #96582B",
"_  c #835232",
"`  c #8B5534",
"'  c #895838",
"]  c #935936",
"[  c #9B5A35",
"{  c #945C3A",
"}  c #9C5D3A",
"|  c #925535",
" . c #824E2C",
".. c #A95D26",
"X. c #A15F3A",
"o. c #A25E33",
"O. c #9B623C",
"+. c #916335",
"@. c #AB6428",
"#. c #B76524",
"$. c #A2613C",
"%. c #AA643E",
"&. c #A86133",
"*. c #B56939",
"=. c #B1762C",
"-. c #A86314",
";. c #D9751C",
":. c #CE6E17",
">. c #E6791B",
",. c #C96C26",
"<. c #DB7628",
"1. c #C46E39",
"2. c #C57737",
"3. c #D37535",
"4. c #CA7328",
"5. c #E27A24",
"6. c #865B43",
"7. c #965E43",
"8. c #88634A",
"9. c #996446",
"0. c #9B7558",
"q. c #8E7252",
"w. c #AC6641",
"e. c #AD6944",
"r. c #A56745",
"t. c #B46A43",
"y. c #BC6D46",
"u. c #B46C46",
"i. c #BC724A",
"p. c #B5724A",
"a. c #A77656",
"s. c #B77955",
"d. c #AC724D",
"f. c #8C796C",
"g. c #AF7E60",
"h. c #C16F46",
"j. c #C3734A",
"k. c #C6784E",
"l. c #C7764B",
"z. c #C57A53",
"x. c #CA7D53",
"c. c #C67D57",
"v. c #4A817E",
"b. c #52827D",
"n. c #7C8574",
"m. c #AD832D",
"M. c #DC861C",
"N. c #E9861A",
"B. c #EC971C",
"V. c #F1981B",
"C. c #EA880D",
"Z. c #EFA71F",
"A. c #F1A91E",
"S. c #F3B01F",
"D. c #D58B2B",
"F. c #E68F25",
"G. c #EDA822",
"H. c #F1AB23",
"J. c #F1B320",
"K. c #E9AC35",
"L. c #B6865A",
"P. c #8F8A77",
"I. c #B98A68",
"U. c #AF8D71",
"Y. c #CC835B",
"T. c #CA8258",
"R. c #D3865A",
"E. c #D5895D",
"W. c #D7895B",
"Q. c #DB8848",
"!. c #F2B452",
"~. c #C98A66",
"^. c #D48C63",
"/. c #DA8E62",
"(. c #D18F6B",
"). c #DB9265",
"_. c #D4926D",
"`. c #DC956A",
"'. c #D99569",
"]. c #CB9676",
"[. c #DC9C75",
"{. c #D69976",
"}. c #C9926D",
"|. c #E39A6C",
" X c #E39869",
".X c #E29E72",
"XX c #DCA17D",
"oX c #CFAD6D",
"OX c #E9A375",
"+X c #E4A47C",
"@X c #E9A67A",
"#X c #E7A67A",
"$X c #EFB174",
"%X c #EA9B49",
"&X c #F6C773",
"*X c #3C7F80",
"=X c #467F80",
"-X c #3E8182",
";X c #418181",
":X c #4C8585",
">X c #578482",
",X c #749A9A",
"<X c #789798",
"1X c #6F898A",
"2X c #8B8A8A",
"3X c #959393",
"4X c #8D938C",
"5X c #B0988B",
"6X c #B6A796",
"7X c #9CACAC",
"8X c #A1ADAD",
"9X c #AAAAA9",
"0X c #B5B1AE",
"qX c #CD9D83",
"wX c #DAA686",
"eX c #DAB49B",
"rX c #CCAB90",
"tX c #E4A984",
"yX c #E9AD84",
"uX c #E2AC8A",
"iX c #E6AB85",
"pX c #E9B28C",
"aX c #E5B28D",
"sX c #E5B493",
"dX c #E8B593",
"fX c #E9BA9B",
"gX c #E7B899",
"hX c #F3BB90",
"jX c #D4B8A3",
"kX c #E9BEA1",
"lX c #E4BEA3",
"zX c #F4CA93",
"xX c #DFC4B0",
"cX c #E9C1A4",
"vX c #E9C5AC",
"bX c #E7C5AC",
"nX c #E9CBB4",
"mX c #E8CEB9",
"MX c #E5CBB6",
"NX c #E9D1BD",
"BX c #FEDEB8",
"VX c #E9D5C3",
"CX c #E8D9C9",
"ZX c #F4E2CA",
/* pixels */
"f # # # # # # # # # # # # # # # s s s s s s s s s s s s s s s s s s s s s s s s f s s s # # f s s # # # f # # # # # s # # # # # # # # # # # # # # 8 8 # ",
"# f f f f f f f f f f f f f f f s s s s s s s s s s k s s s s s k s f s s f f s f f f f f f f f f f f f f f f f f f f f f f f f f f f f f f f f f 8 # f ",
"s f f h h h h h h h h h h h h h h h h h j h h h h h h h h h j s h j h j h j h h h h h h h h h h h h h h h h h h h h h h h h h h h h h h h h h h h g f # ",
"# f g j x x x x x x x x x x x x x x c c x x x x x x x x x x x c x x x x x x x x x x x x x x x x x x x x x x x x x x x x x x x x x x x x x x x x j g f # ",
"# f h x v ;Xv.v v v v v P v v v *X*X*X*X*X*X=X=X=X*X=X*X=Xb =X=Xb b b *X*Xb b b b b v.b P P P U *XP b b P b v.b b b b v ;X-X;Xv *X*Xv *X*X-X*Xv x h f # ",
"# f h x *X:X;X;X;X;X;X;X;X;X;X;X=X=X=X=X=X=X=X=XU U T =X=XT =XT n T n n n n n n T T L D K L K L L L L L L L L L L L v.v.;X-X;X;X;X;X;Xv.v.-Xv.-Xx h f # ",
"# f h x v :X-X;X;X;X-X;X;X-X;X;X=X*X*X*X*X*X=XV K K V T V K K n N z l l l l z l N Z Z Z Z Z Z Z Z Z Z Z Z Z Z Z Z G L v.-X-X-X-X-X;X;X;X-X-Xv.-Xx h f # ",
"# f h x v ;X;X-X-Xv.*X-Xv.-X-Xv.*X=X=X=X=X=X=X=XV V B B V B B m m d ; ; d ; 4 M 9 p ' ` ( ` ` ( ( ` +.' ( +._ ( ( i G U v.v v.v.v.;X;X;X;X-X;X*Xx h f # ",
"# f h x v ;X;X*X-X*X-X*X-X-X-X*X=XY =X=X=X=X=X8.V B B m m m m M M 5 5 5 5 5 Z r 6.6.| o.........) -.-.m.=.m.=.@.-.&.8.Q ^ L K L U v v ;Xv ;X;X*Xx h f # ",
"# f h x v ;X;X-X-Xv.v.-XP -Xv.*X=X=X! ! =Xf.=XR V B m d ; d 4 M 5 y q r r t 6.} X.w.t.*.,.:.:.,.:.M.D.M.D.D.M.;.:.4.*.d.0.8.Z G F v.v ;X;X;Xv.*Xx h f # ",
"# f h x *X;X;Xv.-X*Xv.v ;X=X-Xv.=XY ! ~ f.=Xf.R V m M ; ; : 4 5 r _ ` ( | [ *.h.h.h.1.3.<.>.>.>.M.B.Z.J.J.J.Z.B.N.<.D.l.*.$.] A D v.*X*X;X;Xv.*Xx h f # ",
"# f h x v.;X;X*Xv -X-X-X*X;X=XI Y ! E E f.E R S B M 4 ; : 4 5 r _ [ o.o...#.,.3.3.3.3.<.N.N.B.B.B.Z.J.J.J.J.S.A.B.B.F.D.D.4.#.+.^ v.-X*Xv ;X-X-Xx h f # ",
"# f h x v.-X;X;X-Xv.=X=X;X=XY ! E E R R R R V C M d ; : 4 0 r _ 7.w.*.,.,.;.>.5.5.5.5.N.B.G.Z.V.A.A.J.J.J.J.J.A.Z.G.G.G.F.M.4.=.^ v.*X*X-X-X-X-Xx h 8 # ",
"# f h x *X;X;X-X*X*X-X=XP ;X=X! ~ R R B B B C M ; : : 4 5 r _ { %.h.3.<.>.>.>.>.>.>.>.V.G.H.J.J.J.A.A.A.A.A.S.A.H.H.G.A.G.B.N.4.m.b.v v -Xv.-Xv x h f # ",
"# f h x *X;X;X*X-XP >X=X=X=X=Xf.~ E V B m m M d ; ; 4 5 r i { *.1.3.<.>.>.>.C.V.>.V.V.V.H.J.J.J.A.Z.Z.B.V.V.V.A.S.S.S.Z.V.V.B.D.m.D T b v.-Xv.-Xx h f # ",
"# f h x P ;X;X;X-X-X=X=X=X=X=X=X~ E R B m M ; ; : 4 9 r _ } e.1.3.5.>.>.>.>.V.A.H.V.V.H.A.S.J.J.A.Z.N.C.>.N.B.V.A.A.V.C.N.B.Z.D.m.i G L v.-X-Xv.x h f # ",
"# f h x P ;X;X;Xv.-X-X-X;XI =X~ E R V m M ; : : : 4 r u ` $.t.1.3.;.;.>.>.F.B.G.A.A.A.Z.A.A.A.J.G.F.N.;.>.;.;.M.B.G.B.M.5.B.Z.F.4.) A F v.v ;X-Xx h 8 # ",
"# f h x v ;X;X;X*X*XP I Y Y E E R V B M : * * * : 4 9 w ` } $.&.#.#.,.4.<.5.F.V.V.V.V.V.B.V.A.J.G.G.M.3.,.#.,.#.=.m.4.3.5.F.B.M.;.#.+.n.v.v -X-Xx h f # ",
"# f h x v ;X;Xv.;X=X=X=X! =Xf.R V B M : * , , * : 5 9 w _ ` ` | | ) o.*.h.3.5.N.N.N.N.N.N.N.B.A.G.K.3.h.*.[ ) ) ..+.=.1.3.<.N.>.>.:.=.J v.v -Xv x h f # ",
"# f h x v ;X-X-X=X=X=X=X=Xf.~ R V M 4 * ,   , * : 0 r y _  ._ u t  .] X.t.3.,.;.;.;.;.;.;.;.M.B.G.D.2.t.{ ` _ t u ` } t.*.3.<.>.>.>.m.q.b.b -Xv x h f # ",
"# f h x v ;X;X;X=X=X:X1X2X2X~ R m d * ,   . , - 5 r y u  .w w w w t _ { } o.@.#.#.#.#.-.#.#.;.B.F.4.=.{ ' _ t e t _ ' { %.*.3.<.>.>.2.n.v.-X-X;Xx h f # ",
"# f h x *X;X;X;X*X*X:X<X7X9X2XE m 4 = o .   , 2 q y w t t _ t t t  ._ ` ` | | ) ) ) ) ) ) ) #.;.;.4.&.` _ _ t t t _ _ ` O.*.1.3.5.>.2.q.b.-X-X*Xx h f # ",
"# f h x v ;X;X;X*X*X:X,X7X9X3XE m : , . o o - 3 e _ _ w _ ` ` ` _ _ _ _ ` ` ` ` ` ` ( ` ' ` @.,.:.#.[ ` _ ` ` ` ` _ ` ` { X.e.1.<.>.=.n.v.v -X-Xx h f # ",
"# f h x v ;X-Xv.*X;X:X,X8X9X3XE m : o o O 1 3 q w _  ._ ` ] } { ` _ _ | } X.7.} } X.7.} } } ....@.@.o.} 7.X.} X.X.} } X.} { X.*.4.>.=.m.v.;X;X*Xx h f # ",
"# f h x *X-X;X;Xv *X:X,X8X9X3XE m : & , 1 6 e w w _ w  .] $.e.%.] _ ' X.t.t.t.t.t.t.t.u.t.t.$.[ ) X.w.t.t.t.t.y.t.t.t.t.w.7.| o.,.;.=.P.U v -X-Xx h f # ",
"# f h x v.;X;X-Xv v :X,X8X9X3XE m : & O 1 e  ._ _ t w _ ` X.e.w.{ ] [ t.y.j.h.j.j.h.h.h.h.y.e.} 7.r.y.l.x.l.l.l.k.k.l.j.t.} ( ) #.:.=.q.v.*X-Xv x h f # ",
"# f h x v ;X-X*X*X;X:X,X7X9X3XE m : , O 2 e _ _ _ w t _ ` ] } O.$.$.r.t.h.j.j.j.j.h.j.h.h.i.i.p.i.c.R././.x././.W.x.x.l.t.} ( ( ) @.O.J v.;X;Xv x h f # ",
"# f h x v ;X;X-Xv.;X:X,X7X9X3XE m : , O 2 e _ _ w _ w _ _ _ ` { %.t.y.y.j.h.h.h.y.j.h.y.j.j.c.^.'.`. X X|. X X|. X).W.l.t.[ ` ( ) +.A D U v -X;Xx h f # ",
"# f h x P ;X;Xv.v *X:X,X8X0X4XE m ; - - 3 e _ _ _ w u u _ _ ` } e.y.h.j.h.j.y.j.j.j.k.k.k.x.^..X#X@X@X@X.X@X@X@X.X.X`.c.i.w.{ `  .u Z D v.-X;X;Xx h 8 # ",
"# f h x v.;X;X;Xv *X:X,X8X9X3XE C M 2 3 6 w t _ _ t u  ._ ] } %.u.h.j.j.y.h.y.h.l.R.W.W.W./.`.@XyXpXyXyXpXyXyXyXyXtXtX[.~.s.r.[ ` u Z D v.-X-X-Xx h f # ",
"# f h x v ;X;X;Xv *X:X,X8X9X3XE S C e e w  . ._  .u w _ ` $.t.y.h.h.j.y.j.h.h.j.x.^.|.|. X|.+XuXdXdXdXdXdXdXdXdXdXdXdXuXwX~.i.w.) ` p D P -X-X-Xx h f # ",
"# f h x *X;X;X-Xv *X:X,X8X9X4XE V A _ | (  .t  .t _ _ ` } w.y.j.h.j.h.y.h.j.j.c.E.|.@X@X@X@XyXpXgXfXfXfXkXkXkXkXkXkXkXgXuX_.z.t.O.` Z D I -X-Xv.x h f # ",
"# f h x *X*X:X*X*X*X=X7X8X9X2XE V 6.7.X.| t  . . ._ ] X.w.t.h.h.h.y.y.h.h.l.x.^.|.tXyXyXyXpXpXdXfXfXgXfXkXlXVXnXnXnXkXkXdX_.x.t.[ _ Z L P -X;X-Xx h f # ",
"# f h x *X:X*X*X*X*X=X,X8X9X2XE S 8.r.w.X.| t e  .' X.t.y.j.h.h.j.j.h.h.h.c./..X.XpXdXdXgXdXdXdXfXdXgXfXlXVXVXVXVXVXvXfXuX_.k.t.[ ` i D I -X-X;Xx h f # ",
"# f h x P *X*X=X*X*X=X,X8X9X3XE R 8.u.y.%.7.6.| ] { w.h.j.k.k.x.c.x.l.l.x.^. X.XyXdXgXfXgXfXgXfXkXkXkXlXVXVXCXCXCXVXvXfXtX_.k.t.[ ` Z D P -X;Xv x h f # ",
"# f h x *X:X*X=X*X*X=X,X8X9X2XE S 8.t.h.y.%.w.w.w.t.h.l.x.x.^./.^./././.^.|..XyXpXdXgXfXfXgXfXfXkXkXkXVXCXZXZXCXCXVXkXhX.Xx.j.t.[ ` Z D P v ;X-Xx h f # ",
"# f h x *X=X*X*X*X*X=X,X8X9X3XE S 8.d.j.y.y.u.y.t.y.y.h.x.^. X X|. X X.X.X.XpXdXkXgXgXdXgXgXdXgXkXkXVXVXVXVXCXCXVXVXkXiX Xx.x.t.[ ` Z D v.;X;X*Xx h f # ",
"# f h x *X=X=X*X=X=X:X3X9X9X2XE S 7.u.y.u.r.7.9.9.9.$.9.d.c./. X X X X.X@XpXfXkXkXkXfXfXfXgXdXuXuXeXjXjXjX9X0XrX9XrXeXpXtX/.j.t.[ ` Z D P ;X;X*Xx h f # ",
"# f h c =X=X=X=X=XE =X7X9X9X2X8.6.7.u.u.7.6.r S r r Z A 6.s.Y.W.W./. X.XpXkXvXmXmXkXfXfXfXhXuX.X(.~.U.g.f.f.~ ~ ~ f.6XeXdX_.z.t.) ` Z K P -X;X*Xx h 8 # ",
"# f h x =X=X=X=X=X=X2X3X9X6X3X8.| 7.u.r.6.9 4 4 4 4 4 4 9 7.p.j.j.l.~.[.dXkXnXmXlXkXkXgXgXuX[.~.j.e.7.6.S m M M m R 3XjXlXwXz.t.O.( A D P -X;Xv x h f # ",
"# f h x P ;X;X;X=X3X3X9X9X9X2X7.t | 7.7.y 3 3 3 q 0 : - 4 q ' ' | 7.r.g.].rXeXlXeXuXwXqXU.U.a.9.' w q q 0 - - - 5 S f.3X6XqXc.z.$.` i J L b.b.P x h f # ",
"# f h x *X;X=X:X=X<X9X0X0X9X5X8.y y r r 6 6 a ) /  .< O , - 2 3 2 3 r 8.a.I.}.].{.(.~.a.8.C M 3 2 3 2 - O & = 7 y 6.H f.f.g.c.c.%.' i 8.q.f.b.P x h f # ",
"# f h x v -X*X:X,X7X0X0X0X9XU.8.y r 5 5 < / -.:.:.#.a - , & O O o + 2 q ` 9.d.z.x.x.p.6.3 + O O - - 0 ; * O > a X.r.6.m S 0.{.(.p.' ` r.d.0.n.P x h f # ",
"# f h x v -X*X:X,X8X0X0X0X9Xf.6.t r r r / -.:.:.C.D.%.G C 0 < < < < 3 6 w ] t.l.l.h.t.| 6 < < < 0 Z D ^ Z 0 a +.g.g.8.r A g.[._.a.] ] *.s.L.n.b x h f # ",
"# f h x v -X-X:X,X7X0X9X3X2Xf.6._ _ 6.} ..:.:.>.H.%XoX0X5XP.m.-.-./ /  . .X.i.R.x.x.h.&.../ -.-.m.U.7X6XU.m.m.L.].5Xf.7.9.g.uXqXa.+.} i.).U.P.I x h f s ",
"# f h x v ;X*X:X<X7X8X9X2Xf.S _ ` [ w.1.,.>.>.>.J.!.zXZXNX&XK.B.>.;.#.) | r.~.`. Xx.l.3.,.;.N.F.K.&XZXZXzX!.K.oXrX6X5Xg.c.{.iXqXa.' 9.s.'.U.n.:Xx h f s ",
"# f h x v -X*X:X<X7X0X3X=X8.A y ` X.h.1.3.5.>.V.K.!.zXZXBX&X!.H.N.5.,...[ s.].uX.X/.x.3.<.5.F.H.!.&XBXZXzX&X!.$XjX0XqX(.(..X.X}.a.' +.p.^.U.n.;Xx h f s ",
"# f h x v v.*X:X<X8X9X3XR B C y ' X.h.h.l.3.l.F.%X!.hXzXzX&X!.%XD.l.3.*.t.g.wXlXgXtX/.x.3.3.Q.%X!.$XzXzXzX$X$XpXeXeXuXwX[._.~.s.O.' ] e.T.L.n.P x h f s ",
"# f h x v v.-X:X,X7X9Xf.B d 5 y ` X.t.h.h.l.x.E.|.@X$X@X@X@XOX`.x.x.h.h.i.(.eXMXvXpX.XW.x.l.R. X$XOX@X@XpXaXgXfXgXfXgXgXwX_.T.p.} ] ] w.i.a.n.P x h f # ",
"# f h x v -X-X:X,X7X9X2XB ; 5 e ` X.t.j.l.x.^.[.iXaXpXaXpXaXaXtXtXc.c.j.z.].eXVXnXfX+X[.).~._.[.yXyXyXdXgXlXvXcXcXbXvXvXgXXXY.z.d.a.d.p.u.0.Q I x h f # ",
"# f h x v -X*X:X,X7X8X1Xm 4 5 q ` X.t.l.R.W.[.uXkXnXvXbXbXbXbXlXsXwX_.x.z.].jXVXmXcXpXtXwXwXtXuXsXfXcXbXMXmXNXNXmXmXNXmXbXuX`._._.].}.c.i.0.~ P x h f # ",
"# f h x *X-X-X:X,X7X9XP.B 4 5 y ` X.t.l.R. X@XfXmXVXVXVXVXVXNXnXlXpXqXc.z.(.eXVXmXcXdXdXdXpXdXdXgXcXmXVXVXVXCXCXVXCXCXVXnXsX#XOXtXtXwX^.z.0.Q P x h f # ",
"# f h x P ;X*X:X<X7X9X2XS 5 9 e ` X.t.x.W.|.yXcXVXCXVXNXmXMXvXcXsXuX(.c.z.(.jXVXVXvXzXfXdXdXpXhXdXcXbXNXVXCXCXCXCXCXVXNXvXdX@X@X+XXX[./.Y.L.n.v.x h f # ",
"# f h x *X-X*X:X,X9X9X2XH e e t ` X.t.x./.|.yXcXNXVXNXbXcXfXaXtX{.c.c.l.z.].lXVXVXvXfXhXyX$X@X@X@XpXfXbXNXVXCXCXCXVXNXbXfXpX@X|.'.^.^.)._.U.n.v.x h f s ",
"# f h x P v.-X:X,X7X9XU.8._ w  .` { e.l.R. XtXkXNXNXbXfXpXyXOX).c.j.h.y.i.}.eXxXMXjXuXtXXX|.|.|.OX#XaXcXbXNXVXVXCXVXvXkXpXyXOX).Y.k.T.W.'.U.n.v.x h f s ",
"# f h x *X*X*X:X,X7X0X5Xa.[ ( _ _ ] $.e.k.W.[.gXmXVXbXsX+X|./.T.y.%.%.X.r.s.U.6XqXqXI.~.L.T.T.E.'.XXaXfXvXbXNXNXmXbXkXpXyX|.).T.i.*.*.T.).I.n.v.x h f s ",
"# f h x v -Xv :X,X7X0X5Xs.r.[ ` _ _ ` } t.k.(.eXmXmXcXyX.XW.T.i.w.| ` | | 7.0.0.0.0.9.9.O.9.e.i.x.{.uXgXkXkXcXcXbXfXdXyX.X/.Y.i.%.{ $.y.k.L.n.I x h f # ",
"# f h x v -X*X:X,X7X9XqXc.y.X.| _ _ _ ` X.t.~.wXMXnXgX#X XT.j.w.7.| ` _ _ ` ` _ ' ' ] ' { +.$.y.c.^.tXsXgXgXfXfXdXsXtXOX XR.l.t.} ` ' %.a.0.~ P x h f # ",
"# f h x v ;X-X:X>X3X9X5X}.c.t.]  .e w ` [ t.Y.wXlXcXiX'.x.y.%.} [ | { [ [ [ | | +.O.r.r.a.a.s.L.R.^._.wXuXsXdXdXpX@X.X).R.x.j.%.[ _ u 8.q.Q b.I x h f # ",
"# f h x *X;X;X;X>X1X2XU._.^.p.{ _ e w ` X.t.c.wXsXeXXXY.y.$.] { X.%.w.w.w.X.w.w.p.T.Y.(.].].{.'./.^.R.~.{.uXdXpXtX.X).Y.l.l.h.e.+.' i J L Y b.I x h f # ",
"# f h x *X;X;X=X=X! f.U.}.^.s.O.t e  .` X.u.c.{.uXwX_.c.t.O.] O.e.j.j.z.j.j.j.z.Y.`.#XyXuXdXpX@X XW.x.x._.wXdXpX@X|.R.k.j.h.l.u.O.` Z D v.;X;Xv x h f f ",
"# f h x -X;X;X=X=XY ! P.~.Y.p.{ _ w _ ` X.i.c.[.uXuX(.z.y.e.d.p.c.x.^.^.(.^.^.^.`.uXfXkXkXfXhX@X.XW.l.l.(.uXdXpX@X).R.j.h.x.x.k.$._ p L v -X-X-Xx h f # ",
"# f h x P ;X;X*X=X=XY f.L.i.%.] _ e  .` X.t.c.[.uXwX(.k.k.c.^.^.). X.XtXwX.X|.|.tXkXnXnXcXfXpX@X|.R.k.z.(.wXdXyXOX XR.l.l.R./.Y.O.+.Z F v.-X-X-Xx h f # ",
"# f h x *X;X;X=X*X=XI Q 0.p.$.' t t _ ` X.u.Y.[.uXuX(.z.k.Y.^.`. X|..XtXuXtX.X.XtXlXbXbXgXpXtX.X).R.l.c._.uXdXyX@X XR.x.x./.|.^.L.+.Z D v.-Xv.v x h f # ",
"# f h x P ;X;X;X-X*XI ! f.9.7.' y w _ ` X.t.c.wXuXuX(.z.y.i.s.c.Y.^.^.{.{.)././.'.wXwXrXwX_.~.T.s.p.y.z._.uXdXpX@X X XR.W. X.X}.L.G F U v.;X;Xv x h f # ",
"# f h x P ;X-Xv.-X-Xv.Y Q f.8.' t t w ` X.u.c..XuXuX_.j.t.r.O.r.u.k.x.c.x.c.c.x.c.c.~.c.c.z.d.r.} r.t.z._.wXdXyX@X|. X X X XOX}.P.L U P v ;X;Xv x h f 8 ",
"# f h x v.;X-X;Xv ;XP Y ! ~ 8.6._  . .` X.t.c._.tXwX(.x.u.r.7.9.d.z.z.z.c.z.c.c.x.x.c.c.c.k.e.} { $.p.c._.uXdXyXOX.XOX.XOXOX X}.P.b.-X-X;X;Xv.*Xx h f # ",
"# f h x *X;X;X*X-X-X;X:X=X! Q 7.{ | _ ` X.t.x.^._.{./.^.Y.L.s.I.~.(.(.(.(.{.].qXqXqXqXqX_.~.I.s.d.i.T.E.XXaXdXyXOXOX@XyX@X X/.I.n.b.*X*X;X;X;X*Xx h f # ",
"# f h x v ;X;Xv.-Xv.-X-Xv.Y Q r.w.[ ` ` X.t.l.k.c.Y./.).[.{.wXwXwXuXuXtXwXeXlXbXbXlXlXlXeXtX[.'.^.^.).|.+XdXdXyXOXOXyXpXtX'.T.a.n.v.-X*X;X;Xv.*Xx h 8 # ",
"# f h x *X;X-X-X*X-X*X-X*XY Q a.u.X.` ` [ e.u.y.h.k.E. X.X+XuXwXuXuXuXsXdXlXbXmXVXVXnXvXkXaXyX@X@XOXOX@XyXdXdXyX@XyXyXaXtX^.k.a.Q v.*X*X*X;X;X*Xx h f # ",
"# f h x *X;X-X*X*Xv.*X*X*Xb.f.a.h.X.| _ ` } %.t.h.j.x.E.'.'.{.{._.{.[.tXyXdXfXkXlXkXkXgXpXpXyXyXyX@XyXyXpXdXgXdXyXyXyXyX+X^.k.a.J v.-X*X-X;X;X*Xx h f # ",
"# f h x *X;X-Xv.*Xv.*X*X*XY Q a.t.X.|  ._ ` { %.y.j.l.k.z.x.c.c.z.c.^.`.OX@X@XyXiXiXyXyX+X@XyXiXdXdXdXsXdXgXdXdXdXdXyX@X.XE.j.a.Q v.-X*X;X;Xv.v x h f # ",
"# f h x v.-X-X-X-Xv.-X-X*XI Q 0.e.X.| ` _  .` } t.u.y.h.j.l.k.x.c.c.(.[..X@XOXOXOXOXOX.X@X.XpXgXfXcXkXfXfXgXgXdXdXyXyX.XW.R.y.0.Q v.v -X-X-Xv.v x h f # ",
"# f h x *X;X;Xv.*X*X-X-X=XI W H 8.9.9.} | _ _ ' { w.t.y.j.x.R.^.{.qXwXwXiXyXyXyXyXyXyXyXyXpXdXkXnXnXnXnXbXkXgXdXpXtX.X/.T.y.%.8.G v.-X-X-Xv.-X-Xx h f # ",
"# f h x *X;X-Xv.v.*X*X-X*XP K R H 7.e.t.{ ` t  .` [ X.y.l.R.`.tXgXlXlXkXdXdXdXdXdXpXdXdXpXgXlXVXVXVXVXmXbXkXdXpX@X.X/.x.y.%.] A D v.-X-X-X-Xv.v x h f # ",
"# f h x v ;X-X-X-X*X-Xv.=X*XT K R 8.9.r.} ] ` _ _ ` } t.j.R.).tXkXmXVXkXdXpXuXuXuXdXdXdXdXgXkXmXNXVXVXmXvXfXpX@X.X).x.y.%.X.] A D U -X-X-X-X;X*Xx h f # ",
"# f h x P v.-X;X-X*X-X-X*XI Y E R S 6.6.7.X.} |  ._ ` { e.l.E.[.gXvXvXhXpXtX.X_..XtXyXdXgXkXkXkXMXnXnXvXkXaX@X.X/.T.y.r.[ [ o.8.^ U -X-X-X-X;X*Xx h f # ",
"# f h x *X;X-Xv.-Xv.v.*X-Xv.=X! E V m r 6.r.w.[ _ _ _ ` { e.z.^.wXgXfXpX.X.Xc.c.c..X.XyXpXgXkXkXkXkXkXfXpXyX.X/.x.i.$.{ ] X.%.0.Q b.-X*X;X-X;Xv x h f # ",
"# f h x v.;X-X*X*X-X-X*X*X=X=X~ E B d 4 r 7.r.X.] ` _ _ ` [ w.s.(.qXwX.X X/.x.j.l./.|..XtXtXuXuXuXuXuXtX#X.X/.T.i.w.{ ] } e.s.I.n.v.v -X;X;X;Xv x h f # ",
"# f h x v -X;X;X*Xv.v -X-XI >X~ E B * * 5 r 6.7.$.} ] _ _ ] } r.d.g.s.^.x.x.l.j.l.x././.(._._.(._._._.(.^.W.x.i.%.[ [ [ e.c.(.U.P.v.v v ;X;Xv.v x h f # ",
"# f h x v ;X;X-X=X*X=X*X=X=X=X=XE m = , * 4 r 6.$.w.7. . . .` ` ' 7.9.p.j.j.j.h.j.j.k.k.j.c.z.z.z.k.z.z.k.k.y.r.] ] } t.s.'.wX6X4Xb.*X*X-X;Xv.v x h f # ",
"# f h x v.;X;X-X*X=X*X*X=X=X2Xf.E m * , , * d A 7.X.7.| t  . .t t _ ` X.t.t.u.t.t.t.t.t.t.t.t.t.t.t.e.t.t.t.w.} ] { w.s.^.+XsXrX4X:Xv *Xv.-X-X*Xx h f # ",
"# f h x v -X;XP *X=X=X*X=XY =X2XE B : = , = * 5 r 6.y t  .t  ._  . .` | } X.X.X.X.} } } X.X.[ X.[ [ [ } [ { { [ } e.z.(.XXpXgXrX4X:Xv *X-X-X-X*Xx h f # ",
"# f h x -X;X;X;X=X*X*X*X=X=X=Xf.E V M * & , & * 4 9 r t _ _ t _ t  . ._ _ ` _ ` ` ` _ ` _ ` _ ` ` ` _ ` ` ` ] X.t.s.(.wXpXfXgX6X4Xb.*X*X-X-Xv.*Xx h f # ",
"# f h x v ;X;X;X=Xv *X=X*X=X=X=XE V M : , ,   & : 4 5 e y y y e e q q q 6 q q q q q q q q q e e t  .t w  .( { r.z.(.[.sXfXhXdXrX4X:X-X-X-X-Xv.v x h 8 # ",
"# f h x ;X;X;X;X*X=X-X-X=X=X=Xf.~ V M * ,   , & : d 9 S S 9 5 5 2 2 1 1 1 1 1 1 1 1 1 - 1 1 < e t e w  .` { w.c.(.[.uXgXdXhXyXqXP.:X-X-X-X-X-X-Xx h f # ",
"# f h c v ;X-X*X-Xv v -X=X=X=X! E V M : =   , = : d m B C m 4 : = o o o o o o o o o o o o o 2 e  ._ _ _ { w.z.(.wXsXgXgXdXyX@XU.P.b.-X-X-Xv.-Xv x h f # ",
"# f h x v ;X-Xv.-X-Xv.-X=XI Y W R B M ; *     = : M B V V M ; * O . X . .   . . X . .   o + 3 e | 7.q.a.s.c.~..XiXdXgXgXsX@XOXI.n.v.*X-X-X-Xv.v.x h f # ",
"# f h x P ;X;X;X*X*X=X-X;XP T B B m m d * , , = : M V R R m d * , . . X X X X X X X . o + 3 e | r.g.5XqXrXwX[.tXyXyXdXgXaX.X^.L.n.b.-X*X-X;Xv.-Xx h f # ",
"s f h x *X;X-Xv.=X*X-X;X-Xb n l M m B m : ,   & : M V E W B d * , ,                 o - 6 t 7.r.c.].jXlXlXeXtXtX#X@XyXdXuX'.c.a.n.v.-Xv v ;X;Xv x h f # ",
"# f h x *X;X-X;X*X:X-X;X;Xb n ; ; M B m ; ,   & : M V W E V m d * , , , , O O = + + 2 q _ r.i.c.].wXjXlXeXrX{.{.'.`.#XyXXX^.p.9.n.v.b v ;X;X;X-Xx h f # ",
"# f h x P ;X;X;X*X;X;X;X-Xb z l 4 M B C ; , , = : M B R W W V B M * = = * - 2 3 6 e _ 7.d.c.qXuXeXuXwX].~.g.a.s.T.E..X@X[.c.r.6.F v.v v -X;X;Xv x h f # ",
"# f h x *X;X;X;X*X;X*X-X*Xb n l d M B m : , , & : M m B R E E R m 4 : : : 2 6  .| 7.y.c.x.OXpXkXlXrX~.s.r.{ { r.y.k.).|.E.L.+.i D v.-X;Xv -X;X-Xx h f # ",
"# f h x *X;X;X;X;X=X:X-X=XU n z l m m M : ,   , = : d m B R E E B M d 4 5 r 6.7.u.z.x.`.OXOXhXfXjXqXg.r.] ] [ X.y.l.T.T.L.q.A G v.v.-X;X;Xv.v.-Xx h f # ",
"# f h x -X;X:X;X*X;X=X=X*X=XP n n N m d * ,     , = : d m V R R V C 9 9 Z  .7.t.c.`.iXyX@XOX.XwXqXg.0.8.6.%.w.h.h.h.i.e.r.J D b.v.v.;X;X;X;X;X-Xx h 8 # ",
"# f h x v v.*X*Xb *X*X*X*X*X*X*Xn n d > & , . . , , * ; d m B V V B B S y ` X.i.c.qXwXiXtX.Xx.c.s.8.S V 8.r.t.y.y.e.O.+.i D T v.b b v v v -X-Xv x h f # ",
"s f h j x x x x x x x x x x x x c z k > % @ @ . $ @ @ % 7 l l l N N m m 9 p i 8.0.P.U.P.U.L.q.J 8.Z N N V A 8.+.8.8.p p 0 c c x c x x x x x x x j h f # ",
"s s g g h h h h h h h h h h h h h k g % $ $ $ $ $ $ 8 % 8 k k k k k k k 7 7 7 N N F D F F N N 0 7 7 k k z l z 0 l 7 7 7 7 k h h h h h h h h h h h 8 f # ",
"s s f f f f f f f f f f f f g f f f 8 # # s # # # # 8 # 8 s f f 8 f 8 8 # 8 8 g g g g 8 g g g f g 8 f 8 8 8 8 g 8 g f 8 8 f f f 8 f f f 8 f 8 8 f # f # ",
"s s s s # # # # # # # # # # # # # # s f s s f f s f s s f # # # s s # 8 f s # # 8 # # # # # s s s # # # # # # s # # # # f # # # # # # # # # f # # # # f "
};
