/* XPM */
static char *face1678799271[] = {
/* columns rows colors chars-per-pixel */
"76 100 244 2 ",
"   c #1C1B1B",
".  c #151617",
"X  c #0F1316",
"o  c #231E1B",
"O  c #2A221D",
"+  c #36281E",
"@  c #182626",
"#  c #003D3D",
"$  c #093434",
"%  c #113636",
"&  c #232324",
"*  c #2C2C2C",
"=  c #2A2624",
"-  c #372C26",
";  c #3B3B3B",
":  c #353535",
">  c #2D3334",
",  c #422F21",
"<  c #493426",
"1  c #543929",
"2  c #443C38",
"3  c #513E32",
"4  c #5C3920",
"5  c #2E483D",
"6  c #09413F",
"7  c #4A443D",
"8  c #574437",
"9  c #5F422D",
"0  c #68432B",
"q  c #7D4E2E",
"w  c #73492D",
"e  c #694937",
"r  c #7C4E31",
"t  c #734C34",
"y  c #7F5031",
"u  c #79553C",
"i  c #6B5239",
"p  c #7D633F",
"a  c #003F40",
"s  c #3B3E40",
"d  c #044444",
"f  c #0D4746",
"g  c #155555",
"h  c #1E5E5E",
"j  c #1A4747",
"k  c #3A4948",
"l  c #325250",
"z  c #2C6C6C",
"x  c #2D6767",
"c  c #3E7E7E",
"v  c #3F7676",
"b  c #3D6868",
"n  c #444444",
"m  c #4D4C4C",
"M  c #494847",
"N  c #534C49",
"B  c #465449",
"V  c #545353",
"C  c #5B5B5B",
"Z  c #575858",
"A  c #515552",
"S  c #6B5946",
"D  c #765B45",
"F  c #685A53",
"G  c #596C5E",
"H  c #4D6559",
"J  c #656758",
"K  c #7C6857",
"L  c #767154",
"P  c #566B65",
"I  c #567268",
"U  c #447C7B",
"Y  c #4A7E7B",
"T  c #497875",
"R  c #5B7D7C",
"E  c #537D7A",
"W  c #486D6A",
"Q  c #636363",
"!  c #6C6C6C",
"~  c #666A69",
"^  c #787968",
"/  c #697A79",
"(  c #767775",
")  c #697167",
"_  c #555C61",
"`  c #85512E",
"'  c #96582B",
"]  c #835232",
"[  c #8B5534",
"{  c #895838",
"}  c #935936",
"|  c #9B5A35",
" . c #945C3A",
".. c #9C5D3A",
"X. c #925534",
"o. c #824E2E",
"O. c #A95D27",
"+. c #A15F3A",
"@. c #A25E33",
"#. c #9A623C",
"$. c #926336",
"%. c #AB6428",
"&. c #B66424",
"*. c #A2613C",
"=. c #AA643E",
"-. c #A66233",
";. c #B46839",
":. c #B2752C",
">. c #A0581C",
",. c #D9751C",
"<. c #CE6F1D",
"1. c #E6791B",
"2. c #DA7628",
"3. c #C46E38",
"4. c #C47836",
"5. c #D37535",
"6. c #C96F26",
"7. c #E27923",
"8. c #865B43",
"9. c #965E43",
"0. c #88634A",
"q. c #996446",
"w. c #9B7558",
"e. c #8D7153",
"r. c #A46542",
"t. c #AC6641",
"y. c #AD6944",
"u. c #A66A49",
"i. c #B46A43",
"p. c #BC6D46",
"a. c #B46C46",
"s. c #BC724A",
"d. c #B5724A",
"f. c #A77656",
"g. c #B77955",
"h. c #AC724D",
"j. c #87796D",
"k. c #AD7C61",
"l. c #C16F46",
"z. c #C3734A",
"x. c #C6784F",
"c. c #C7774C",
"v. c #C57A53",
"b. c #CA7D53",
"n. c #C57C57",
"m. c #D07F53",
"M. c #4A817E",
"N. c #52827D",
"B. c #7C8574",
"V. c #EA871A",
"C. c #ED971C",
"Z. c #F1981B",
"A. c #EFA71F",
"S. c #F1A91E",
"D. c #F3B01F",
"F. c #D48D29",
"G. c #E49025",
"H. c #EDA822",
"J. c #F0AE20",
"K. c #F1B320",
"L. c #EEB121",
"P. c #DB861E",
"I. c #BA825C",
"U. c #8F8977",
"Y. c #B88867",
"T. c #AE8B72",
"R. c #CC835B",
"E. c #CA8257",
"W. c #D3865A",
"Q. c #D5895D",
"!. c #D7895B",
"~. c #DB8D54",
"^. c #C98A66",
"/. c #D48C63",
"(. c #DA8E62",
"). c #D18F6B",
"_. c #DB9265",
"`. c #D4926D",
"'. c #DC956A",
"]. c #DA956A",
"[. c #CA9676",
"{. c #DC9C75",
"}. c #D69976",
"|. c #C8916E",
" X c #E39A6C",
".X c #E4986A",
"XX c #E29E72",
"oX c #DCA17D",
"OX c #E4A175",
"+X c #E8A375",
"@X c #E4A47C",
"#X c #E9A67A",
"$X c #E9A97E",
"%X c #F1A676",
"&X c #BD8026",
"*X c #3C7F80",
"=X c #467F80",
"-X c #3E8182",
";X c #418181",
":X c #4C8585",
">X c #578482",
",X c #749A9A",
"<X c #789798",
"1X c #6F898A",
"2X c #8B898A",
"3X c #959494",
"4X c #8E928B",
"5X c #AE998D",
"6X c #BBA593",
"7X c #9CACAC",
"8X c #A1ADAD",
"9X c #AAAAA9",
"0X c #B5B1AE",
"qX c #CD9D82",
"wX c #DAA686",
"eX c #D9B49B",
"rX c #CAA991",
"tX c #E4A984",
"yX c #E9AD84",
"uX c #E2AC8A",
"iX c #E5AA85",
"pX c #EAB28C",
"aX c #E5B18E",
"sX c #E5B493",
"dX c #E8B593",
"fX c #E9BA9B",
"gX c #E7B899",
"hX c #F0B893",
"jX c #DCBAA4",
"kX c #C8B6A9",
"lX c #E9BEA1",
"zX c #E4BEA3",
"xX c #DAC6B5",
"cX c #E9C1A5",
"vX c #E9C6AC",
"bX c #E7C5AC",
"nX c #E9CBB4",
"mX c #E8CEB9",
"MX c #E5CBB6",
"NX c #E8D1BD",
"BX c #EEC09F",
"VX c #E9D5C3",
"CX c #E8D9C9",
"ZX c #EFE1D2",
/* pixels */
"d # # # # # # # # # # # # # # # a a a a # # # # # # # # a a a a a # a a # # # # a # # # # # d d # # # # # # # # # # d # # # # # 6 6 6 6 # # 6 # 6 # 6 d ",
"# d d d d d d d d d d d d d d d d a a d d d d d d d d d d a a d d d d d d d d d d d d d d d d d d d d d d d d d d d d d d d d d 6 6 d d d 6 d d # 6 # # ",
"a d d g g g g g g g g g g g g g g g g g g g g g g g g g g g g g g g g h g g g g g g g g g g g g g g g g g g g g g g g g g g g g g g g g g g g g g f d # ",
"# d f h z z z z z z z z z z z z z z x z z z z z z z z z z z z z z z z z z z z z z z z z z z z z z z z z z z z z z z z z z z z z z z z z z z z z h f d # ",
"# d g z c ;XM.c c c c c U c c c *X*X*X*X*X*X=X=X=XU v *Xv *Xv *Xv v v *X*Xc v v v v v U U U U T *XU v v v M.M.v T c c c c -X*X*Xc c c c c ;X;Xc z g d # ",
"# d g z *X:X;X;X;X;X;X;X;X;X;X;X*X=X=X=X=X*X=X=XT T T T T T T T b W b b b b b b W I I I P P P P I I I I G I I I G I T c M.-X-X-X;X;X-X;X;X;X;X;Xz g d # ",
"# d g z c :X-X;X;X;X-X;X;X-X;X;X=X*X*X*X*X=X=XT P P _ P _ _ P _ H l k k k l l k B F S S S S S S S S S S S S S S S J I M.-X-X-X;X;X;X;X;X;X;X;X;Xz g d # ",
"# d g z c ;X;X-X-XM.*X-XM.-X-XM.*X=X=X=X=X=X=X_ _ V Z V Z Z Z m n ; ; 2 s 2 s 2 8 t u [ [ [ [ [ [ ` { $.] { $.y ` p J T M.M.M.M.M.c ;X;X;X;X;Xc z g d d ",
"# d g z c ;X-X-X-X*X-X*X-X-X-X*X=X=X=X=X=Xj.! Q C V N m m m N M 7 3 3 3 3 3 N S r 8.X.@.O.O.O.>.%.>.:.:.:.:.%.%.%.' e.L ) I I I M.H c *X*X;X;X;Xz g d # ",
"# d g z c ;X;X*X-XM.M.-XU -XM.*XT =X/ =XU.=X=X! C V m n s s 2 n 3 t 0 e t t X.r.r.t.;.;.6.<.<.<.P.&XP.P.F.F.F.P.<.6.;.f.w.0.D J M.W c c ;X;X;Xc z g d # ",
"# d g z c ;X;XM.-X*XM.c ;X=X-XM.Y R / ( j.( ! Q C m n s : ; ; 3 e o.X.o.X.| ;.l.l.l.l.5.7.1.1.1.V.C.L.L.K.L.A.C.V.,.2.c.d.#.[ D H M.-X-X;X;X;Xc z g d # ",
"# d g z ;X;X;X;Xc -X-X-X*X;X=XY E / ! ! ! ! ! C V n 2 : : 2 3 e ] ..@.@.O.&.6.5.5.5.5.7.V.Z.Z.V.C.Z.K.K.K.K.D.A.Z.C.G.F.F.6.&.$.B.M.-X-X;X;X;Xc z g d # ",
"# d g z -X;X;X;X-X*X;X=X;X=XE / ! ! Q Q C Q C m n s ; : 2 8 e ] 9.t.;.6.6.,.1.1.7.7.7.V.C.A.H.A.A.S.L.K.K.K.D.S.A.A.H.H.G.V.<.;.B.M.c *X-X;X;Xc z g 6 6 ",
"# d g z U ;X;X-X*XM.=X=XU ;X=X/ ( ! C C Z V V M ; : : 2 2 e ]  .=.l.5.2.1.1.1.1.1.1.V.V.A.J.K.J.S.S.S.S.S.S.S.L.S.L.S.S.A.C.V.:.$.M.v c ;X;X;Xc z g d # ",
"# d g z c ;X;X;X;XU =X=X=X=X=Xj.( Q C V V m n s ; 2 2 3 e ] #.;.3.5.2.1.1.1.V.Z.1.Z.V.Z.H.J.K.K.S.A.A.C.Z.Z.Z.A.D.D.S.Z.Z.Z.Z.F.e.L H M.M.-X;X-Xz g d # ",
"# d g z c ;X;X;X-X-X>X=X=X=X=X=X( ! Q V M n s : ; 2 3 e ] ..y.3.5.7.1.1.1.1.Z.S.Z.J.J.J.J.J.K.K.S.A.V.V.V.V.V.A.S.S.Z.Z.V.Z.A.F.:.p J W M.-XM.c z g d # ",
"# d g z U ;X;X;X-X=X-X-X;XY =X( ! Q C m n ; : : : 7 9 t [ r.;.;.6.,.1.7.7.G.C.H.S.S.S.S.S.S.J.K.L.C.P.,.,.,.,.P.A.G.V.2.V.C.H.G.:.>.p H M.*X;X-Xz g d 6 ",
"# d g z U ;X;X;X*X=XU Y E R / ! Q C m n ; * * * : 2 9 y [ ..*.;.&.&.6.6.2.7.G.Z.A.Z.Z.Z.Z.Z.A.S.L.C.P.<.6.6.&.6.&X&XF.5.2.G.C.P.,.&.$.L M.-X;X-Xz g d # ",
"# d g z c ;X;X;X=X=X=X=X/ ( ! Q C V n ; * & & & : 3 9 r [ [ [ [ X.X.@.;.3.5.7.V.V.V.V.1.V.V.Z.S.L.G.F.l.=.| ' ' $.%.:.;.5.P.V.1.1.,.%.B.M.c -Xc z g d # ",
"# d g z *X-X-XM.=X=X=X=X=Xj.( Q V M ; * &     * : 7 e t y o.o.y o.] X.r.i.5.6.,.,.,.,.,.,.,.P.A.H.F.4.t...[ y r q ` #.y.l.6.2.1.1.1.&XL M.c ;Xc z g d # ",
"# d g z c ;X;X;X*X*X:X1X4X2X( Q V s * &   . & - 8 9 t y o.q q q r r [ X...-.%.&.&.&.&.>.&.&.<.V.G.5.;...[ y r w t ] { ..=.;.5.7.1.1.4.U.M.-X-Xc z g d # ",
"# d g z c ;X;X;X*X*X:X<X7X9X2X~ m ; = o . . O < 0 t y y ] r ] r r r ] ] [ [ X.' >.' ' ' ' ' &.P.P.6.@.[ ] y y r o.o.o.[ | =.3.5.7.V.4.e.N.-X-Xc z g d # ",
"# d g z c ;X;X;X*X*X:X,X7X9X3X! m : o . o o - 1 w ] ] o.] ] [ ] ] ] ] ] [ [ [ [ [ [ ` ` [ X.O.6.<.&.@.[ [ [ [ [ [ [ ] [ X.+.i.3.,.,.&Xp N.c -X-Xz g 6 # ",
"# d g z M.;X;X;X*X=X:X,X8X9X3X! m : o o O , 1 0 q o.] o.[  ... .[ ] ] } ..+...+.9.....+...+.@.O.O.%.@...........+.9.....r.9...;.<.,.F.U.M.-X-X-Xz g d # ",
"# d g z c ;X;X;Xc *X:X,X8X9X3X! V : & o , 4 w q o.r o.] X.*.i.=. .] [ *.i.i.i.i.i.i.i.a.a.i.-.| X.@.t.i.i.i.i.i.i.i.a.i.i...X.| &.,.4.U.M.v -X-Xz g d # ",
"# d g z -X;X;X;Xc *X:X,X8X9X3X! m >   O < w ] ] o.y q y [ #.y.t...X...t.p.z.z.z.z.p.l.l.l.p.t.q...r.s.x.b.b.c.c.c.c.z.z.i...] ' &.<.:.e.M.c -Xc z g d # ",
"# d g z c ;X-Xc -X-X>X,X7X9X3X! m > & O < w ] ] ] o.r ] [ } ..*.+.*.t.i.l.z.z.l.z.l.l.l.l.s.s.d.g.v.m./.!.!.(.Q.(.m.m.z.i.| ] ` >.%.#.L M.c -X-Xz g d # ",
"# d g z c ;X;X-X*X;X:X,X7X9X3X! m > & O < w o.] y y o.y ] ] [  .r.i.p.p.z.z.l.l.z.p.z.l.l.z.n./.].]..X.X.X.X.X.X.X(.W.c.i...[ o.` ' L J M.v -Xc z g 6 # ",
"# d g z U ;X;XM.*X*X:X,X8X9X3X~ V : - - 1 w ] ] y y y y ] ] [ ..t.p.l.z.p.l.l.z.z.c.c.x.c.E.Q.{.+X#X#X#X#X#X#X#XXXXX`.m.s.t. .[ ` o.S P M.;X;Xc z g 6 # ",
"# d g z U ;X;X-XU *X>X,X8X9X3X! V 7 < 1 0 w o.o.o.y y o.] } ..=.a.l.z.z.z.p.p.s.c.E.!.!.!.(.'.$XyXpXyXyXyXyXyXyXyXtXtX{.^.g.r.| ` ] S G M.;X;X-Xz g d # ",
"# d g z -X;X;X;X*X*X:X,X8X0X4X! F 8 t w w o.o.o.y y q o.[ *.i.p.l.z.z.p.l.l.l.z.E.Q..X X.X X@XyXdXdXdXdXsXsXdXhXdXdXdXuXwX^.s.t.@.[ S G U -X;X-Xz g d # ",
"# d g z c ;X;X;Xc *X:X,X8X9X4X! F S 8.X.` ` o.o.y ] ] [ #.=.p.z.l.l.l.p.z.z.z.b.!.{.+X#X#X#XyXdXgXgXfXfXlXlXlXlXlXlXlXfXuX`.v.i.$.` S G U -X;Xc z g d # ",
"a a g z *X=X=X=X=X=X=X,X9X9X2X! C D 9.r.9.o.r r o.] X.+.t.i.l.l.l.p.p.p.l.c.b.(. XXXpXpXyXpXdXsXgXgXfXgXcXvXnXnXnXnXvXfXuX}.b.i.| [ S G M.-X;X-Xz g d # ",
"a a g x *X=X*X=X=X=X=X,X9X9X2X! F 0.t.t.| X.o.t ] { *.i.p.l.l.z.z.z.z.l.z.b.(. X#XiXsXdXdXsXdXgXgXdXhXlXvXNXVXVXVXmXnXfXiX`.v.;.| ] S G U -X;Xc z g d # ",
"a a g x *X=X*X*X=X*X=X,X9X9X3X! F 0.a.a.=.X.X.X.X.9.t.l.z.c.b.c.n.c.b.c.b./.'.XXiXdXdXgXfXgXgXhXfXlXlXzXmXVXCXCXCXVXvXhXtX/.x.t.| [ S G U -X;X-Xz g d # ",
"a a g x *X*X=X*X*X*X=X,X8X9X2XK Q 0.a.l.p.t.t.t.=.t.p.z.m.m.(.(.(.(.(.W.(. XXXpXdXhXgXlXfXgXfXfXlXlXnXVXCXCXZXZXZXVXvXpXXX/.z.i.#.] u G T -X;X-Xz g d # ",
"a a h z =X=X=X*X*X*X=X,X9X9X2X=XF 9.u.z.l.p.a.a.a.i.p.p.n./.'..X.X.X.X.X X#XiXsXdXfXgXdXfXdXgXdXfXlXMXVXVXNXNXVXVXMXfXiX.X(.z.i.| [ S G M.-X-Xc z g d # ",
"a a g z =X=X=X=X=X=X=X,X9X9X2X! F 9.a.l.a.r.9.r.r.r.9.r.h.n._..X.X.XXXXXtXyXlXlXlXlXfXfXfXgXdXuXuXeXeXkXkX0XkX0X0XkXeXuXXX/.z.i.| [ S G M.-X-Xc z g d # ",
"a a g z =X=X=X=X=X=X=X9X9X9X2XK 8.9.a.a.9.8.e S e e S D 9.h.m.m.(.(._.XXpXlXvXmXnXlXlXlXfXhXiX{.).^.T.T.j.j.j.( ^ j.6XgXsX{.v.t.@.` i G c -X*X*Xz g f # ",
"a a g z =X=X=X=X=X=X2X9X9X9X5XK [ 9.a.u.8.8 2 2 2 2 2 2 N 9.s.l.l.c.^.{.dXlXnXmXMXlXdXdXsXsX}.^.s.y.9.8.S N n n M Q 3XkXzXwXn.i.$.{ S G M.-XM.c z g d # ",
"a a g z =X*X=X=X=X3X3X9X9X9XT.9.o.X.9.9.F N n s s : > > 2 e X.X.X.9.u.k.[.rXeXzXeXwXwXwXT.T.f.q.X.o.w 9 < - * : 3 S j.5X6XqXn.s.*.{ p J ) N.N.M.z g d # ",
"a a g z *X*X=X=X=X,X9X0X0X9X3X9.r t e e F V _ V m s > & O - < < < 1 e 9.f.Y.|.[.}.`.^.f.K S 8 1 < 1 3 3 - o O < t 8.K j.j.k.n.n.=.[ u 0.e.B.N.c z g d # ",
"a a h z *X;X*X:X,X7X0X0X0X9X2XK t 9 3 N F =X=X0.C m : &   o = = o + < 9 { q.d.v.b.b.d.8.9 + O O = - : : * & - e 9.u.8.N F w.}.).h.[ [ *.y.w.B.v z g d # ",
"a a l z *X;X*X:X,X8X0X0X0X9Xk.8.r 0 e N 0.2X2X2Xj.~ n = & > s 2 < , 4 0 q  .y.s.c.l.i.X.4 < < ; s s : : s m F 0.k.k.0.S D k.}.`.g.{  .i.x.I.B.c z g d # ",
"# d g z =X;X*X:X7X8X0X9X3X2Xj.8.o.o.8.9.2X3X9X0X9X4XF ; s H ) U.#.>.o.o.o.' g.~.m.c.l.O.O.>.$.j.=XC s n C j.3X9X5X5Xk.0.q.^.wX}.f.{ #.d._.T.U.Y z g d a ",
"# d g z *X*X*X:X=X8X9X9X2Xj.F 8.X.9.t.g.T.6X0XxXxX0X^ N A B.5X6X~.6.<.>.' *.R.'..Xm.l.5.<.6.E.6X5X2XV N j.kXxXxXkX6X5Xg.n.}.wXqXI.{ #.g.].T.B.:Xz g d a ",
"# d g z *X-X=X:X7X8X0X3X( F F r X.9.p.n.^.5XkXxXbXeXT.K K 3X6XwX~.5.6.O.#.h.}.wXtX).m.5.2.7..XwXrX2X0.j.T.kXNXVXkXkXqX)./.XXwX^.h.{ $.d./.T.B.;Xz g d a ",
"a d g z *X-X-X:X=X9X9X2X! N 8 e X.+.p.n.k.^.).wXaXwXY.g.Y.[.oX{.~.5.3.;.y.Y.wXcXsXXX(.m.c.5.!.{.wX[.k.k.qXjXzXzXjXeXuXwX}.`.^.g.#.[ } ;.I.Y.B.U z g d a ",
"# d g z c ;X*X:X,X7X9X2XZ 2 3 w [ ..a.z.z.x.E._.OX@XOX{.XXOXoX]./.c.l.p.s.|.eXMXvXpX X~.c.E.~.].tX.X.XtXuXdXlXlXlXgXlXfXuX`.m.p.#.}  .t.d.f.B.U z g d # ",
"# d g z c -X*X:X,X8XkX=XV 2 3 0 [ *.p.l.c.v.W.{.tXpXhXpXhXhXpX@X}.^.n.v.x.[.jXVXnXfXtX{./.^.`.oXtXyXyXhXfXlXlXlXlXlXlXlXgXqXn.n.h.f.h.d.a.w.^ U z g d # ",
"# d g z c ;X-X:X,X8X9XB.V 2 3 w [ +.i.x.m.!.'.uXcXvXvXvXnXnXbXlXaXwX`.m.v.|.jXNXmXBXdXtXoXwX$XuXhXlXlXlXlXVXmXmXVXmXNXmXlXiXwXm.`.[.[.n.s.w.( U z g d # ",
"# d g z c -X*X:X,X7X9X2XV 2 3 w [ *.i.c.W..XyXfXmXVXCXNXNXNXNXnXlXuX}.n.n.).jXNXmXvXdXdXdXdXdXdXhXlXNXCXCXVXCXCXCXCXCXVXzXhXtXtXtXuX{./.v.f.) M.z g d # ",
"# d g x =X;Xc :X<X8X9X2XF 3 e w [ ..i.c.!. XyXcXNXCXVXNXmXnXnXlXsXtX).b.v.[.eXVXNXvXBXhXhXpXpXpXsXlXlXCXCXCXCXCXCXCXCXCXlXhXiXtX@X@X{.(.I.I.B.M.z g d # ",
"# d g z c -X-X:X<X9X0Xj.D e w r [ +.p.c.(. XyXcXNXCXNXvXcXfXdXoX}.^.n.z.x.[.zXVXNXnXfXhXpX$X%X$XiXdXlXlXmXCXCXCXCXVXVXzXlXhXyX.X]././.(.`.T.B.M.z g d a ",
"# d g z c -X-X:X,X7X9X5X0.o.w o.[ ..t.z.!..XtXlXNXNXnXgXpX$XOX_.m.z.l.p.s.|.rXbXxXcXaXoXoX X X XXXyXhXlXlXVXCXCXVXVXlXlXpXyX.X_.R.x.E.~.].T.U.M.z g d a ",
"# d g z c ;X*X:X,X7X0X5Xf.| [ o.] } *.i.x.W.{.gXNXNXvXdX$X X(.E.s.=.+.+.y.I.T.6X6XqXY.^.I.E.E.Q.m.iXuXfXlXmXmXmXVXlXlXpXiXXX'.m.d.;.;.E._.Y.B.U z g d a ",
"# d g z c -Xc :X,X7X0XqXf.r.X.[ o.] [ ..i.x.).eXmXmXlXpXXX!.E.s.r.X.[ X.X.9.e.w.w.w.q.q.#.#.y.s.m.`.uXfXlXlXlXlXlXlXhXyXXX'.m.z.=. .*.p.x.I.B.U z g 6 # ",
"# d g z c -X*X:X,X7X9X6Xn.s.*.X.r q ] [ +.a.^.wXMXnXfXOX.XE.z.t...X.[ ] { [ [ [ { [ {  .{ #.*.a.n.).tXsXgXfXfXfXgXdXyXXX'.m.x.a...[ [ r.f.w.B.T z g d # ",
"# d g z c ;X-X:X>X3X3XqX^.b.y. .o.q o.` ..i.n.wXzXzXuX'.b.p.=... .X. .X.X.| X.X.$.*.u.u.f.f.I.g././.}.{.iXsXdXdXpXiXXX_.m.b.l.t.| ` { 0.e.j.N.U z g d d ",
"# d g z c ;Xc :X:X1X3XT.)./.d.9.r q r [ +.i.R.wXgXsX{.R.s.-.} } +.=.i.=.t.=.=.t.a.I.R.).[.[.}.].(./.R.).}.uXdXpXiXXX(.m.b.z.l.i.$.y p J I N.N.U z g 6 # ",
"# d g z U ;X-X;XN./ j.T.[./.g.#.o.q r [ +.p.b.wXuXuX}.v.i.#. .#.y.s.z.x.z.z.z.x.R.'.OXyXsXsXyX#X.XQ.b.b.).wXgXpX#X.X/.c.z.z.z.i.#.[ S G M.;X;Xc z g d 6 ",
"# d g z *X;X;X;XY E / U.^.R.d.} r q r [ +.a.n.}.uXwX).z.a.a.h.d.n.m.(./.`./.W./.'.iXfXBXfXhXhXyX XQ.c.x.).uXsXpX#X.Xm.z.z.b.m.z.*.y p H c -X-X-Xz g d 6 ",
"# d g z c ;X;X;X=XY N.j.g.x.y.} o.r o.[ +.i.m.}.uXuX|.v.z.n././._..XXXwXuXXX XXXtXzXnXnXcXhXpX#XXX(.c.v.).wXdXpX+X.Xm.x.x.m././.#.$.S H M.-X-X-Xz g d # ",
"# d g z c ;X;X*X-X-XM.( w.a.*.[ r r o.[ +.i.n.}.uXuX).v.x.R._.'.'. XXXtXuXtXXXXXtXzXMXbXgXaXtXXX(.m.z.v.).tXdXpXOX.XW.b.b.(..X/.I.$.S G M.-XM.c z g d # ",
"# d g z U ;X;X;X-X-XU / e.w.9.{ r q r [ +.i.b.wXuXuX).v.p.s.g.n.R./.(.}.}.'././.`.wXwXwX}.}.^.I.g.s.p.v.`.wXdXpX%X X_.!.!..X X`.T.L H I c -X-Xc z g d # ",
"# d g z U ;X;X;X*X-XM.R ( j.0.8.r r q [ +.a.n.{.uXuX`.z.a.r.q.t.d.v.b.n.n.b.b.b.b.^.^.n.^.n.d.q.#.=.i.v.`.uXdXyX+X X.X.X.X XOX|.U.I M.v c M.-Xc z g d # ",
"# d g z *X;X;X;X;X=X=XE / ! e.8.] o.o.[ +.a.n.`.tXwX).b.a.q.9.q.h.s.b.v.b.n.n.n.n.n.n.n.n.s.i.9. .=.d.n.`.iXdXyX+X+XXXXX+XXX X|.U.N.c *X;X;XM.-Xz g d # ",
"# d g z *X-X-XM.*X;X;X=XE / K 0...X.] [ +.a.b./.`.}./.(.R.I.g.Y.^.).).).).|.}.qXqXqXqXqX`.|.E.g.h.d.b./.oXaXdXyX+X+X#XyX#X X_.Y.B.M.*X*X;X;X-X-Xz g d # ",
"# d g z c -X;X;X-Xc ;X=X=XR ^ u.=.| [ [ +.i.z.x.E.R.!.'.{.oX}.wXwXuXwXtXwXeXjXbXzXMXzXzXeXtX{.`._.!.'. XtXaXdXyX#X+XyXpXiX`.E.f.B.M.-X*X;X;X-Xc z g 6 # ",
"# d g z M.-X;X*X=X;X-X-X=XE ^ f.i.+.[ [ ..t.p.l.z.c.!.'.XX$XuXuXaXuXaXdXdXfXbXmXVXVXmXzXlXdXyX#X+X+XXX#XyXdXdXpX$X#XyXpXtX'.c.w.L M.-X*Xc ;XM.c z g d # ",
"# d g z *X;X;XM.-X*X*X-X*XY ^ h.p.+.[ ] [ ..t.t.p.z.b.!./.`.}.}.{.`.{.@XpXpXfXBXzXlXlXfXpXpXyXyXyXyXyXyXpXsXdXpXiXyXpXpXOX/.v.f.^ M.*X*X;X;X-X;Xz g d # ",
"# d g z c ;X-X-X=X-X=X*X*XE ^ f.p.-.[ ] ] [  .=.p.z.x.x.b.n.E.n.n.n.^.'.+X$X$XyXtXyXyX#XXX#XiXyXdXpXdXdXdXgXgXsXdXpXyX#X XQ.z.h.^ M.-X-X;X;X;X-Xz g d # ",
"# d g z c -X-X-XM.*X*X-X*XE ^ w.t.r.X.[ o.] [ ..t.p.p.z.z.z.c.c.n.E./.{.+X+X+X+X+XXX#XXXXX#XpXfXfXlXlXlXfXfXgXdXsXpX$X X!.E.l.w.L M.c c M.-X-Xc z g d # ",
"# d g z M.;X;X;X-X-XM.-X*XY P e.0.q.r...{ o.] { ..=.i.p.x.b.W.).}.qXwXwXyXyXyXyXyXyXyXiXyXuXhXzXnXnXnXbXbXfXgXdXpXtXXX(.E.p.t.0.) M.*X*X-X-X;X-Xz g d # ",
"# d g z *X;X-XM.-X-X-X-X=XU W C K 9.u.i...[ o.] [  .=.p.c.!.'.@XsXxXbXfXdXdXdXdXdXdXsXdXdXdXlXmXVXVXVXNXbXlXdXpX$XXX(.b.p.=.} D G T -X-X-X-X;Xc z g d # ",
"# d g z c ;X-X*Xc M.*X-X=X=XT P Q 0.q.r...X.[ o.o.[ ..t.x.E..XtXlXmXMXcXsXuXuXuXuXpXdXdXhXfXzXmXNXVXVXmXbXgXpX$X X(.R.p.=.+.} D G M.-X-XM.;X;Xc z g d # ",
"# d g z U ;X-X-X-XM.-X-X*XY E ~ Q F 8.8. .*...X.o.] [ ..t.x.W.{.gXnXvXfXiXtX}.}.{.tXiXpXhXzXlXbXMXnXnXvXlXdXyX X(.E.d.*...| @.0.) M.-X-X*X-X-X-Xz g d # ",
"# d g z M.;X-XM.*X-XM.*X-XY R / ! C N 8 8.r.t...[ o.] [ | t.z.).wXgXhXpX#X'.W.m./..X#XyXdXdXlXlXlXlXlXfXaXyX X(.b.s.=.} X.+.=.w.L M.*X-X-X;XM.c z g d # ",
"# d g z c ;X;X;X-X-Xc *X-X=XR / ! V ; 2 e 9.r...[ [ ] ] [ ..y.g.[.}.wX{..XW.b.z.b.Q..XXXtXtXuXuXuXuXwXiXOXXX(.n.s.t.| X...y.g.Y.B.N.-X-XM.;X;X-Xz g d # ",
"# d g z c ;X;X;X*XM.-X-X-XY >X/ ! m : * 3 e 8.q.*.#.X.] ] [ ..u.f.g.g.R.W.m.c.l.c.b.W./.).`.`.).`.`.`.`.(.(.b.s.=.|  ...y.n.`.T.U.M.*X*X*X-X;X-Xz g d # ",
"# d g z c ;X-X-X;X*X;X=X=X=X=X( ! M * & * ; e 8.t.t.9.o.o.o.[ 8.{ 9.q.d.z.x.z.l.z.z.x.x.x.v.v.v.v.v.v.v.x.x.s.r. .X.#.y.I.`.$X6X4X:X*X*XM.;X;Xc z g d # ",
"# d g z c ;X-XM.=X;X=X=X=X=X=Xj.! m *   & * 2 e 9.9.9.[ o.o.o.o.r o.X.+.t.i.i.a.i.i.i.i.i.i.i.i.t.i.t.i.i.i.t...X. .y.x./.@XsX6X4XM.*X*X-X;X;X*Xz g d # ",
"# d g z c ;X;X;X;X*X=X=X=X=X=X2X! V : = & & * 3 e 8.r r o.o.o.o.o.o.[ X...+.+.+.+.+...+.+.+.@.@.....| | |  ...| | y.I.).oXpXgXrX4XN.*X*X-X-X-X*Xz g d # ",
"# d g z ;X;X;X-X*X;X=X=X=X=X=Xj.! Z s : & & & > 2 8 e r r o.o.o.r o.o.o.[ ] [ ] [ ] [ ] ] ` ] ` [ [ [ [ ] [ X.+.;.g.|.oXsXhXgXrX4X:X*X*X-XM.M.c z g d # ",
"# d g z U ;X;X;X;X=X-X*X*X=X=X=X! C n : &     & : 2 8 e t D w 0 0 0 0 0 0 0 0 0 0 0 0 0 0 0 w w q q q q o.[  .u.v.^.{.sXfXhXdX6X4XN.-X-X-XM.-X-Xz g f # ",
"# d g z *X;X;X;X=X;X=X-X=X=X=Xj.( C n * &     & : 2 N S S 8 3 3 < < < , , , , , , , , - , , 1 w q q q q [ | t.g.`.wXuXdXhXhXyXqXU.:X-X-X*XM.-X-Xz g d # ",
"# d g z c ;X-XU -X*X-X*X*X=X=X/ ! F n : &     * : ; m V N N 2 : = O o o o o o o o o o o o o < 0 y y o.[  .y.s.).tXaXfXgXdXyX@X[.U.M.-X-X-X-X-XM.x g d # ",
"# d g z -X;X;X;X*XM.;X-X=XY R ~ Q Z n ; = &   = : s V C Z M ; * o . . . . . . . . . . . o + 1 q { q.q.f.g.n.).{.iXdXfXgXpX#X{.Y.B.M.*X-X*X-XM.c z g d # ",
"# d g z U ;X;X;X*X;X=X-X;XU W V m V m n * &   * : n Z Q Q m : * & . X X . . . X X X . o - 1 w X.r.Y.T.rXrXwX{.tXyXyXdXgXpXXXQ.I.B.N.*X*X*X;X;Xc z g d # ",
"# d g z U ;X;X;X;X*X;X;X*XU b k n M V m : &   & : n C ! ! V s * &     . .   .   . . o , 4 r X.t.g.[.jXxXzXsXuXtX@X#XyXdXuX`.v.f.B.M.*X*X-X;X;Xc z g d # ",
"# d g z *X;X;X;X;X=X;X;X=Xv b s ; n V m ; &   & : n C ! ! C m s * & &   o & = + - , < 9 { r.g.n.`.rXgXjXjXwX}.)._.'.$XyX@X^.d.e.B.M.v c -X;X;Xc z g d # ",
"# d g z c -X-XM.*X;X*X;X*Xv l k ; M V m ;     = : n V Q Q Q Q V s * * * * - < 1 4 w o.9.h.^.qXwXeXuXwX[.Y.k.f.g.E./. X#X{.n.=.8.G M.c c ;X-XM.c z g d # ",
"a d g z c ;X-XM.*X=X*X;X=Xv b k s M V m : o   & : ; m V Q ! ! Q m ; : : 2 2 9 t X.*.a.n.m.XXdXzXjXeXn.g.r.9. .r.s.b._. X].h.$.p G M.-X-X;X;X;X-Xz g f # ",
"# d g z *X:X-X-X=X*X*X;X*X=Xb l M m m n : &   & * : n m Z Q ! ! V n 2 2 3 e ] | a.n.m.'..X%XhXlXjXqXk.r...X.| =.;.c.b.R.I.q.L S M.M.;X;X;X;XM.;Xz g d a ",
"# d g z -X;X;X;X=X=X*X=X*X=Xv b b m m s *       & = : s m C Q Q Z V N 8 e ] 9.a.n.'.iXyX%X%X+XwXqXk.e.0.9.*.t.p.z.l.d.=.q.L G N.M.M.;X;X-XM.;X-Xz g d # ",
"# d g z c M.*X*X*X*X=X*X*X*X*X*Xb b s > *   . .   & * : n m V Z V F N S t { *.s.n.qXwXtXtX{.m.n.g.0.F F K u.i.p.d.;.#.{ p G W M.v v c *X*X*X-Xc x g d # ",
"a d g h z z z z z z z z z z z z x l j > % @ @ @ @ @ @ % 5 k l k l k B N 8 i u 0.w.U.T.T.U.I.e.$.0.S k A Z D e.$.0.$.S 8 7 x x z z x z z z z z z h g d # ",
"a a f f g g g g g g g g g g g g g f j % $ $ $ $ $ $ % 6 % j j j j l j 5 5 5 5 B B H H H H H B l 5 5 j j l 5 5 7 k 5 5 5 5 j g g g g g g g g g g f d # d ",
"a a d d d d d d 6 d d d d d d f d 6 d # a # # # # # # 6 d d d 6 6 d 6 6 f # 6 f f 6 f f f f 6 6 6 f 6 6 6 6 f f f 6 6 6 6 6 d d 6 d d d 6 d d d d d # # ",
"a a a a # # # # # # # # # # # a # # # d a d a d d d a a a # a # # d # # a a # # 6 # # # # # # d a # # # d # # # # # d d d # # # # # # # # # # # d d d # "
};
