/* XPM */
static char *face21678799272[] = {
/* columns rows colors chars-per-pixel */
"76 100 243 2 ",
"   c #1C1B1B",
".  c #151617",
"X  c #0F1316",
"o  c #231E1B",
"O  c #28211C",
"+  c #36281D",
"@  c #192526",
"#  c #003D3D",
"$  c #093434",
"%  c #113636",
"&  c #232323",
"*  c #2C2C2C",
"=  c #282726",
"-  c #382C25",
";  c #343434",
":  c #3B3B3B",
">  c #3B3837",
",  c #2F3333",
"<  c #1C1F20",
"1  c #422F21",
"2  c #483426",
"3  c #553A29",
"4  c #453C36",
"5  c #513E32",
"6  c #5C3A23",
"7  c #2E483D",
"8  c #09413F",
"9  c #49433D",
"0  c #574437",
"q  c #5F422D",
"w  c #68442B",
"e  c #7D4E2E",
"r  c #73482C",
"t  c #684935",
"y  c #7C4E31",
"u  c #734C34",
"i  c #7F5031",
"p  c #7A553C",
"a  c #6B523B",
"s  c #74522D",
"d  c #003F40",
"f  c #3D3F40",
"g  c #044444",
"h  c #0D4746",
"j  c #155555",
"k  c #1E5E5E",
"l  c #1A4747",
"z  c #3A4A49",
"x  c #325250",
"c  c #2C6C6C",
"v  c #2D6767",
"b  c #3E7E7E",
"n  c #3F7676",
"m  c #3D6868",
"M  c #444444",
"N  c #4D4C4C",
"B  c #494847",
"V  c #544C47",
"C  c #465449",
"Z  c #535353",
"A  c #5B5B5B",
"S  c #585857",
"D  c #515552",
"F  c #6C5A46",
"G  c #775B45",
"H  c #685951",
"J  c #596C5E",
"K  c #4D6559",
"L  c #656758",
"P  c #7B6858",
"I  c #776F53",
"U  c #566A65",
"Y  c #567268",
"T  c #447C7B",
"R  c #4A7E7B",
"E  c #497875",
"W  c #5B7D7C",
"Q  c #537D7A",
"!  c #486D6A",
"~  c #636363",
"^  c #6C6C6C",
"/  c #666A6A",
"(  c #777968",
")  c #697A79",
"_  c #767875",
"`  c #6A7167",
"'  c #85512E",
"]  c #95592B",
"[  c #835232",
"{  c #8B5534",
"}  c #895839",
"|  c #935936",
" . c #9B5A35",
".. c #945C3A",
"X. c #9C5D3A",
"o. c #925635",
"O. c #824F31",
"+. c #A15F3A",
"@. c #A15D35",
"#. c #A85C25",
"$. c #9A623C",
"%. c #96612C",
"&. c #AB6429",
"*. c #B66424",
"=. c #A3613D",
"-. c #AB643E",
";. c #A56133",
":. c #B46839",
">. c #B2752C",
",. c #925118",
"<. c #D8751C",
"1. c #CE6F1D",
"2. c #E7791A",
"3. c #DA7629",
"4. c #C46E39",
"5. c #C77636",
"6. c #D37535",
"7. c #C96F26",
"8. c #E17723",
"9. c #855C44",
"0. c #945E43",
"q. c #88634A",
"w. c #986547",
"e. c #9A7558",
"r. c #8E7054",
"t. c #A46542",
"y. c #AC6641",
"u. c #AD6944",
"i. c #A76B49",
"p. c #B46A43",
"a. c #BC6D46",
"s. c #B46C46",
"d. c #BB724A",
"f. c #B6724A",
"g. c #A67656",
"h. c #B87955",
"j. c #AA714E",
"k. c #87796E",
"l. c #AC7E63",
"z. c #C3734A",
"x. c #C9794F",
"c. c #C5764B",
"v. c #C57A53",
"b. c #CA7D53",
"n. c #C57C56",
"m. c #C37148",
"M. c #4A817E",
"N. c #52827D",
"B. c #7C8574",
"V. c #EA861A",
"C. c #ED961C",
"Z. c #F1981B",
"A. c #EFA71F",
"S. c #F1A91E",
"D. c #F3B01F",
"F. c #D48D29",
"G. c #E49225",
"H. c #EDA822",
"J. c #F0AE20",
"K. c #F1B320",
"L. c #EEB121",
"P. c #DB861E",
"I. c #B9825D",
"U. c #8F8978",
"Y. c #B98A69",
"T. c #AF8C72",
"R. c #CC8156",
"E. c #CC835A",
"W. c #C5845B",
"Q. c #D3865A",
"!. c #D5895D",
"~. c #D7895B",
"^. c #D6814B",
"/. c #C98A66",
"(. c #D48C63",
"). c #D98E62",
"_. c #D18F6B",
"`. c #DB9265",
"'. c #D4926C",
"]. c #DC956A",
"[. c #D99569",
"{. c #CA9575",
"}. c #DB9C75",
"|. c #D69A76",
" X c #CA926D",
".X c #E39A6C",
"XX c #E39869",
"oX c #E29D72",
"OX c #DCA17D",
"+X c #E4A175",
"@X c #E9A375",
"#X c #E3A47C",
"$X c #E9A67A",
"%X c #E9A97E",
"&X c #F2A877",
"*X c #BD8026",
"=X c #3C7F80",
"-X c #467F80",
";X c #3E8182",
":X c #418181",
">X c #4C8585",
",X c #578482",
"<X c #749A9A",
"1X c #789798",
"2X c #6F898A",
"3X c #8B8A8A",
"4X c #969494",
"5X c #8E928B",
"6X c #B0998C",
"7X c #B8A698",
"8X c #9CACAC",
"9X c #A2ADAD",
"0X c #AAAAA9",
"qX c #B6B2AE",
"wX c #CA9E82",
"eX c #DAA685",
"rX c #DBB49A",
"tX c #C8A890",
"yX c #E4A984",
"uX c #E9AD84",
"iX c #E3AC8A",
"pX c #E6AB86",
"aX c #EAB28C",
"sX c #E5B18E",
"dX c #E5B493",
"fX c #E9B593",
"gX c #EABB9B",
"hX c #E7B899",
"jX c #F1B58D",
"kX c #DBBBA4",
"lX c #C9B7A9",
"zX c #E7BEA2",
"xX c #D9C4B3",
"cX c #EAC1A4",
"vX c #E9C6AC",
"bX c #E7C5AC",
"nX c #E9CBB3",
"mX c #E7CDB8",
"MX c #E9D1BC",
"NX c #E6D1BF",
"BX c #EEC09F",
"VX c #E8D5C3",
"CX c #E7D8C8",
/* pixels */
"g # # # # # # # # # # # # # # # d d d d d d d d # d # # d d d d d d d d d d d d g d d # # # g d d d # # g # # # # # g # # # # # 8 8 8 8 8 8 8 8 8 8 8 8 ",
"# g g g g g g g g g g g g g g g d d h d h d g g d g g g d d d d l d d d d g g g g g g g g g g g g g g g g g g g g g g g g g g g g g 8 8 8 8 g 8 8 8 8 8 ",
"d g g j j j j j j j j j j j j j j j j j j j j j j j j j j j k d k j j k j k j j j j j j j j j j j j j j j j j j j j j j j j j j j j j j j j j j j h 8 # ",
"# g h k c c c c c c c c c c c c c c v v c c c c c c c c c c c v c c c c c c c c c c c c c c c c c c c c c c c c c c c c c c c c c c c c c c c c k h g # ",
"# g j c b :XM.b b b b b T b b b =X=X=X=X=X=X=X=X-Xb =X-XT n -X-Xn n n =X=Xn n n n T T n T T T T =XT M.n T n T n n n n b b ;X=X=Xb b b b b :Xb b c j g # ",
"# g j c =X>X:X:X:X:X:X:X:X:X:X:X-X-X=X-X=X-X-X-XE E ! E ! E -X! ! m m m m m m m ! ! J Y U Y U U Y Y Y Y Y J Y Y Y Y M.T M.;X;X;X:X:X:X:X:X:X:X:Xc j g # ",
"# g j c b >X;X:X:X:X;X:X:X;X:X:X-X=X=X=X-X=X-X~ U U U ! U U U m N x z z x z x z C F F F F F G F F F F F F F F F F L Y M.;X;X;X:X;X:X:X:X:X:X:X:Xc j g # ",
"# g j c b :X:X;X;XM.=X;XM.;X;XM.=X-X-X-X-X-X-X~ S S Z Z S Z Z N M f : 4 f 4 f f 0 a } } ' ' ' { ' ' } } ' } %.i ' p L M.M.M.M.M.M.;X:X:X:X:XM.b c j g # ",
"# g j c b :X:X;X;X=X;X=X;X;X;X=X-X-XW -X-X-X-X~ A S N N N B B B B 5 5 5 5 5 t G u 0.o. .#.#.#.#.,.>.&.>.>.>.>.#.&.&.r.( ` / U Y M.K b ;Xb :X:Xb c j g # ",
"# g j c b :X:X;X;XM.M.;XT ;XM.=X-X-X) ) -Xk.-X^ A Z B M f f f 9 5 t w u u u 9.0.t.y.:.:.7.7.1.1.P.*XP.F.F.F.P.P.1.7.:.j.r.q.F L M.E b b ;X:X:Xb c j g # ",
"# g j c =X:X:XT ;X=XM.b :X-X;XM.-XW ) _ k.k.^ ~ A N M 4 > : 4 5 t [ { O.{  .-.m.m.m.4.6.8.2.2.2.V.C.L.L.L.L.A.C.V.<.F.m.:.;.] G K n ;X=X:X:X;X:Xc j g # ",
"# g j c M.:X:X:Xb ;X;X;X=X:X-XR Q ) / ^ k.^ ~ A N M f ; > 4 5 t }  .@.@.*.*.7.6.6.6.6.3.V.V.Z.C.Z.Z.K.K.K.K.D.A.C.C.G.F.F.>.&.$.B.M.;X=X:X:X:Xb c j g # ",
"# g j c b :X:X:X:X:X:X-X:X-XQ ) ^ / ~ ~ ~ ~ A N B f ; > 4 5 t p 0.y.:.7.1.<.2.8.8.8.8.V.C.H.H.Z.A.S.K.K.K.K.D.S.A.A.A.A.G.P.<.:.B.M.n =X:X:XM.b c j 8 # ",
"# g j c :X:X:X:X:X:XT -XT :X-X) _ ^ ~ S Z Z Z M f > ; 4 4 t [ X.y.4.6.3.2.2.2.2.2.2.V.V.Z.J.K.K.S.S.S.S.S.S.S.L.S.L.S.S.H.Z.V.5.%.M.n b ;X:X:Xb c j g # ",
"# g j c b :X:X:X=X:X-X-X-X-X-Xk._ ~ ~ Z N N M f : 4 4 5 t } X.:.4.6.3.8.2.2.V.Z.V.Z.V.Z.J.K.K.K.S.A.A.C.Z.Z.Z.A.D.D.S.Z.Z.Z.C.F.r.B.Y n b :X:X=Xc j g # ",
"# g j c b :X:X:X;XT ,X-X-X-X-X-X_ ^ A Z N M f : : 4 5 t [ ..y.4.6.<.2.2.2.2.Z.S.Z.H.J.J.J.J.K.K.S.A.V.V.V.V.V.A.S.S.A.V.V.Z.A.F.>.s L Y M.:X:XM.c j g # ",
"# g j c T :X:X:X:X-X;X:X-XR -X_ ^ ~ A N M : ; ; > 4 q e { =.p.4.3.8.2.2.2.V.Z.S.S.S.A.A.S.S.S.L.S.C.P.<.<.<.<.P.C.G.C.<.V.C.H.G.*.%.s K M.b :X=Xc j g 8 ",
"# g j c b :X:X:X=X;XT -XQ W ) / ~ A N M : * * * > 4 t u { ..=.:.4.3.3.2.2.V.V.Z.Z.Z.Z.Z.Z.Z.S.L.L.C.P.<.7.7.7.*.*X*X5.3.3.G.C.P.<.*.%.B.M.;X:Xb c j g # ",
"# g j c b :X:X:X-X-X-X-X) _ ^ ~ A Z M : * & & * ; 4 q e [ { { $.-.4.6.8.2.2.2.V.V.V.V.V.V.V.Z.S.L.G.F.a.:.] ] ] %.%.>.4.5.3.V.2.2.<.>.I M.b =Xb c j g # ",
"# g j c b ;X;XM.-X-X-X-X-Xk._ ~ Z B : * &   < = > 9 t u ' ' [ { +.p.4.1.2.2.<.1.<.<.<.<.<.<.P.C.H.F.5.y.X.} [ e i } w.p.m.3.3.2.2.2.*XB.N.b ;X=Xc j g # ",
"# g j c b :X:X:X=X=X>X2X3X3Xk.~ N f ; &       - 5 t u i i e e [ o.+.+.*.&.*.*.*.*.*.*.#.*.*.<.C.G.F.:.X.} [ y r y y } X.-.4.7.8.2.2.5.r.M.;X:Xb c j g # ",
"# g j c ;X:X:X:X=X-X>X1X8X8X3X/ N : &   . . O 2 w u e y i e ' O.{ { o.o.] ] ] ] ] ] ] ] ] ] *.<.<.4.@.{ [ y e y y O.O.{ ..-.4.6.2.2.>.U.N.;X;X;Xc j g # ",
"# g j c b :X:XM.=X=X>X<X8X0X4X^ Z ; o . o o - 3 r ' ' [ [ [ { { [ O.O.{ { { { { { { ' ' { o.#.1.1.*.@.{ { { { { { { } { | +.p.4.<.<.*XI N.;X;X;Xc j g # ",
"# g j c b :X;X;X=X-X>X<X9X0X4X^ N ; o o O 1 3 w e [ y ' { | $...} O.[ { ..t...X.t.X.X.X.X.+.@.&.&.&.@. .X.X.X.X.X. .X.+.X.0.X.:.<.2.*XU.N.=X;Xb c j g # ",
"# g j c =X:X:X:Xb =X>X<X9X0X4X^ N ; & O 1 w r e e O.e ' | =.u.-.o.[ } +.p.p.p.p.s.p.p.s.s.p.+. .]  .-.p.p.p.p.p.s.p.p.p.y.X.o.@.*.<.7.U.J b ;X;Xc j g # ",
"# g j c b :X:X:Xb =X,X<X9X0X4X^ N ; & O 2 r ' O.e e e i { =.u.-.X.| X.y.a.z.z.z.a.m.m.m.m.p.y...| t.a.x.x.x.x.b.x.x.x.m.p.X.O.] *.1.>.B.M.=X;Xb c j g # ",
"# g j c b :X;X;X=X;X>X<X9X0X4X^ N ; < O 2 r ' [ [ e i e [ | X.=.X.=.y.a.a.z.z.m.z.m.m.m.m.a.y.=.t.s.b.(.~.).!.~.!.!.b.m.p.X.O.' #.#.$.I M.b b b c j g d ",
"# g j c b :X;XM.M.:X>X<X9X0X3X^ N ; < O 2 r i ' O.O.i [ [ [ { ..=.p.a.a.m.m.m.a.a.m.a.z.m.m.a.p.d.b.).XXXXXX.X.XXX).Q.x.p. .{ ' ' ] I J M.b ;Xb c j g # ",
"# g j c T :X:X:Xb =X>X<X9XqX4X^ Z : = - 3 r O.' e [ i i [ [ { X.y.a.z.z.m.a.m.d.z.c.b.c.x.b.b.n.E.(.oX$X%X$X$X&X@XoX).b.a.t...{ [ [ F J M.:X:Xb c j 8 # ",
"# g j c T :X:X:Xb =X>X<X9X0X5X^ Z 5 3 3 w r O.O.[ e e i ' | $.-.a.a.z.z.a.z.a.m.x.R.Q.~.~.!.(.'.|.#XpXpXuXuXuXuXuXyXoX).b.d.t. .{ i F J M.;X:X;Xc j g # ",
"# g j c ;X:X:X:X=X=X>X<X9X0X4X^ S V r r O.O.O.O.e e e [ { =.p.a.a.z.m.a.m.m.m.z.b.).XX.XXX.X+XpXiXdXfXfXfXfXfXhXfXaX%XoX`.R.d.-. .[ a J M.=X;X;Xc j g # ",
"# g j c b :X:X:Xb =X>X<X9X9X5X^ H F } o.' O.O.e [ [ ' { $.-.a.m.m.m.m.a.a.m.z.n.(.].@X$X$X%XpXfXgXgXgXgXgXzXcXcXcXgXaXuX.X!.c.p.%.} F J M.=X;XM.c j g # ",
"d h j c =X=X-X=X-X-X-X<X0X0X3X~ ~ G 0.+.| [ i e O.[ o.X.-.p.m.m.a.a.a.m.m.z.b.).].#XaXuXaXaXfXgXgXgXgXzXvXnXVXMXMXvXzXsXoX(.v.p. .{ F Y T ;X:X;Xc j g # ",
"d d j c -X-X-X-X-X-X-X<X0X0X3Xk.H 9.u.p.+.{ e e y { t.p.a.m.a.m.m.z.z.m.m.v.).XX$XaXsXfXfXfXfXfXgXfXgXgXzXVXVXVXVXMXbXzXiX'.x.p. .{ p J T ;X:Xb c j g # ",
"d d j c =X-X-X=X=X-X-X<X0X0X3X-XH q.j.p.=.{ O.e O...y.x.b.b.x.v.v.x.v.n.n._..X#XuXfXhXdXsXiXeXeXwXwXwXwXtX7XlXqXlXlXkXzXsX].v.p. .[ F J T ;X:X;Xc j g # ",
"d d j c =X=X=X=X=X=X-X<X9X0X3X^ ~ q.s.a.;.{ O.e [ ..d.~.XX).).).).).).'.}.}.yXaXfXgXhXiX}._./.l.l.e.r.k._ k._ k.k.3X7XbXzXeXv.y.$.' F J E ;X:X;Xc j g # ",
"d h j c -X-X-X=X=X=X-X<X0X0X4X^ H q.j.s.+.{ O.y e $.h.(.XX.X.XXXXX.XoXyXsXdXdXfXhXhXsX}.(.h.u...} F V B 9 V B M V ~ 4XlXkXeXn.y.@.[ G J M.;X:X=Xc j g # ",
"d d j c -X-X=X-X-X-X-X8X0X0X3X^ G w.s.p...u t w u p w.I./._..XXXXX.XoXaXgXgXfXsXaXiXeX_.h.-...y q 5 4 ; ; 4 4 5 0 G k.7XlX{.v.p. .' F J M.;X;X=Xc j g # ",
"d h j c ! -X-X-X-X-X-X4X0X0X4Xq.9.0.s.s.| t 5 5 0 0 F P g.h.b.(.~.).].iXgXgXjXpXoX|.(.h.y. .i t 5 4 ; ; 2 5 t u 9.0.k.3X3Xl.s.p. .' a J b ;X;X=Xc j 8 # ",
"d d j c -X-X-X-X-X-X3X8X0X0X3Xq.O.+.p.i.G 0 : > 4 > 4 9 V 0.d.z.m.z./.}.aXaXuXoX`.E.v.u.| [ w 0 > ; ; 4 5 t [ ..y.w.q.^ q.e.s.p.$.} G J T ;XM.b c j g # ",
"d d j c T =X-X:X-X1X4X0X0X0XT.9.O.o.0.0.H V M f f : , * > t o.o.o.0.i./.eXyXoX].b.b.m.+.[ t 0 > ; ; f 0 t O.o.0.0.0.q.P k.l.v.m.;.} p I Y N.M.T c j g # ",
"d g j c =X-X=X>X-X4X0XqXqX0X4Xq.O.u t t H S A Z B f * @ O - 2 3 2 3 G g.n.b.b.b.b.b.a.0.t 9 ; ; ; f f V G 0.+.O.w t 9.e.l.n.b.n.i.{ p q.r.( W T c j g # ",
"# g j c b :X=X>X<X8XqXqXqX0X3X0.u q 5 V A ^ ^ ^ ~ N ; @ o < O O o + 3 9.m.x.b.b.x.z.a.0.a > > > f N H H q.j.t.r - 2 9.{.XX&XoX_.j.| { t.f.e.B.b c j g # ",
"# g j c b :X=X>X<X9XqXqXqX0Xl.9.y w t Z ^ 3X3X3Xk.^ Z : * < < o + 1 r o.a.x.b.b.x.m.p.+.i t a S H -X-Xk.l.h.y.w + - 9.n.&XuXuX'.g.} | :.v.I.B.b c j g # ",
"# g j c b ;X;X>X<X8XqX0X4X3Xk.9.O.O.0.q.k.4X0X0XqX4XU.S z , , - 6 ,.#.:.4.m.b.b.b.x.m.:.*.@.w.U.4X4X0X7XwXh.t.w - 4 q./.&XjXuX|.I.} $.f.`.T.U.R c j g d ",
"# g j c b :X;X>X1X8X9X0X3Xk.H 9.o.o.y.h.wX7XqXxXxXlX4XU.~ C 9 q #.1.3.4.m.b.).].].b.m.6.3.3.Q.6XqXlXxXxXiXn.u.G 0 V r._.&XuXjXwXg.} $.h.[.T.B.>Xc j g d ",
"# g j c b ;Xb >X1X8X0X4X-Xq.H O.O.+.p.n.T.wXlXkXbXkX7XT.k.P a } *.1.3.6.m._.yXiXyXb.b.6.3.8.~.eXlXxXmXzXiX(.h.e.P r.l.|.yXyXeX/.j.{ %.f.(.Y.B.:Xc j g d ",
"# g j c b ;X;X>X1X0X0X4X~ V 0 u o.t.a.n.n.l.wXeXiXpXeX{.Y.Y.I.I.6.6.4.4.x.n.iXzXdXyXXXb.6.m.~.}.eXdXjXiXoX`.(./.T.T.wXyXyXoX_.h.w.[ | :.I.T.B.T c j g d ",
"# g j c =X=X=X>X<X8X0X3XZ 4 5 u { =.p.z.z.c.R.'.+X@X@XOXOX+X.X[.b.z.m.m.z. XrXnXvXaXoX~.R.x.Q.[.yXyXXXuXyXyXXXyXiXrXgXgXpXb.b.v.$.| ..y.d.g.B.T c j g # ",
"# g j c =XM.;X>X<X8X0X2XN 4 5 r { =.p.m.c.b.Q.}.yXaXaXaXjXjXfX%X|.(.n.v.v.{.kXNXnXgX%X}.(. X[.+XyXuXuXuXjXjXjXgXzXzXnXzXhXeXn.n.f.g.j.f.s.e.( E c j g # ",
"# g j c =X=X=X>X<X9X0XB.Z 4 5 w { +.p.c.b.~.].iXcXvXvXvXvXnXbXcXhXeX'.n.v. XkXNXMXBXsXyXOXOXOXaXjXgXgXzXzXnXnXVXMXMXVXMXzXpXeXb. X{. Xn.d.e.( T c j g # ",
"# g j c =X;XM.>X<X8X0X3XZ 4 5 r { +.p.x.~.XXuXgXmXVXCXVXCXNXNXnXzXsX|.n.v. XkXMXMXcXhXfXdXfXfXfXgXzXMXVXVXVXCXCXCXCXCXVXnXjXuXuX@XrX}.(.n.e._ T c j g # ",
"# g j c T M.=X>X<X8X0X3XH 5 w r { =.p.x.~..XpXcXMXCXCXMXmXnXvXcXdXeX_.b.v. XkXVXMXvXBXfXfXjXaXaXfXzXnXMXCXCXCXCXCXCXVXVXzXfXuX@X$XOXOX`.I.I.B.M.c j g # ",
"# g j c b ;X=X>X<X9X7X3XP t r y { X.p.x.~..XuXcXMXCXmXbXcXgXfX#X|.(.n.x.v. XkXVXMXnXBXjXuX%X%X%XpXjXzXzXMXCXCXCXCXVXMXnXzXfXuXXX`.).!.`.[.T.B.M.c j g d ",
"# g j c b ;X=X>X<X8X0XT.q.[ e e { X.u.c.~.XXpXzXMXNXvXBXsX%X+X`.b.m.a.a.d. XrXnXmXcXsXeX+X.X.X+XyXuXjXgXvXMXVXCXCXVXzXzXaXuXXXXXR.h.R.~.[.Y.B.M.c j g d ",
"# g j c b ;X=X>X<X8XqX6Xg. .' O.[ | =.s.c.!.}.hXMXNXvXfX%X.X`.R.d.-.+.+.i.h.T.6XtXT. XY.W.I.R.!.b.yXpXgXzXzXzXnXMXzXzXaXuXoX`.b.f.u.:.^.`.T.B.M.c j g g ",
"# g j c b ;X=X>X<X8XqX6Xh.-.o.{ [ [ { X.p.c._.rXmXMXcXpX.X).R.d.-.o.{ o.o.0.r.e.e.e.w.w.$.t.u.d.b.}.iXhXfXjXaXfXzXzXjXuXoXXXb.z.-...=.a.v.I.B.n c j g # ",
"# g j c b ;X;X>X<X8X7XwXn.d.=.o.i e [ { =.s./.eXnXnXgX+XXXR.d.u.0.{ { [ { } { { } } | } } ..=.:.b.'.eXsXpXuXoXuXfXfXuXuXXXb.z.a.$.{ { t.j.e.B.M.c j g # ",
"# g j c b :Xb >X,X4X4X6X Xb.u.o.e e e '  .p.E.eXkXcXiX].b.a.-.X. . .o. .o. .o.o. .$.t.j.g.I.g.I.b.'.|.oXyXoXyXuXpXyXoXoXb.b.z.y.$.' p } r.( ) M.c j g # ",
"# g j c b ;X;X>X,X2X4X6X'.(.f.0.e e O.{ +.p.n.eXhXdX}.E.d.=.| | +.y.y.y.y.-.-.-.s.v./.'.{.{.|.[.).).n.(.|.yXaXuXuXoXb.b.b.m.m.p.%.[ G I W N.N.n c j g # ",
"# g j c =X:X:XT N.) k.T. X'.h...O.r ' { +.p./.|.rXiX'.v.p.$.| ..u.z.x.z.z.z.m.x.n..XoXuXsXsXaX$XXX~.x.v._.eXdXaX@XXXb.x.z.m.z.a.$.{ F J M.;X:Xb c j g g ",
"# g j c b :X:X:X-XW ) U./.E.s...O.e O.} +.a.b.}.pXeX_.c.s.u.f.h.n.b.(.(.'.(.(.(.].iXzXgXgXhXjXuXoX).x.v._.iXdXaX&XXX).z.m.b.n.z.=.[ F J M.;X;X;Xc j g # ",
"# g j c b :X:X:X-XT N.k.h.c.:.| O.r y { X.p.n.}.sXiX_.x.c.R.(.(.`..XoXeXyXeX.X.XyXzXnXnXzXgXaX&X.X).x.x._.iXfXjXoXXXb.x.x.b.`.b.>.i F J T ;X;X;Xc j g # ",
"# g j c -X:X:X=X;X;XM.( e.j.t.{ y e O.{ +.a.n.|.iXeX_.v.c.E.(.].XX.XoXyXyXyXoX.XyXzXnXzXzXaXyXoX`.b.z.v._.yXfXuXyXXX).b.b.)..X'.I.G F J M.;XM.b c j g # ",
"# g j c T :X:X:X;X=XM.) r.e.q.} i e O.{ +.p.E.}.dXiX_.v.m.d.h.n.E.(.`.|.|.'.(.).'.eXeXeXeX_./.W.h.f.d.v._.eXfXaX@X.X`.~.~.XX.X[.T.L K Y M.;X:X;Xc j 8 # ",
"# g j c T :X:X:X;X;XT W _ k.q.} y e e { +.p.b.}.sXiX'.c.p.=.w.t.s.z.n.b.b.b.n.n.b././.n.n.n.f.w.$.t.p.v.'.iXfXuX@X.XXXXXXX.X@X{.U.Y M.b b b M.b c j g # ",
"# g j c =X:X:XM.-X=X:XQ ) ^ P 9.[ ' ' { +.p.n.'.eXeX'.v.d.w.w.$.j.v.v.v.n.n.n.n.n.b.n.n.b.v.s.....t.s.n.|.iXfXpX@X@XoX@X@X@XXXY.U.N.b b ;X:X:Xb c j g # ",
"# g j c b :X;X;X:X:X:X:XW ) P w. .{ [ { +.p.n./.'.|.(.).W.h.h.Y./._._._._.'.|.wXeXwXwXwX{./.W.h.f.d.R.(.oXsXfXuX@X@X$XuX$X.X`.Y.B.N.b =X;X:X:Xb c j g # ",
"# g j c =X:X:X:XM.=X;XM.M.W ( i.y. .{ { X.p.z.x.n.E.).`.}.}.eXeXeXiXyXyXeXrXzXbXkXmXzXzXrXeX}.'.(.(.)..X#XaXfXuX@X@XuXaXpX].E.g.B.M.;X;X;X;X:X;Xc j g # ",
"# g j c T :X:X;X=X=X;X;X=XQ ( g.p.+.{ { X.p.a.a.z.c.~.XXoXyXiXeXiXiXiXdXfXzXbXmXVXVXmXvXzXsXuX%X@X@X@X$XpXhXdXaX%X%XuXaXyX`.v.e.I M.=X=X;XM.M.b c j g # ",
"# g j c =X:X:XM.;XM.=X=X=XN.k.g.a.+.o.' { X.-.p.a.x.b.!.`.'.|.|.|.|.}.#XpXfXgXzXzXzXzXgXaXuXuXuXuXuXuXuXaXfXfXaXpXuXpXpX#X(.c.g.( N.=X=X;X:X:X=Xc j g # ",
"# g j c =X:X;X;X=X;XM.=Xb Q ( j.a.=.{ ' O.{ | -.p.m.c.x.n.b.n.b.n.n.(.].@X$X%XyXyXyX%X$X$X$XuXuXfXaXfXfXfXhXhXdXfXfXuX$X.X~.c.j.( M.;X;X;X;X:Xb c j g # ",
"# g j c M.;X;X=XM.=XM.;X=XR ( e.i.=...{ O.O.} X.p.p.a.a.z.c.x.v.n.n._.|.oX$X@X@X&XoX$XoX$XoXuXgXgXzXzXzXzXhXhXfXfXuXyXoX).^.d.e.( M.b =X;XM.;Xb c j g # ",
"# g j c =X:X:X:X;X;X;X;X-XR / P w.0.t.+.o.O.O.{  .y.p.a.c.b.Q.(.{.eXeXyXuXuXuXuXuXuXuXuXuXaXgXcXnXnXnXvXzXzXgXfXaXyXoX).R.a.t.q.L M.;Xb ;X;X;X;Xc j g # ",
"# g j c b :X;X;X=X=X;X;X=XT ! ~ H w.u.y.X.[ O.O.{ | y.a.x.Q.XXyXhXzXbXzXfXfXfXfXfXfXfXsXaXfXzXnXNXVXVXMXvXzXfXpX%XoX).b.d.-...G J E ;X;X;XM.M.b c j g # ",
"# g j c b :X:XM.M.;XM.=X-X-X! U ~ q.w.t.X...{ O.O.{ X.p.z.Q.`.yXzXmXmXzXfXsXiXiXiXaXfXfXhXhXvXmXMXVXVXMXbXgXaX$XoX).b.m.-. .| G J M.;X;X;X;X;X;Xc j g # ",
"# g j v M.:X;X=X;X;XM.;X;XT W / ~ P G 9.o.=.X.o.' [ { X.y.c.!.}.hXnXvXgXsXoX}.|.|.yXuXfXfXzXcXvXnXnXnXvXzXfX%XoX).b.f.=.X. .X.q.` M.;X;X;X;X;X=Xc j g # ",
"# g j c =X:X;X;X=X=X=X=X;XM.-X) ^ A V 0 9.t.y.X.[ O.' } X.y.c._.eXhXhXuX$X`.(.b.!.].$XuXsXhXgXzXzXzXzXgXaX%XoX).b.z.=.| | +.u.w.I N.=X;X;XM.M.b c j g # ",
"# g j c M.:X:XM.M.M.;X;X=X>XW _ ^ Z : 4 t 0.t.=.| { [ [ { X.u.h. X|.}.oXXX!.x.m.b.~.XXoXyXiXeXiXiXiXiXyX#X.X).Q.d.y.X.o.X.p.h.Y.B.M.=X;X;XM.;Xb c j 8 # ",
"# g j c b ;X:X;X;X=X;Xb ;XT -X_ ^ N * - 5 a 9.0.$.X.o.[ [ o...t.g.h.Y./.Q.b.x.m.x.b.Q.(.'.'.'._.'.'.'._.).(.b.f.t. . .X.u.n.'.T.U.M.=X=X;X;X;X;Xc j g # ",
"# g j c b :X;Xb :X=X:X-X-X-X_ -X^ N * & * > t 0.i.y.0.O.O.O.{ { } ..w.s.c.c.z.m.z.z.c.c.x.v.v.v.v.v.v.x.c.v.d.y.| | X.:.W.[.eXtX5XN.=X=X;X;XM.b c j g # ",
"# g j c =X:X:X;X=X:X-X-X-X-X-Xk.^ N * < & * 4 t 0.0.0.O.O.O.O.O.e O.o.+.u.p.p.p.p.p.p.p.p.p.p.p.p.p.y.p.p.p.y.X.| ..u.h.(.OXdX7X5XN.=X=XM.;X;X;Xc j g # ",
"# g j c b :X:XM.-X:X-X-X-X-X-X3X^ Z > = & & * 5 u p O.O.O.O.O.O.O.O.o.o.X.=.+.$.+.X.+.X. .+.@.@.X. . .X.X.| X. . .u.I._.OXaXhXtX5X>X;X=X=X;X;X=Xc j g # ",
"# g j c :X:X:X:X:X=X-X-X-X-X-Xk.^ S f * = < = * f 0 t O.y O.O.y e O.O.O.[ { [ { { { [ { { O.{ ' { [ { { [ { { +.p.h.'.OXdXfXhXtX5X>X=X=X;X:XM.b c j g # ",
"# g j c b ;X;X;X-X;X;X=X-X-X-X-X^ A M ; &     = ; 4 0 t u u u u r w w w w w w w w w w w w w r r e O.e e O.{ | u.v./.OXdXgXgXaXtX5X>X;X;X;X;XM.b c j 8 # ",
"# g j c M.:X:X:X:X-X-X;X=X-X-Xk.^ ~ M ; &     = ; 4 V F F 5 5 5 2 2 1 1 1 1 1 1 1 1 1 + 1 1 6 w r e e O.{ X.y.h._.OXiXdXgXjXuXwXU.M.;X;X;X;X;X;Xc j g # ",
"# g j c b :X;X;X=X;X=X=X-X-X-X-X^ A M * &     = ; f N Z N V 4 > = o o o o o o o o o o o o O 2 r y [ ' [ X.y.v._.eXaXgXhXjXuX%XT.B.N.;X;X;XM.M.=Xc j g # ",
"# g j c b :X;XM.=X;XM.:X-XW _ U ~ A B 4 = < < = ; f Z A S B : * & . X . . . . . X . .   o + 3 r { $.r.g.g.n.(.}.pXfXhXhXaX%XoXY.U.M.;X;X;X;X;XM.c j g # ",
"# g j c T :X:X:X-X:X=X;X:XT ! Z N Z N M * < < = ; M S / ~ N f * & . . . . . . . X X . o 1 3 r o.t.Y.T.tXtXeXeXoXuXaXfXfXsX}.(.I.B.M.;X;Xb :X:Xb c j g # ",
"# g j c T :X:X:X:X=X-X;X;Xn m z M B Z N ; &   = ; B A ^ ~ Z f * &   . . o . . . .   o - 6 u o.u.h.{.kXxXzXhXiXyX@X$XuXfXiX[.v.g.B.N.=X=X:X:X:Xb c j g # ",
"# g j c =X:X:X:X=X:X:X:X:Xn m f : B Z N : & o = ; M A ^ ^ A N f * &   < < O = + + 1 2 w } t.h.n.'.eXkXkXkXeX|.'.[.].$XiX#X/.f.w.B.M.n b :X:XM.;Xc j g # ",
"# g j c b ;X;XM.:X:X;X:X:Xn x z 4 B Z N ; &   & ; M Z ~ ~ / A Z f * * * * - 2 3 6 r { 0.g.n.wXeXrXiXeX{.Y.l.g.h.R.(..X$X}.n.t.q.K M.b b :X;X:Xb c j g # ",
"# g j c b :X:X;X=X-X=X:X=Xn m z : N Z N ; &   & ; f N Z ~ ^ ^ ~ N 4 ; ; > 4 w O.o.+.s.n.b.yXaXzXkXrXn.h.t.0...t.d.R.~..X~.I.%.a J M.;X;X;X:X:Xb c j h # ",
"# g j c M.;X:X:X=X=X-X:X-X-Xm x z N N M ; & o < * > f N S ~ ^ ^ Z B f 4 5 t O.0.s.n.b.].XX&XjXhXkXwXl.t... . .+.:.c.R.Q.I.r.I F M.M.:X;X:X:XM.:Xc j g # ",
"# g j c =X>X>X;X-X-X-X-X-X=Xn m m N B f * o .   O * ; f N A ~ ~ S Z V 0 t O.X.s.b.].pXuX&X&XoXeXwXl.r.q.0.t.p.a.m.d.f.u.$.I J N.M.M.;XM.:X:X:X;Xc j g # ",
"# g j c b ;X=Xb =X=X=X=X=X=X=X=Xm m f , = & . .   < * > M N Z Z A S V F u o.0.d.n.wXeXpXyX}.b.n.h.w.H H P t.p.a.f.:.$.%.G J n b n n b b b ;X;Xb c j g # ",
"# g j k c c c c c c c c c c c c v x l , % @ @ @ @ @ $ * 7 z z z x D C V 0 a G q.e.U.T.U.T.I.r.I q.F C C S G q.q.} G s a 9 K c c c c c c c c c c k j g # ",
"d d h h j j j j j j j j j j j j j h l % $ $ $ $ $ $ $ 8 8 l l l l l l 7 7 7 7 C C K K K K K C 7 7 7 l l x z C 9 C x 7 7 7 l j j j j j j j j j j h g g # ",
"d d g g g g g g 8 g g g g g h g 8 g g # # # # # # # # # # 8 g 8 g g g # h % 8 h h h h h h 8 h 8 8 8 8 8 8 8 h 8 h 8 g 8 8 8 g g g g 8 g g g g 8 g g 8 # ",
"d d d d # # # # # # # # # # # d # d # g d g d g d g g d g d d # # d d # d # # # # # # $ # # 8 8 # # # 8 # # # # # # # g g # # # # # # # # # # # 8 8 # g "
};
