/* XPM */
static char *face33331678797324[] = {
/* columns rows colors chars-per-pixel */
"100 100 14 1 ",
"  c #004040",
". c #408080",
"X c #585858",
"o c gray22",
"O c #805030",
"+ c gray47",
"@ c #C07048",
"# c #E87818",
"$ c #F0B020",
"% c #181818",
"& c gray72",
"* c #E8A070",
"= c #E8B898",
"- c #E8D8C8",
/* pixels */
"    ...........................XXXXXXXXXXXooooooooooooOOOOOOOOOOOOOOOOOOOOOOO...................    ",
"    ...........................XXXXXXXXXXXooooooooooooOOOOOOOOOOOOOOOOOOOOOOO...................    ",
"    ...........................XXXXXXXXXXXooooooooooooOOOOOOOOOOOOOOOOOOOOOOO...................    ",
"    ...........................XXXXXXXXXXXooooooooooooOOOOOOOOOOOOOOOOOOOOOOO...................    ",
"    ...................++++++++XXXXoooooooOOOOOOOO@@@@@@@@#######$$$$$$$$####@@@@OOOO...........    ",
"    ...................++++++++XXXXoooooooOOOOOOOO@@@@@@@@#######$$$$$$$$####@@@@OOOO...........    ",
"    ...................++++++++XXXXoooooooOOOOOOOO@@@@@@@@#######$$$$$$$$####@@@@OOOO...........    ",
"    ...............++++XXXXXXXXoooooooOOOO@@@@############$$$$$$$$$$$$$$$$$$$$$$$####...........    ",
"    ...............++++XXXXXXXXoooooooOOOO@@@@############$$$$$$$$$$$$$$$$$$$$$$$####...........    ",
"    ...............++++XXXXXXXXoooooooOOOO@@@@############$$$$$$$$$$$$$$$$$$$$$$$####...........    ",
"    ...............++++XXXXXXXXoooooooOOOO@@@@############$$$$$$$$$$$$$$$$$$$$$$$####...........    ",
"    ...............++++XXXXooooooooOOO@@@@########$$$$$$$$$$$$$$$########$$$$####$$$$OOO........    ",
"    ...............++++XXXXooooooooOOO@@@@########$$$$$$$$$$$$$$$########$$$$####$$$$OOO........    ",
"    ...............++++XXXXooooooooOOO@@@@########$$$$$$$$$$$$$$$########$$$$####$$$$OOO........    ",
"    ...............++++XXXXooooooooOOO@@@@########$$$$$$$$$$$$$$$########$$$$####$$$$OOO........    ",
"    ...........++++XXXXoooo%%%%ooooOOOOOOO@@@@################$$$@@@@OOOOOOOO@@@@#######........    ",
"    ...........++++XXXXoooo%%%%ooooOOOOOOO@@@@################$$$@@@@OOOOOOOO@@@@#######........    ",
"    ...........++++XXXXoooo%%%%ooooOOOOOOO@@@@################$$$@@@@OOOOOOOO@@@@#######........    ",
"    ...........++++XXXXoooo%%%%ooooOOOOOOO@@@@################$$$@@@@OOOOOOOO@@@@#######........    ",
"    ...........&&&&XXXX%%%%%%%%OOOOOOOOOOOOOOOOOOOOOOOOOOOOOOO###OOOOOOOOOOOOOOOO@@@@###........    ",
"    ...........&&&&XXXX%%%%%%%%OOOOOOOOOOOOOOOOOOOOOOOOOOOOOOO###OOOOOOOOOOOOOOOO@@@@###........    ",
"    ...........&&&&XXXX%%%%%%%%OOOOOOOOOOOOOOOOOOOOOOOOOOOOOOO###OOOOOOOOOOOOOOOO@@@@###........    ",
"    ...........&&&&XXXX%%%%%%%%OOOOOOOOOOOOOOOOOOOOOOOOOOOOOOO###OOOOOOOOOOOOOOOO@@@@###........    ",
"    ...........&&&&XXXX%%%%OOOOOOOOOOO@@@@OOOO@@@@@@@@@@@@@@@@OOO@@@@@@@@@@@@@@@@OOOO###........    ",
"    ...........&&&&XXXX%%%%OOOOOOOOOOO@@@@OOOO@@@@@@@@@@@@@@@@OOO@@@@@@@@@@@@@@@@OOOO###........    ",
"    ...........&&&&XXXX%%%%OOOOOOOOOOO@@@@OOOO@@@@@@@@@@@@@@@@OOO@@@@@@@@@@@@@@@@OOOO###........    ",
"    ...........&&&&XXXX%%%%OOOOOOOOOOO@@@@OOOO@@@@@@@@@@@@@@@@OOO@@@@@@@@@@@@@@@@OOOO###........    ",
"    ...........&&&&XXXX%%%%OOOOOOOOOOOOOOO@@@@@@@@@@@@@@@@@@@@@@@************@@@@OOOOOOO........    ",
"    ...........&&&&XXXX%%%%OOOOOOOOOOOOOOO@@@@@@@@@@@@@@@@@@@@@@@************@@@@OOOOOOO........    ",
"    ...........&&&&XXXX%%%%OOOOOOOOOOOOOOO@@@@@@@@@@@@@@@@@@@@@@@************@@@@OOOOOOO........    ",
"    ...........&&&&XXXXOOOOOOOOOOOOOOO@@@@@@@@@@@@@@@@********===============****@@@@OOO........    ",
"    ...........&&&&XXXXOOOOOOOOOOOOOOO@@@@@@@@@@@@@@@@********===============****@@@@OOO........    ",
"    ...........&&&&XXXXOOOOOOOOOOOOOOO@@@@@@@@@@@@@@@@********===============****@@@@OOO........    ",
"    ...........&&&&XXXXOOOOOOOOOOOOOOO@@@@@@@@@@@@@@@@********===============****@@@@OOO........    ",
"    ...........&&&&XXXX@@@@OOOOOOOO@@@@@@@@@@@@@@@****===============--------====@@@@OOO........    ",
"    ...........&&&&XXXX@@@@OOOOOOOO@@@@@@@@@@@@@@@****===============--------====@@@@OOO........    ",
"    ...........&&&&XXXX@@@@OOOOOOOO@@@@@@@@@@@@@@@****===============--------====@@@@OOO........    ",
"    ...........&&&&XXXX@@@@OOOOOOOO@@@@@@@@@@@@@@@****===============--------====@@@@OOO........    ",
"    ...........&&&&XXXX@@@@OOOOOOOO***********============@@@@OOOoooooooooooo----@@@@OOO........    ",
"    ...........&&&&XXXX@@@@OOOOOOOO***********============@@@@OOOoooooooooooo----@@@@OOO........    ",
"    ...........&&&&XXXX@@@@OOOOOOOO***********============@@@@OOOoooooooooooo----@@@@OOO........    ",
"    ...........&&&&XXXX@@@@OOOOOOOO***********============@@@@OOOoooooooooooo----@@@@OOO........    ",
"    ........+++&&&&OOOO@@@@ooooooooooo@@@@@@@@====****@@@@OOOOoooooooOOOO@@@@XXXX@@@@OOO........    ",
"    ........+++&&&&OOOO@@@@ooooooooooo@@@@@@@@====****@@@@OOOOoooooooOOOO@@@@XXXX@@@@OOO........    ",
"    ........+++&&&&OOOO@@@@ooooooooooo@@@@@@@@====****@@@@OOOOoooooooOOOO@@@@XXXX@@@@OOO........    ",
"    ........+++&&&&OOOO@@@@ooooooooooo@@@@@@@@====****@@@@OOOOoooooooOOOO@@@@XXXX@@@@OOO........    ",
"    ........&&&&&&&OOOOoooo++++XXXX%%%%%%%%%%%@@@@@@@@@@@@oooooooXXXX@@@@%%%%********OOO@@@@....    ",
"    ........&&&&&&&OOOOoooo++++XXXX%%%%%%%%%%%@@@@@@@@@@@@oooooooXXXX@@@@%%%%********OOO@@@@....    ",
"    ........&&&&&&&OOOOoooo++++XXXX%%%%%%%%%%%@@@@@@@@@@@@oooooooXXXX@@@@%%%%********OOO@@@@....    ",
"    ........&&&&&&&OOOOoooo++++XXXX%%%%%%%%%%%@@@@@@@@@@@@oooooooXXXX@@@@%%%%********OOO@@@@....    ",
"    ........&&&++++OOOO@@@@&&&&----+++oooo####@@@@****@@@@####&&&----@@@@oooo****====OOO****....    ",
"    ........&&&++++OOOO@@@@&&&&----+++oooo####@@@@****@@@@####&&&----@@@@oooo****====OOO****....    ",
"    ........&&&++++OOOO@@@@&&&&----+++oooo####@@@@****@@@@####&&&----@@@@oooo****====OOO****....    ",
"    ........&&&++++OOOO@@@@&&&&----+++oooo####@@@@****@@@@####&&&----@@@@oooo****====OOO****....    ",
"    ........&&&ooooOOOO@@@@@@@@***********@@@@@@@@----****@@@@***********========@@@@OOO@@@@....    ",
"    ........&&&ooooOOOO@@@@@@@@***********@@@@@@@@----****@@@@***********========@@@@OOO@@@@....    ",
"    ........&&&ooooOOOO@@@@@@@@***********@@@@@@@@----****@@@@***********========@@@@OOO@@@@....    ",
"    ........&&&ooooOOOO@@@@****-----------====@@@@----===========----------------****===@@@@....    ",
"    ........&&&ooooOOOO@@@@****-----------====@@@@----===========----------------****===@@@@....    ",
"    ........&&&ooooOOOO@@@@****-----------====@@@@----===========----------------****===@@@@....    ",
"    ........&&&ooooOOOO@@@@****-----------====@@@@----===========----------------****===@@@@....    ",
"    ........&&&OOOOOOOO@@@@****----===****@@@@@@@@----====*******====--------====****@@@****....    ",
"    ........&&&OOOOOOOO@@@@****----===****@@@@@@@@----====*******====--------====****@@@****....    ",
"    ........&&&OOOOOOOO@@@@****----===****@@@@@@@@----====*******====--------====****@@@****....    ",
"    ........&&&OOOOOOOO@@@@****----===****@@@@@@@@----====*******====--------====****@@@****....    ",
"    ........&&&@@@@OOOOOOOO@@@@----***@@@@OOOOOOOOOOOOOOOOOOOO@@@====****====****@@@@OOO@@@@....    ",
"    ........&&&@@@@OOOOOOOO@@@@----***@@@@OOOOOOOOOOOOOOOOOOOO@@@====****====****@@@@OOO@@@@....    ",
"    ........&&&@@@@OOOOOOOO@@@@----***@@@@OOOOOOOOOOOOOOOOOOOO@@@====****====****@@@@OOO@@@@....    ",
"    ........&&&@@@@OOOOOOOO@@@@----***@@@@OOOOOOOOOOOOOOOOOOOO@@@====****====****@@@@OOO@@@@....    ",
"    ........+++****OOOOOOOO@@@@====@@@OOOO@@@@@@@@@@@@****====***@@@@====****@@@@@@@@OOO........    ",
"    ........+++****OOOOOOOO@@@@====@@@OOOO@@@@@@@@@@@@****====***@@@@====****@@@@@@@@OOO........    ",
"    ........+++****OOOOOOOO@@@@====@@@OOOO@@@@@@@@@@@@****====***@@@@====****@@@@@@@@OOO........    ",
"    ........+++****OOOOOOOO@@@@====@@@OOOO@@@@@@@@@@@@****====***@@@@====****@@@@@@@@OOO........    ",
"    ...........@@@@OOOOOOOO@@@@====@@@********====****----====***@@@@====****@@@@****OOO........    ",
"    ...........@@@@OOOOOOOO@@@@====@@@********====****----====***@@@@====****@@@@****OOO........    ",
"    ...........@@@@OOOOOOOO@@@@====@@@********====****----====***@@@@====****@@@@****OOO........    ",
"    ...........@@@@OOOOOOOO@@@@====@@@********====****----====***@@@@====****@@@@****OOO........    ",
"    ...........++++OOOOOOOO@@@@====@@@OOOO@@@@@@@@@@@@@@@@@@@@OOO@@@@====************...........    ",
"    ...........++++OOOOOOOO@@@@====@@@OOOO@@@@@@@@@@@@@@@@@@@@OOO@@@@====************...........    ",
"    ...........++++OOOOOOOO@@@@====@@@OOOO@@@@@@@@@@@@@@@@@@@@OOO@@@@====************...........    ",
"    ...............@@@@OOOO@@@@@@@@***============--------====*******====****====@@@@...........    ",
"    ...............@@@@OOOO@@@@@@@@***============--------====*******====****====@@@@...........    ",
"    ...............@@@@OOOO@@@@@@@@***============--------====*******====****====@@@@...........    ",
"    ...............@@@@OOOO@@@@@@@@***============--------====*******====****====@@@@...........    ",
"    ...............@@@@OOOOOOOO@@@@@@@@@@@@@@@****************===============****@@@@...........    ",
"    ...............@@@@OOOOOOOO@@@@@@@@@@@@@@@****************===============****@@@@...........    ",
"    ...............@@@@OOOOOOOO@@@@@@@@@@@@@@@****************===============****@@@@...........    ",
"    ...............@@@@OOOOOOOO@@@@@@@@@@@@@@@****************===============****@@@@...........    ",
"    ...............XXXX@@@@OOOOOOOO@@@****----================-------====****@@@@OOOO...........    ",
"    ...............XXXX@@@@OOOOOOOO@@@****----================-------====****@@@@OOOO...........    ",
"    ...............XXXX@@@@OOOOOOOO@@@****----================-------====****@@@@OOOO...........    ",
"    ...............XXXX@@@@OOOOOOOO@@@****----================-------====****@@@@OOOO...........    ",
"    ...............++++oooo@@@@OOOOOOO@@@@====****@@@@****===========****@@@@OOOO@@@@...........    ",
"    ...............++++oooo@@@@OOOOOOO@@@@====****@@@@****===========****@@@@OOOO@@@@...........    ",
"    ...............++++oooo@@@@OOOOOOO@@@@====****@@@@****===========****@@@@OOOO@@@@...........    ",
"    ...............++++oooo@@@@OOOOOOO@@@@====****@@@@****===========****@@@@OOOO@@@@...........    ",
"    ...............++++%%%%oooo@@@@OOOOOOOOOOO@@@@@@@@@@@@@@@@@@@@@@@@@@@OOOO@@@@====...........    ",
"    ...............++++%%%%oooo@@@@OOOOOOOOOOO@@@@@@@@@@@@@@@@@@@@@@@@@@@OOOO@@@@====...........    ",
"    ...............++++%%%%oooo@@@@OOOOOOOOOOO@@@@@@@@@@@@@@@@@@@@@@@@@@@OOOO@@@@====...........    ",
"    ...............++++%%%%oooo@@@@OOOOOOOOOOO@@@@@@@@@@@@@@@@@@@@@@@@@@@OOOO@@@@====...........    "
};
