/* XPM */
static char *facex1678799272[] = {
/* columns rows colors chars-per-pixel */
"76 100 242 2 ",
"   c #1C1C1C",
".  c #151718",
"X  c #221D1B",
"o  c #28221D",
"O  c #38291E",
"+  c #192526",
"@  c #003D3D",
"#  c #093434",
"$  c #123A3A",
"%  c #232324",
"&  c #2B2B2A",
"*  c #372B24",
"=  c #343434",
"-  c #3B3A3A",
";  c #393736",
":  c #303533",
">  c #4C361D",
",  c #422E21",
"<  c #4A3527",
"1  c #583B28",
"2  c #463C36",
"3  c #523E34",
"4  c #623D26",
"5  c #07413F",
"6  c #1A403C",
"7  c #2B453B",
"8  c #4B423B",
"9  c #584536",
"0  c #5B4828",
"q  c #65412A",
"w  c #69452D",
"e  c #7D4E2E",
"r  c #744A2E",
"t  c #684936",
"y  c #744D33",
"u  c #7B4F32",
"i  c #754E3B",
"p  c #7D5133",
"a  c #79543C",
"s  c #765233",
"d  c #664B19",
"f  c #003F41",
"g  c #3D3F40",
"h  c #044343",
"j  c #0D4948",
"k  c #155555",
"l  c #1E5E5E",
"z  c #194646",
"x  c #3A4949",
"c  c #3C5857",
"v  c #2A4948",
"b  c #2C6C6C",
"n  c #2A696A",
"m  c #3D6868",
"M  c #3E7D7D",
"N  c #3E7474",
"B  c #434343",
"V  c #4C4C4C",
"C  c #474847",
"Z  c #485556",
"A  c #545454",
"S  c #5B5A5A",
"D  c #5A5756",
"F  c #525049",
"G  c #695847",
"H  c #775944",
"J  c #645B55",
"K  c #675348",
"L  c #5B6B5E",
"P  c #696758",
"I  c #786A57",
"U  c #466C6C",
"Y  c #556964",
"T  c #437C7B",
"R  c #4B7E7A",
"E  c #497876",
"W  c #557D78",
"Q  c #55746A",
"!  c #6C6C6C",
"~  c #656565",
"^  c #667666",
"/  c #767969",
"(  c #6A7B78",
")  c #757574",
"_  c #706C69",
"`  c #5D5F60",
"'  c #403F40",
"]  c #88542C",
"[  c #95592A",
"{  c #835231",
"}  c #8B5634",
"|  c #8D5836",
" . c #8C5B3A",
".. c #845739",
"X. c #925936",
"o. c #935C3A",
"O. c #9C5D3A",
"+. c #995935",
"@. c #824F2E",
"#. c #A65D27",
"$. c #A15E38",
"%. c #9A613C",
"&. c #9B682E",
"*. c #A4623D",
"=. c #AB643C",
"-. c #B6683A",
";. c #B16D28",
":. c #A0671C",
">. c #D9751C",
",. c #CA6D1D",
"<. c #E77A1A",
"1. c #C76C25",
"2. c #C77A2B",
"3. c #DA7528",
"4. c #CA7438",
"5. c #CC7237",
"6. c #E37922",
"7. c #8F5C42",
"8. c #8B6349",
"9. c #996546",
"0. c #917454",
"q. c #AC6641",
"w. c #AC6A45",
"e. c #A56846",
"r. c #B46B44",
"t. c #BB6D45",
"y. c #B56B46",
"u. c #AA7549",
"i. c #BC724A",
"p. c #B4744B",
"a. c #A67555",
"s. c #B77955",
"d. c #8B7869",
"f. c #A57E63",
"g. c #C16E46",
"h. c #C2734B",
"j. c #C5754A",
"k. c #C47B53",
"l. c #CB7D53",
"z. c #C47E58",
"x. c #47807D",
"c. c #52837E",
"v. c #788475",
"b. c #B7852A",
"n. c #D88E1E",
"m. c #EB8619",
"M. c #EC971A",
"N. c #F29316",
"B. c #F0A81C",
"V. c #D78E2F",
"C. c #E99725",
"Z. c #E88A2B",
"A. c #EDA729",
"S. c #ECA938",
"D. c #EEB337",
"F. c #F1AE33",
"G. c #BB8457",
"H. c #8C8779",
"J. c #BA8867",
"K. c #B18B71",
"L. c #B6A16B",
"P. c #CC835B",
"I. c #C98459",
"U. c #D38559",
"Y. c #D4895D",
"T. c #D78759",
"R. c #D08E49",
"E. c #EA9650",
"W. c #EEB151",
"Q. c #C88A65",
"!. c #D48D62",
"~. c #D98E61",
"^. c #D28E69",
"/. c #DB9365",
"(. c #DC956A",
"). c #D6936A",
"_. c #C99575",
"`. c #D89B76",
"'. c #CD906A",
"]. c #E39B6C",
"[. c #E39869",
"{. c #E39E72",
"}. c #DBA47B",
"|. c #E3A47B",
" X c #E8A578",
".X c #EAB670",
"XX c #EEC571",
"oX c #F1C15F",
"OX c #3B7F80",
"+X c #427F80",
"@X c #3E8182",
"#X c #418181",
"$X c #4B8585",
"%X c #578483",
"&X c #5C8F90",
"*X c #749A9A",
"=X c #728888",
"-X c #898A8A",
";X c #979695",
":X c #8D938A",
">X c #AF998B",
",X c #9DAAAA",
"<X c #A8AAAA",
"1X c #B7B7B7",
"2X c #B6B0AA",
"3X c #B0A59E",
"4X c #CB9B82",
"5X c #D9A788",
"6X c #D6AD92",
"7X c #DDB397",
"8X c #C9A990",
"9X c #E5AB86",
"0X c #E9B28C",
"qX c #E6B48B",
"wX c #E9BB9B",
"eX c #E7B695",
"rX c #C5B5A9",
"tX c #D9BAA4",
"yX c #C0BEBC",
"uX c #E6BEA2",
"iX c #EDCA92",
"pX c #D4C2B4",
"aX c #E9C5AC",
"sX c #E8C4A8",
"dX c #EACBB4",
"fX c #E6CBB7",
"gX c #EAD2BC",
"hX c #E8D2B9",
"jX c #EBD2A9",
"kX c #CECCCA",
"lX c #E9D4C3",
"zX c #EADACB",
"xX c #E8D6C6",
"cX c #E9DCD2",
"vX c #EDD6C8",
"bX c #EDE3D8",
"nX c #F1E4D5",
"mX c #F2EBE5",
"MX c #F6F1ED",
"NX c #F8F7F5",
"BX c #EBEBE9",
"VX c #BEC0C1",
/* pixels */
"h @ @ @ @ @ @ @ @ @ @ @ @ @ @ @ @ @ @ @ @ @ @ @ @ @ @ @ f f f f f f f f f f @ @ 5 5 5 5 5 5 h 5 5 5 5 @ 5 5 5 5 5 5 5 5 5 5 5 5 5 5 @ 5 @ @ 5 @ @ 5 5 h ",
"@ h h h h h h h h h h h h h h h h h h h h h h h h h h h h f f h h f h h h h h h h h h h h 5 h h h h h h 5 5 5 h h 5 h 5 5 h h 5 h 5 5 h h h h h 5 5 5 5 ",
"@ h h k k k k k k k k k k k k k k k k k k k k k k l k k k k k k k l k k k l k k k k k k k k k k k k k k k k k k k k k k k k k k k k k k k k k k j j h @ ",
"@ h j l b b b b b b b b b b b b b b b b b b b b b b b b b b b b b b b b b b b b b b b b b b b b b b b b b b b b b b b b b b b b b b b b b b b n l j h @ ",
"@ h k b M #Xx.M M M M M T M M M OXOXM +XM OXOXOXM M OXM M M OXN M M N N M N M N N T T N N T T x.OXM N x.N x.N N M #XOXOXOXOXM M OXOXM OX#X#XOXM b k h @ ",
"@ h k b @X$X#X#X#X#X#X#X#X#X$X#X#X#X#X#X+X+X+XU m U U U E U T U m m m m m m m m U U L Q Q Q L Q Q Y Q Q Q L L x.x.@X@X@X#X#X#Xx.#X#Xx.#X#X#X#X#Xb k h @ ",
"@ h k b M $X@X#X#X#X#X#X#X#X@X@X#X#X#X+X#X#XM m c x Z Y Y Y Y ` Z x x c x x v x Z G G G G H G G G G H G G G P c.M OX@X#X#X#X#X#X#X#X#X#X#Xx.x.OXb k j @ ",
"@ h k b M #X#X@X#X#X#X#XM @X@Xx.#X+X+X+XM OXm c x 2 V S S S A V C g - 2 B ' 2 B 9 s ..] ..] ] [ ] ..]  .] ] s I Q x.x.#X#XOX#X#X#X#X#X#XOX#X#X#Xb k h f ",
"@ h k b M #X#X@Xx.@XM @X#X@XM #XM +X@XM N m c Z B B V D D K K K 9 9 3 t K t t i i 7.+.+.#.#.#.:.b.b.:.b.:.b.&.&.H.I Q T OXOXOXOX#XM #X#X#X#X#XOXb k 5 5 ",
"@ h k b M #X#X@XM @X@Xx.x.@Xx.@X+XOX@XT m c x C V A A D D K t i t t y 7.9.*.*.9.*.e.=.-.,.,.>.n.n.n.n.n.n.n.n.V.b.b.v.x.OXOX#XOX#X#X#XM #X#Xx.M b k h 5 ",
"@ h k b M #X#Xx.@X@X@X@X#X@X@XM +X+XT N c x ' V A S A D K H { { ] ] +.=.g.j.g.g.g.j.g.3.6.Z.Z.A.B.D.D.D.D.D.D.M.m.2.u.Q x.x.x.OXOX#X#XOXM #Xx.OXb k h 5 ",
"@ h k b #X#X#X#X#Xx.M #Xx.#X#X@XOXN m c C x C V D S K K K 7.+.+.#.#.;.5.5.3.5.3.3.5.E.3.E.E.E.W.W.W.oXoXXXoXW.D.M.n.b.G.v.c.x.OXOX#X#X#X#X#X#XOXb k 5 5 ",
"@ h k b M #X#X#X#X@Xx.@X@X#X@X#XT m x x C V A A A D K i ..7.q.5.1.1.<.>.6.6.6.6.Z.C.A.S.]. X X.XXXiXiXiXjXjXiXoXS.M.n.V.;.^ x.@XOXOXOX#Xx.#X#XM b k 5 5 ",
"@ h k b #X#X#X#XM M @X@X@XM T M N c x ' C A D D D J H { +.$.g.5.6.6.<.<.<.6.6.m.Z.A.D.W.qXiXwXwXtXjXhXkXzXxXjXXXW.A.M.m.b.b.c.x.x.M #X#X@X#X#XM b k 5 5 ",
"@ h k b M #X#X#X#X#Xx.@X@XM N m c c x C V A D J K H ..o.-.5.5.3.6.<.<.m.m.Z.Z.E.E..XoXiXiXaXfXpXhXhXzXcXbXzXxXjXXXW.S.C.n.;.b.^ Q #X@X@X@X@X@XOXn k h 5 ",
"@ h k b M #X#X#XM #X@X#X@XN m c x C V A A S K K H ..7.q.g.5.6.<.<.<.<.N.A.S..X XqXiXjXjXhXlXhXlXhXxXzXzXzXzXxXgXjXiXW.S.A.n.V.u.v.x.@X@X@Xx.x.OXb k h 5 ",
"@ h k b T #X#X#X+XOX+XM T N c Z B C A S A A D K i } *.t.g.3.<.<.<.m.M.B.B.W..XeXaXfXxXxXxXxXxXxXxXxXxXhXlXgXlXzXxXjXXXD.B.N.m.2.0.v.x.x.T M #X#Xb k 5 5 ",
"@ h k b x.#X#X#X+X+XOXN m c Z Z A D S A S S K H @.+.=.t.g.3.<.<.m.M.B.B.F.W..XwXfXxXcXcXcXzXcXzXxXxXhXhXdXdXgXxXcXhXXXD.B.M.m.>.b.0.I c.x.M #XM b k 5 5 ",
"@ h k b M #X#X@X+XOXOXU c C A ` ~ ~ S S D D D K @.X.$.t.5.3.<.m.N.B.B.B.B.D..XeXtXvXzXzXzXzXzXzXlXhXaXsXwXsXaXdXxXhXXXD.B.M.<.<.>.,.b.I x.M #XM b k 5 5 ",
"@ h k b @X#X@Xx.+XOXT c x B D ! ) ! ` D D A A t K { *.t.g.6.<.<.M.B.B.B.B.W..XqXsXaXhXhXhXlXxXxXlXaXeX5X9X0X0XsXaXiXXXF.M.m.<.<.<.n.;.H.c.M #XM b k 5 5 ",
"@ h k b M #X#X#X@X#XT m V V ` ) ) ! ` S V V C 8 9 H 7.t.g.3.<.<.m.M.M.M.M.C.W.W..XXXXXiXjXdXlXzXgXsX XE.E.[.]..XXXXXW.C.M.Z.3.3.<.<.2.v.x.@X#XM b k h 5 ",
"@ h k b M #X#X#X@X@XT U Z A ~ ) ) ! ` A C B g 2 2 9 7.y.5.6.<.<.m.m.m.<.m.N.S.S.D.D.D..XqXiXdXvXdXqXE.6.6.Z.Z.C.S.S.A.M.>.3.4.4.3.<.2.0.c.@X@XOXb k 5 5 ",
"@ h k b M #X#X#XOX+X+XU ` ` ~ ! ! ~ S C g - ; = 2 3 7.q.5.3.>.>.>.3.<.<.<.N.B.B.B.B.A.W..XqXiXjXiX}.V.6.6.>.>.m.C.C.Z.<.3.5.t.4.>.>.n.I x.x.#X#Xb k 5 5 ",
"@ h k b M #X#X#X+XOX+XU Y S ` ~ ` A g = - - - = = 2 K +.$.-.;.;.1.3.6.>.<.<.N.N.N.N.M.A.W.W.XXXX.XW.R.3.1.1.1.;.;.b.2.3.1.-.*.=.,.<.;.H.c.OX#XOXb k 5 5 ",
"@ h k b M #X#X#X#X@XT U Z ` S S D g & & & = - ; = 2 t { | } [ $.-.g.5.3.<.<.<.<.<.m.m.m.A.F.F.D.S.S.j.5.=.+.[ } :.&.=.4.r.*.X.#.,.>.2.H.Q OX#XOXb k h @ ",
"@ h k b @X#X#X#X@X#XE E Y S S S V - %   % & = = = 2 3 y u @.@.X.*.-.5.3.,.>.>.,.,.,.,.n.M.B.B.B.C.V.4.q.+.u r w r p o.q.q.o.{ [ ;.3.-.0.x.OX#XOXb k h @ ",
"@ h k b M #X#X@X#X#XT U Z S D D V -   .   % % % & * 1 r u @.u { X.7.$.#.;.#.[ ] ] ] [ ;.n.M.N.N.n.V.-.o.i t 2 3 3 9 p o.O.} @.} ;.5.p./ x.x.#XOXb k h @ ",
"@ h k b M #X#Xx.#X#XT U ` A S D V - % . .     X   * 1 r @.{ { { { } +.[ ] @.w 1 3 3 0 ] ;.<.m.<.<.;.+.{ t 3 2 2 - 3 t p { { { } =.-.u./ x.OX@XOXb k h @ ",
"@ h k b x.#X#X#X@X#XT W ! ~ ~ J V - % . X X X o o , 4 r @.{ @.@.@.u { @.u t 3 2 - ; 3 e #.>.>.>.,.#.[ e t 3 3 3 3 9 t { } } | O.=.t.a./ $X@X#XM b k 5 @ ",
"@ h k b T #X#X#X@X@X#X=X-X=X) ~ V ; % X O < 1 < < 1 w r { @.u u e u u u u r w 3 3 9 9 e #.#.#.#.#.[ @.e u H 7.K H ..7.+.$.$.$.q.r.i.a./ c.@X@XM b k h @ ",
"@ h k b @X#X#X#XOXOX$X*X,X,X-X! V = % X , 4 r r r r e u { { @.{ @.u @.@.@.u u y r y y @.] [ ] } ] @.@.] 7.e.y.y.w.y.r.r.y.y.y.t.g.t.a./ x.@X@XM b k h @ ",
"@ h k b M #X#X#XM OX$X*X,X<X-X_ V = % % > r @.{ @.@.@.{ { { } } | } } } } X.| | X.} } X.X.} %.%.%.%.O.9.s.z.z.z.z.z.l.l.l.h.h.g.t.r.0.^ c.@X@Xx.b k h @ ",
"f h k b OXOX+X+XOXOX&X*X,X1X;X! V = % X < r ] @.{ { e { } X.*.*.*.*.*.*.*.*.*.*.$.$.=.w.p.s.s.s.s.G.J.J._.5X6X5X`.`.[.~.U.l.j.g.=.*.8.^ T M #X#Xb k h 5 ",
"f f k b @X$X#X@XOXOX$X*X,X<X-X! V = o X > r { { { { e { } *.r.t.t.t.t.y.t.y.t.t.t.g.i.k.Y./.[.[.(.{.5X7XuXdXaXuX7X9X X].~.U.h.r.$.} H Q T #X@XM b k h 5 ",
"f f k b +X@X@X+XOXOX$X*X<X<X;X! A ; * * 1 r { { e e e p } =.t.h.h.h.h.g.g.h.g.i.j.j.l.T.[.]. X X X0XeXsXlXzXzXlXaXuX0X9X].~.j.r.+.} a Q R @X@XOXb k h @ ",
"f h k b +X+X+X@XOXOX&X*X,X<X-X! D 8 1 1 q r { e e e r e } =.t.h.h.g.g.h.h.g.g.h.j.T.~.[.]. X X9X0XwXsXgXcXnXmXnXlXaXuX0X{.^.j.q.&.s G L T x.#X#Xb k h @ ",
"f j k n +X+X+XOXOXOX$X*X,X1X-X! D K w r e e { p { { p {  .=.t.h.g.i.h.g.i.t.g.h.l.~.].[.{. X9X9XwXaXdXzXmXMXMXnXvXlXuXwX9X^.l.r.+.} G L #X#X#XM b k h @ ",
"f f k n OX+X+X+X+XT $X;X<X<X;X! K H ..| ] { { o.%.%.9.%.e.y.t.i.g.g.i.g.g.h.j.l.T.[. X X X X9XwXaXgXcXnXMXNXNXmXnXvXdXuX6X).k.=.+.} a Y T @X#XOXb k h @ ",
"f h k b OX+X+X+X+XR ( ;X,X<X-X! J H 9.$.+.}  .u.G.I.I.I.k.i.g.t.t.g.i.t.g.k.U.!.[.]. X X X0XwXsXgXcXmXMXNXNXNXMXnXvXvXuX0X^.j.r.+.] G Y T @X#X@Xb k h @ ",
"@ h k b +X+X+X+XW ( =X;X1X<X-X! J 8.w.r.O.]  .u.Q.(.(.(.!.I.j.g.h.h.g.g.h.l.~.[.].{.{. X0XwXsXdXvXnXmXMXNXMXNXBXvXlXuXuX5X^.j.r.%.] H L T $X#XT b k h @ ",
"@ h k b T +X#X$X%X=X-X,X2X<X-X! J 8.a.y.7.i H 7.a.I.Q.Y.Y.I.I.l.l.l.l.l.l.Y.]. X X X9X0XwXsXaXdXdXgXlXkXpXkX1X1X2XrX8X6X5X/.l.h.O.} H P ^ c.c.T b k h @ ",
"@ h k b +X+XOX$X&X-X3X2X1X<X-X! ~ 8.y.y.7.t 3 3 t a 8.u.G.I.~./.~.~.~.~./.].|.9X0X9X0XwXaXfXaXuXeX5X>XK.d./ _ ! ! d.f.Q.~.~.~.z.e.} ..8.0./ c.T b k h @ ",
"@ h k b T OXOX$X*X,X<XVX1X<X-X! J 8.e.e.7.3 2 & % * 1 s 9.G./.].].[.[.[.]. X9XeXeXeXeXsXhXfXsX9X`.I.e.a 8 ; : = ' K 7.w.l.~.[.Q.u.} { e.u.0.( E b k h @ ",
"@ h k b OX+XOX$X*X,X1XVX<X3X-XJ H 7.7.7.7.t 1 O o X O 0 p e.I.!./.[.{.{.9X0XwXsXaXsXsXdXhXfXwX`.I.9.r < O X   * 1 w i 7.w.Q.`.).p. .X.-.h.J.v.R b k h @ ",
"@ h k b M #X@X$X*X,X1X<X;X-Xd.H G t t s { [ [ 4 O     * < u u.p.k.U.~.{.eXwXaXfXlXgXgXgXdXuX5XQ.%.r < o   % O d ] [ @.t 8.K.5X`.a. .%.p.~.K.v.c.b k h h ",
"@ h k b OX#X@X$X*X,X<X,X-X) I H y 9 8 9 [ ,.,.] 0 7 & o , 0 s [ q.i.Q.`.eXuXdXlXlXlXfXdXuX7XK.e.p 1 O o & : 9 ] ,.,.[ 9 J d.5X4Xs.o.%.G.(.L.H.x.b k h f ",
"@ h k b M #XM $X*X,X<X;X) ~ H 7.} t 9 w :.n.V.s.H.P F 0 1 > 1 w } *.p.Q._.6X7XaXuXtX8X8X4XQ.0.i 0 > d 0 G ^ d.G.n.>.:.t J d.5X5XJ.9.=.I.{.L.v.$Xn k h f ",
"@ h k b M @X@X$X*X<X<X-X~ K H 9.$...r s ;.C.S..XrXrXL.b.:.d > > w } 9.9.a.J.4X9X4XK.K.0.a.0.H < > > :.b.L.3XpX.XF.n.:.y 8.f.5X5XQ.y.p.Y.}._.-X#Xn k h @ ",
"@ h k b M #X@X$X*X,X<X=XD C i q.y.$.} [ b.C.D.jXnXhXXXD.b.d O O 1 @.} } o.a.Q.{.!.a.7...7.{ 4 * O d n.D.XXnXnXiXD.A.;.&.9.K.qX5X).k.l.T.]._.H.x.b k h 5 ",
"@ h k b M @X#X$X*X,X<XH.V 2 i q.t.q.O.*.;.b.R.}.pXiXXXD.n.e O > w } X.X.o.p._.5X_.s.e.O.X.} q , > ] V.D.iXdXjX.XW.C.b.-.a._.6XqX{.T.l.~.~.K.v.x.b k h 5 ",
"@ h k b M @XM $X*X,X<X=XA 2 i *.t.t.r.=.;.&.&.G.J.J.G.b.-.] q w } *.$.=.q.Q.5XtXeX_.z.i.q.*.{ q 0 &.R.oX{.{.`.!.R.V.j.I.!.5X0X0X X[.~.T.l.f.v.T n k h 5 ",
"@ h k b M @X@X$X*X,X<X-XA 3 K e.g.h.h.y.*.&.%.8. .0.a.G.p.%.} | *.y.g.y.i.'.7XfXsXqX[.!.l.y.*.} ..G.'.`.(.!.z.k.k.I.Y.(.|.9XeX0X9X].~.l.k.a.) T b k h 5 ",
"@ h k b T #X@X$X*X,X3XH.J t { e.h.l.U.I.s.f.d.K.H.J._._.Q.s.u.y.t.g.g.g.h.`.tXlXdXwX X[.l.h.t.w.u.Q.5X6X9X5X4X4X4X5X6XqX0X0X0X9X{.[.Y.l.i.a./ T b k h @ ",
"@ h k b M #X@X$X*X,X<X-XH i } q.h.U.T.(.5X8XrXrXpXpXpXtX6X4XQ.I.j.h.g.t.h._.tXlXgXsX0X(.l.h.h.l.'.5XwXfXfXfXlXlXlXlXgXdXsXeX X X~.U.l.j.i.0./ T b k h f ",
"@ h k b M @X@X$X*X,X3X>X8.} +.y.h.U.[. XwXaXxXbXBXbXbXgXsX9X`.~.l.k.g.t.h._.uXlXlXaXeX`.z.l.l.~.{.qXjXxXbXmXMXMXMXmXbXvXdXwX X(.I.h.g.g.i.a./ x.b k h h ",
"@ h k b x.@XM $X*X,X2X>Xa.O.+.*.y.l.[.9XwXdXvXmXMXmXnXdXwX9X[.(.`.4XQ.h.k._.uXcXvXaXwX6X5X4X^.(.].}.wXhXcXmXMXNXMXmXnXlXsXeX X/.k.r.=.t.i.0./ R b k h h ",
"5 h k b OX#X#X$X*X,X2X>Xs.q.+.o.%.s.(. X0XsXdXvXnXcXdXwX9X(.z.^.5XtX5Xz.z.4XfXmXnXdXwXwXuXuX5X^.Y./.|.wXdXzXbXBXbXcXvXaXwX0X X~.p.%.%.-.t.a./ x.b k h @ ",
"5 5 k b M OX#X$X*X,X<X4Xz.i.$.X. .p.~. X9X0XuXaXhXaX0X{.~.l.h.Q.6XuX7X^.z.4XfXmXnXdXwXuXfXuX8Xz.i.l.~.}.eXaXlXcXvXlXdXwX0X9X{.T.u. .X.*.p.0.( R b k h @ ",
"@ h k b M #X#X#X&X*X,X>XQ.l.q.}  .e.I./. X9X0XeX7X5X_.I.i.q.q.s.4X6X6X`.`.eXuXbXvXdXuXuXuX6XK.s.e.q.p.I._.5XeXuXaXaXuX0X9X{.[.k.=...a 8.0.d.c.T b k h @ ",
"@ h k b #X@X#X#XOX&X&X-X_.!.i.7.} $.i.U.[.{. X{.'.z.a.e.o.} X.9.s.z.4X5X9XuXuXuXaXuXwX9X`.Q.s.9.X.X.o.e.a.z._.5XuXuXeX9X{./.l.i.%.] H P Q c.c.T b k h @ ",
"@ h k b OXx.#X#X#X@Xc.H.K./.s.o.} O.r.k.T./.).P.p.q.O.} { { } O.q.h.z.`.5X6X6X6XeX7X5X`.z.i.=.O.} { } | $.y.s.'.5X6X9X{.[.T.h.r.O.} G L x.#X#XM b k h h ",
"@ h k b #X@X#XOXOXOXx.H.J.Y.p.X.} O.-.h.k.s.s.y.q.O.X.@.{ } +.$.q.t.k.J.z.4XK.z.J.K.J.s.k.t.=.$.O.+.o.O.$.$.q.s.J.Q.Q.^.U.l.g.-.+.] a L T @X@X@Xb k h @ ",
"5 h k b OXx.#XOXOXOXc./ G.h.=.X.} O.r.t.w.%.O.o.X.} @.@.X.O.=.y.t.g.y.e.9.9.9.9.9.9.9.e.y.g.y.r.q.y.r.=.$.o.o.o.9.e.p.j.l.l.g.r.O.} G L T @X#X@Xb k h @ ",
"@ 5 k b #X#X#X#X@XOXc.) 0.y.%.| } %.q.r.*.X.@.@.u u r y { 7.y.t.h.t.r.*.7. .7.7. . .o.$.r.i.i.i.y.y.w.=.o.{ u @.{ | *.y.g.g.i.r.%...G Q x.#X#XM b k h @ ",
"@ h k b M #X#X#X@X@XR ( d.a.8...} X.$.*.$.$.} u q 3 < 1 q H 7.e.y.y.i.t.w.e.w.w.e.u.w.w.g.t.y.a.8.7.i i t t t r } $.=.y.g.g.g.w.8.P L E E #X#X@Xb k h @ ",
"@ h k b x.M #XM OX@XR W _ d.8...{ { } X.$.q.9.H 3 2 * * * V J 8.e.t.k.l.!.^.Y.Q.Y.!.Y.I.h.g.9.8.K V < = , 2 3 i 9.t.t.g.g.g.t.a./ ! E +XM #X#XOXb k h @ ",
"@ h k b M #X#X#X#X+X#XW ( ! I ..u @.{ { *.y.q.H 3 = % o & ' S 8.d.z.Q.(.`.{.{.9X|.}.{.).l.s.a.I S ' & % % = 3 7.y.h.j.h.g.g.g.a./ W OXOX#X#X#X+Xb k h @ ",
"@ h k b M #X#X#X+X#X#X$XW ( P H @.e @.} *.y.q.7.t 2 & % = C ` ) f.K.4X4X6X6X6X6X6X6X5X8X4X>Xd.) ` B & % * 2 K 7.l.l.l.j.g.g.h.a./ R @XOX#X#X#XOXb k h @ ",
"5 h k b M #X#X#Xx.@X@X#Xx.W P H u @.@.} *.y.r.O.@.9 < = g A ! -X;X3XrXrXrX2XrX2XrX2X1X1X2X3X;X) ! A - = < q 7.e.!.~.l.j.g.g.g.a./ R @X@X#X#X#X@Xb k h @ ",
"@ h k b #X#X#X#X@X#XM @XM R L H } @.@.} $.y.y.*.} @.9 2 C ` ) -X;X1XyXyXyX1XkXVXVXpXVXVX1X1X,X-X! J C 2 9 i 7.s./.[./.l.h.g.g.a./ R @XOXT #X#XM b k h @ ",
"@ h k b M #X#X#X@XM M @X@XR P 8.+.X.@.} *.y.g.r.*.7.y t K ~ ) -X,X<XVXpXkXkXkXcXkXBXkXkXkX1X,X-X) ` K q y 7.y.l.[.].[.~.l.l.h.a./ R OX@X#X#X#X#Xb k h @ ",
"5 h k b M #X#X#X@Xx.#X@XM R / a.q.+.} } *.y.h.g.y.=.} i H ~ ) -X,X2XkXkXkXcXBXBXNXBXBXkXkX<X;X-X) I K u X.q.h.l.].].].]./.l.h.a./ R @X@X#X#X#XM b k h @ ",
"@ h k b M #X@X#X@X@X@X@XOXW / a.t.$.} { O.q.t.g.g.r.7.} ..H ) -X3X2XyXlXlXcXmXMXNXNXBXbXkXrX>X-Xd.8.7.7.*.y.h.l. X X X X[.T.l.a./ R OXOX#X#X#X@Xb k h @ ",
"@ h k b x.#X#X#X#Xx.@XOXOXc.d.a.t.$.} { X.O.*.t.g.y.+.} u H 8.d.>XrXuXfXdXvXnXmXMXNXBXcXlXrX>XK.0.9.9.O.q.y.j.^.{.9X9X X].T.j.a./ W OX@X#X#X#Xx.b k h @ ",
"@ h k b M #X@X@X@Xx.M @XOXW / a.t.$.} { { { +.q.y.y.$.} @.i 7.0.K.tXuXuXuXdXlXcXcXbXcXxXtX7X4Xz.s.y.y.y.g.g.l.^.9X0X9X X[.l.h.a./ R @X@X#X#X#XM b k h @ ",
"@ h k b M #X#X@XOX#X@X@XOXW / 0.q.*.X.} @.{ } 7.q.q.$.X.} } } 9.Q.5X9X5X5X6XtXtXpXtXtXuX7X5X`.z.l.j.h.h.l.z.z.5X0X0X9X[.~.l.i.0./ R @X@X#X#X#XM b k h @ ",
"@ h k b T #X@Xx.@XT @X@X@XR ! I 8.e.e.7.} } { } 7.$.*.*.O.$.*.q.z.'.'.J.s.K.K.K.K.>XK._.'.^.^.T.l.l.T.~.[.5X6X7XwX0X9Xl.l.h.q.8.P T @X@X@X#X#X#Xb k h @ ",
"@ h k b x.#X@Xx.#X@Xx.@X@XT Q ` J 9.q.r.+.} { { } X.*.y.y.t.y.t.h.k.p.e.8.%.8.8.8.8.8.e.s.l.!.~.].].]. X9XuXfXuXwX0X`.z.g.q.o.H L R @X@Xx.#X#XM b k h @ ",
"@ h k b M #X#X@X#X@X#X@XM T E ` ~ 8.e.*.$. .X.@.@.} $.q.y.g.g.j.k.k.s.e.%.| } } |  .o.e.i.z._.{.9X0X9X0XuXdXdXuXeX5Xz.i.q.+.+.H P R M @X@X#X#XM b k h @ ",
"@ h k b OX#X#X#X@XT #X@X@XT W Y ~ J K 7.7.$.$.X.@.@.+.7.q.t.h.z.^.).'.I.p.u.e.*.=.w.s.I.Q.`.9XeXuXuXwXuXuXuXwX9X`.z.z.q.7.$.+.7.^ T @X@X@X#X#XM b k h @ ",
"@ h k b OX#X#X+X+X+X+XOX+X+X%X( ! J V t i q.y.7.} @.{ } +.=.g.z.`.5X9X`.(.P.i.i.j.U.(.`.9X0XuXaXfXlXlXaXuX0X{.).z.i.*.o.o.$.r.0./ R @X@X#X#X#XM b k h @ ",
"@ h k b OX#X#X#X+XOX+X+X+XE %X) ! A - 2 i 7.*.*.7.} { @.} O.q.z._.`.`.{.[.Y.k.y.s.T.]. X9XeXuXdXfXlXuXuXeX{.~.l.i.*.O.X.O.w.k.J.v.x.OX@X#X#X#XM b k h @ ",
"@ h k b T #X#X@XOX+X+XOX+X+X%X( ! V & & 2 t 7.7.*.$.7.@.{ } O.e.a.f.J.Q.Y.k.q.=.w.j.Y.]. X0XeXiXwX7X6X5X).!.l.y.*.O.+.$.q.z.'.K.H.c.@XOX#X#X#X@Xb k h @ ",
"@ h k b @X#X#X+XOX+X+XOX+X$X( =X! V & % & - 9 7.q.q.+.@.@.@.@.7.} o.e.y.i.y.%.X.%.r.k.Y.(. X X X{.).z.z.z.h.t.q.X.X.O.q.z.).}.8X:X$XM @X#X#X#XM b k h @ ",
"@ h k b +X#X#X#X+X+X+XOXOXT %X( ! V & % % & 2 i 7.*.X.{ @.u @.u u @.X.$.q.$.} } | *.r.j.I.!.!.!.!.z.y.q.q.r.$.$.X.O.e.z.^.|.eXrX:X%X@XOX#X#X#XM b k 5 @ ",
"@ h k b OX#X#X+X+XOX@XOX+X$X( ( ! A = % % % & 3 K i i @.@.@.@.@.@.@.{ +.O.o.} { } X.O.e.w.u.p.u.w.q.$.$.+.X.$.+.O.w.s.^.9X0XeX8X:X$XOXOX#X#X#Xx.b k h @ ",
"@ h k b +X#X#X#X+X+X@X+XOXT %X( ! D ' = %   % & 2 3 q u @.@.@.@.@.@.{ @.{ { { @.@.{ { } | ..| } } ..} { } } } *.y.h.).5X0XwX0X8X:Xc.OXOX#X#X#XT b k h @ ",
"@ h k b OX#X#X+XOX+X+X@X+XT W ( ~ A C - &     % = 2 K K 7.i t t w q q q q q q w q q q q q q q q q q w y u } 7.q.h.Q.{.eXwX0X5X>X=Xc.OXOX#X#X#XT b k h @ ",
"@ h k b T @X#X@X+XOX+X@X#XM U Z A V V ' = %   % = ' K J I K 3 < < , , * , , , , , , , , , , , * * < 3 9 u o.q.j.U.(.9XeXeX9X`.K.H.c.OXOX#X#Xx.OXb k h @ ",
"@ h k b T $X#X#X+X+X+X@X+XT c x ' V A C = %   % = C ` _ _ D 8 = &   X X X X   X X X     X X X X o & = 8 i e.i.U./. X9X0X9X).z.a.v.x.#XOX#X#X#XM b k h @ ",
"@ h k b @X#X#X#X#X+X#X#X+XN c x 2 C A V = %   % = C J ! ! S V - & %       . . . . . . . . X % o * & = 2 i 7.t.l.~.].9X9X5XQ.y.9.^ x.x.OX#X#X#X#Xb k h @ ",
"@ h k b M #X@XT #X#X@X#XOXT c x - C A A = %   & = B A ` ~ ~ ` A g & & & & %   . . . . . % & < < < < ; 2 9 ..*.y.l.Y.{. X].z.*.8.P x.M M #X#X#XM b k h @ ",
"5 h k b T @X@X#XOX+X@X@X+XM c x ' C A C = %   % = ' V A ` ! ! ~ V - = ; = & %   . . . % & 2 3 w r 9 2 2 9 y o.*.t.l.~.[.~.u.&.s L x.@X@X#X#X#XM b k j @ ",
"@ h k b @X$X#X#X+X+X@X#X+XOXm c C V V C = %   X & = ' V S ~ ! ~ A C ' - - ; * * O O * , 3 3 3 t t 9 C 8 t ..O.=.t.j.I.P.G.0.I G Q x.#X#X#X#Xx.#Xb k 5 @ ",
"@ h k b M $X#X#X+X+X+X+X@X+XN U m c C g & X .   % & = B V S ~ ~ S A C ' 2 2 < 4 4 4 4 q w t t 9 3 F V F H 9.q.g.g.g.r.u.9.I L c.x.M x.#X#Xx.x.@Xb k h @ ",
"@ h k b M #X@XM +XOXOXOX+XOXOXOXU c g = %     .   % & = B V A D A A C g ; 2 t w y r r u r r 9 2 2 ' V D 8.e.y.t.p.-.%.&.H L x.M M M OXOXOXOX@XOXb k h @ ",
"@ h j l n b b b b b b b b b b b n v v $ % + + . # + + $ : v c Z c Z x 7 : 7 8 9 t 9 9 0 t 8 8 7 7 v x Z K H 8.8.I H s 0 8 c b b b b b b b b b n l j h @ ",
"5 h h k k k k k k k k k k k k k k z j $ $ # # # # # # $ $ z z z z z z f $ 6 v 7 7 7 7 7 7 7 6 6 5 j z v v x 8 x 7 F 7 7 7 k k k k k k k k k k k k j 5 5 ",
"h @ h h h h h h h h h h h h j h h h h @ h @ @ @ @ @ 5 @ @ h @ h z f f f f 5 h $ 5 5 5 5 5 5 5 5 h 5 5 h 5 5 j 5 5 j 5 5 5 h 5 h 5 5 5 5 5 h h 5 5 5 5 5 ",
"@ h @ @ @ @ @ @ @ @ @ @ @ @ @ 5 @ @ @ h h h @ h h h h h h 5 @ @ @ f f f @ h f f 5 5 h 5 5 h 5 5 5 5 5 5 5 5 5 5 5 5 5 5 5 5 5 5 5 5 5 5 5 5 5 5 5 5 5 h "
};
