/* XPM */
static char *result[] = {
/* columns rows colors chars-per-pixel */
"60 60 78 1 ",
"  c #29251F",
". c #2D2C1D",
"X c #312F1F",
"o c #2E321C",
"O c #32341D",
"+ c #363D1D",
"@ c #3B3F1E",
"# c #2B2721",
"$ c #2E2A22",
"% c #322E25",
"& c #332F29",
"* c #343423",
"= c #393626",
"- c #363A22",
"; c #3B3C24",
": c #36322A",
"> c #3A352C",
", c #373928",
"< c #3D3B2B",
"1 c #3B2F31",
"2 c #3C3731",
"3 c #3E3A31",
"4 c #463A26",
"5 c #493F23",
"6 c #413D2D",
"7 c #4A3E2F",
"8 c #403630",
"9 c #433D34",
"0 c #493E34",
"q c #453E38",
"w c #493F39",
"e c #37421F",
"r c #3B421D",
"t c #374221",
"y c #3C4223",
"u c #3D4922",
"i c #3E4229",
"p c #40471E",
"a c #414425",
"s c #484526",
"d c #434B25",
"f c #43432C",
"g c #48462E",
"h c #454A2B",
"j c #4A482E",
"k c #5B4829",
"l c #465126",
"z c #454234",
"x c #4A4435",
"c c #464831",
"v c #4B4A34",
"b c #47413A",
"n c #4C453C",
"m c #4E493D",
"M c #514D35",
"N c #51473D",
"B c #52493D",
"V c #5A4A3D",
"C c #475033",
"Z c #4C5032",
"A c #49503A",
"S c #54503B",
"D c #4F3944",
"F c #543E48",
"G c #4D4641",
"H c #4E4941",
"J c #514641",
"K c #534A42",
"L c #594D45",
"P c #564E49",
"I c #594E49",
"U c #575045",
"Y c #5A5144",
"T c #57504A",
"R c #5C524A",
"E c #61544B",
"W c #63584E",
"Q c #6C5E54",
/* pixels */
"mxx6GKPJJKKKGzzJGJKKJGGJJnx>Gnnb9nnnzb>xnHGGxf<*bzzqzbxxmNxv",
"NxmqJJPJJJKJmxzKJJJDnLGGJNx,bbHH8nBxi6*6iii28xm8nGxbzz0nmmNN",
"KxnqKJKKnKKKxx9HGqnJKKJnBKn-ibHH2nn9;jhgvvCv:VVxqKKHnnxmKRRI",
"BmB8GJPwqnGJnn%99LJLJGGKKmb-22qq888,xLGmBBBn%MxN%nJKKnzKRKKn",
"mBB2GKwwbmnGJx%BJJLGKKKKKmb&GGGGGGzihmbGHmGn&mVN:KLBKLKLKKJn",
"nKJ2GGwGDnnJKq:JGNnJPTLKKHb,bGbDGbzc<nGGGGnn%NxV$bBvBKKJHKKG",
"KNB:nbGGnnKJN8:JNJnKKKNNKBG&3GbHGGGb3xxzbGxxO=xL#$=gqnvKKKLK",
"q6;%nJJGNxnnqz&NNnNJKJJNKmi-,3i23q3<inxbnbnn-+xY2<*6<4fq8qq8",
"xmN*xKKnKz>9n9:NNJnNNNJNnnzt<*;xBN7%qbnnGnHmO+zQWEWEYLVYYUYU",
"nmm,>KRLI9xNm9%nnbNnnw9==b9yxxxmNNx%xNxnwnnqeo6EKBBKKLLBNBBM",
"nHnf%nRLN0NNBz9BNKILIIn-<x<*6<f986>#9xxnGbq<rozIKNNNKKBNmnmm",
"nxK6%bN7bNNBB96MsBGGGLG=O=;,nzqbnbx*9zxGGGqf+.KKNKnNJBnnmmnx",
"nmn;.n0NNJNLB7>kxNnKLPG6,<iivxxnnxN9nmbnGnnxe6KBBNNNNnnKmmNm",
"nJm< bN0mJKLm745vBKKLKb;aySxnxbxxxBxwBNnbGKK;qLKBNNmnmnJNnnn",
"mnN>$nNNnNNBm9;axKKbJKb;drjvKmHKmmKw3HbbnJKLx8KKNNNmBnBnnnNm",
"nBKG%x0xxxxmv7yaBIKKLJbXayvmmKKKGxKG2GnnnNBBK8KBBNNNnHnGnNnm",
"JJJG:64,<7ixf<,gLKnJKNb%+@mKLKKHbxHn2GnHnnKKK:nMNmnnGGGGnGnJ",
"PJKxyi;**OoO-$=fBbnNJKn6@smmHKGzxxHG<GmnGLKVK&fxZBmKmKKPPJLJ",
"bz6yaf,4RvNNKw yfinnnnx<rrfvKKxHHHvm2GGnKBBBK*yt;<22qqq89wq8",
"mnmmnm0>LmKBL0 *<z989zmxf<<hvmmGmvjh<GGGJBBBH-y<6<.&9qqqwqwn",
"GKGnnNw1LKKBLn scHnLILLUVN%%-+*&%*;*,9zz9z>=<e-46f:xLGJKJGJH",
"JGnGnmG>LLLKKN%sxHLLKKLBVx0VSBSLLbNLIKKKKLn7;irfare7xJKRPKKJ",
"JDGnDnN8LKKBNn*tmKKKJnNBBnNNNJBNJ9NLLGKKnPn9>6ahhlraJJLJNnGJ",
"nNGwNnw0LKL0Kn,inKJnGGJnNxxwNnn0c>NKnnnGGPq>=4;p;++@bNnJnNGG",
"GnqwGGb2BxnxHmjznnnKKGnBNN0nNNnwx<nKnnnJHK8q8=Ot=-.xnnGwNnnG",
"JGwnbbn2bbnxmxyfKKGKNnBBVB>090009<BHJnGGHHb8>:*><>.bnnwJGnJG",
"JGwwwwn2HGxxhy,qKGGnGmmnYNzNnnbNn9mKnnGmGHn%o.>2%%*xwnNDnnnb",
"GwnwGGw>mHxjd;aqKGKnHnnGgz6mwNnnH8xnGGGnnGJ9-xBRKnz>nnvxmGnn",
"q99q239:nxxh;yu9HGHHHKKmi<9nNnnnHzcHGGGJHmGi=7xPnBb$>9tfbqq8",
"Oo*O$$#%z8z<6,->GGGGHHHHz<<xnnNGm6>>%&&:232:*6mHGm9*966z9989",
"fi*bnnnbbxxbbzx6<8292::bb<8nnJGnn9;fnHBN9nPbOnLIKx40KKKBBmmm",
"Hm,HGGGGJKnmBNm6=cxBLn,GGb6nnnGNn2*zKKJB0nBb*KIPPPz9ILKKLBNm",
"UH<nnxKKnHnBHGK><09xMw9KGb3GNnJnH2zKKBBVNwx7%LPPPPK8ILKKKKKB",
"Kn<qKLKBmnNnnmm<fmxxwNqJKw3nnnmGG<qHKx0YN0x;%LPPPPP>PKKLRRRU",
"fz<KLKKKGGNmmmv:*9znNq4qG2:9qq>88&:62:<i:$%X*UUPPPJ &:><<9zx",
"axzKLKmmBnnmmm;*>09>8*>>>:$$xNNnNBnbxnHHBVKLzUTKIPN982-*Kmfj",
"zx3mLnmmmHnmGmz3mKxLEYUYKUR>HGnnNnnGbHbbbmbn<xxUNB8x06;@xzs7",
"xm9nKBHHmbmnmnx>BKGKLULvmLK>BN0nnnmbnHHHHHHmz$*&%%%q96;;xNxn",
"mx>bKKCHmmnHmnm:NKxKKUPKKKP:BN0nGGGGHHHHHHHnG:nLEEELLUv,nnxn",
"bm>$qzhivmmbmmm&xnnBUKUKURK>nnNnBnnGHbbHHGnGG>NNBNNLBBx>nNNm",
"nn>*-O-tt<-*,;,O3z3mLKUUPLJ8JNVVBBmbGGHnGbbHH>nHLBVBMBx=wNnn",
"mf9y6zucyzxmmB6O$:*HKUHHPLL>NVwwBmmbnmGGHHHHG>nBLBBBBVxe6nGn",
"f,*tfxvHcvvUBvBy;;*<cbGLPKL:NLKVNNHbmGnJnnHbn:mNxvBLLVvu<nnm",
"=,8xsmKBmCBSvvNy@;>zbxmLRKL&VLKVNnnHbGnGnHGGG:mmmvBBBBve>nb9",
";fNINmNJKvNmmvv;O4&3nfhKKmB>JILKNxBNbmnnbbbGG:KmmmAKBBc+<n0z",
"ffGPKxnKHKxmxxx;t,@O*,fvft*DJJKwxVNvxnnGbqGGG>nHHAHABmve6Gbq",
"6fwKHmHKKKn2<9cfy;;=*:8zf7,2Jww9qBNvHHnbbnGGG:mmHCAHmBv+7996",
"fqqhhmHHmHKJnmmnv,6KnKKnNNq%8qwq>::>:::::>::&#<ACitcijae479z",
"a<raamHHnmHnKnnBx,&bnnnnGG89qwnnNnnJnn:NNnnmnn2:*+uuuytd<<ya",
"fsrr7HKmxnHnmnJnc3:xGnNGbGn2bGKKBKGnKb&nnHnxxn9Ofhjjyyy;<xcv",
"nztybKKmmnGmGnNnzy>mnnnnnnb2nwJnBNKLI0&Gnxmbnnq<RTTKKKmxJJJJ",
"xmx;xHHHHHKmNnnNbi>BJGnGGxH>98wJKBKKKn>nmmmnnnz;HnKHGzcHGGGn",
"nnn;cHHHKHHKnmnnx<>BnnDbDbz:89mKBKKKKH>BKnnnnnc;HbGnbfxnnGnn",
"KGnfzHHHnnHnxmBxhc*nNnGbGwm<qbKKKBGJKH>BnwxnnGz;HHbzvHnGGnnm",
"KnnfzHPHnx8xNNBz;<*xGbnbnGb>zJKKKNGGnm>bGnbnnGnyPHxmnnnGGnmn",
"GGny-zKHxnn9nxx6s=:HnGGbnnx>bJJKBKGnnm&nnmnnnnm;mH9mGnnnJnnN",
"GKn,:>nwwqq>>-,>*&:GHnnHHHi2nbJKKNnmmN%nHnnnGnnynbvnnNKBnGnN",
"KnB6&JIIRIIRK<%*>$:BKxbGGb22mnNNnmnx0x&NnnGnnGx-cbzGBBnmnKJG",
"Nnm>8KKKJGKJB6%>:% 2q2q833##%&$& %%%%%%NHbnnmbm,z<znKJHnnKBB",
"mNm>GPPJnGPKNf=NNxnbn<80Gxb&3nmn:NNxmw%NHGGGHnx>qz9bGmnbnJmn"
};
