/* XPM */
static char *result[] = {
/* columns rows colors chars-per-pixel */
"60 60 27 1 ",
"  c #15140F",
". c #18170F",
"X c #17190E",
"o c #1A1C0E",
"O c #161511",
"+ c #191712",
"@ c #1C1B14",
"# c #1E1C19",
"$ c #211E16",
"% c #221E1A",
"& c #1D210E",
"* c #1E2112",
"= c #20240F",
"- c #212215",
"; c #2E2415",
": c #232813",
"> c #26221D",
", c #29241E",
"< c #25281B",
"1 c #2A281D",
"2 c #271C21",
"3 c #2A1F24",
"4 c #272320",
"5 c #2A2521",
"6 c #2D2824",
"7 c #312A26",
"8 c #342E29",
/* pixels */
">>>%455555552>>,453554445,-@4>>>%>>>%>@>>544,$@@%>>%>>%>>1>>",
",>>%54553554>>%454424452,,>@>>44%>>>$$@%***#$%>$%,%>%%>>,>,,",
"1>,%55555554>>$12%,4554,,4>@*444#2<#o---><>>@,,>%6544>>>5666",
",>,%4552%%55>>.%%655,5245,>@###4#%%@>561154<.,,,@%454>>;755,",
",44#452>%3,44%O,5454556555>+444444>--4>><44%+,,,+65156455552",
",54@44>>5%445%$5,554665555*@%24444%-%>>,44,>+,15+%1>,5554554",
"455@4>4%44554%$2,,,4555,554##444444-$>>$%44>@$;5O+@-%,,,5564",
"%%@+>4544,%,%%+4,2,4453,54*X@####%%@%>>%4%,>@.-6#@@$$$-%%%%%",
">>1+%55,5%$%,%+454,,44,,44>@@@@>,,%+>>>>4>54oo>887877667666;",
"1,1@$5757%%%,%+,%%>,,%%@@>*&<->>,,%+>,>>%44%&X$744,5,7,,,,,,",
">,4%+,765%,,,%$5567575,@@>@@##*%%$$+$>>>44>@&X%74,,45555>,,,",
",,4@+%,$%,55,%%;-54445,@X@@@>-%>%,%+%%>>44>*o 55,4,,5%,%,>,>",
">44$ %%,,5,6,$$;;>>4664$@$*-<>-4>>>$>>>>%4>>&%15,55,%555%,4,",
",4,@ >,,%5,6,$&$>,5555%$--<>,>%>>>,>4>,>4441@%555%5%,55%,,4,",
">44$O,>%,,,,,%$=>44445>o==->5,45><5%#4>>,545>$54,,,,55,5>,,%",
",>44+%%,,%>,;>=-,75454> -&,<5555,>4>%42,%,555%51,,,,%5%5444>",
"454>.$$$$-*>$$@-55,,45%.o$,45554%>44%>>4>4555@,,,,44444444,,",
"554>$$o.@...@.@$,,%4144%&-11554%>4>4@4>445555+$>;,4445465444",
"%>----$$7>111% $--44,>>@&=--55,45<>1#444,,6,5+-o@@%%%%%2%%%%",
"1,,>>>%+5>556% o$%%%%%>>$$$-<,14>>-:@4455,,,<**$%*++%%%%%2,5",
"44245%5$655,5,O->>5575667,++@o.@+@@@@%%%%%%$@oo---@>74546445",
"44,4,,3%5,6641+->155555,;%%,,,165%15564657%%--o-**&@%5576554",
"544,3%%%75,,5>@*>5544,415,,5%,,,,%555444,54%@$$-::&-55754425",
",42%5%5%,56%4<@->445,45,,%,%5,,%%$,5,4,4,5%%@$&=*&o@%5%%,444",
"42%2>4%%4>>>>,>*4>,544>,,,%,%,,%>@,4>,4444%%@@.@@@ >>,2>4444",
"44>%>4%#>>>>>>@-44444,4,66$%%%%%%@,5>4>444%%@@@@@@+>>>,4%,42",
"42>%>24#<4>>-=@%544,,,,>6,%,,%534%554>4,45>+. @#++@%,4%4,44%",
"4,>>>4%#>>>--&*>544,4444$$$,%,,,4%->4444441%@>575<%@%%>>,254",
"%-%%%##@,>>-o**%54454554-@%,55%54%>44454444%@->5>,%+$%@-%%%%",
"@.+@++OO%%-$-@@@44444455%@$4%5,5<$@#O#++####@@>,4>>@%$%-%%%%",
"-@@%>>4%%,>%>>>##%%%%+@%>#$%355%>%@$45,,%>4>+>665>$$55555,,,",
"5<@44444444>>1<%@-%154@44>$,,%555@@%155,%>,>@56565>%55554411",
"54#<,,,54,,4444#@>%%,,%552*444444%%,55,6%,%$$577664245556545",
"54%%65444,4>,<4#;%$,,>%452#44544,%%44>%7,$$$.555565#65456666",
">-#56555,>4,<>>@$%%%%%$%4#@%%%+%%@+%#+@#$.+.+666565 #+##@>%>",
"->%554<4,2,>,>@@%%%@$$$+#+OO%,,>,4%,>><>%656%66566,%##+@,>->",
"->%,5,444<,4><%%,4,67666555#54,,4,4>4>444>>>%>>145%%>$$=>--$",
">>#>5,444>>>>>>#,544661>555@54%44>>44444444,%++++++%$$@o>,>>",
">>@>55<<4,>5>>>@15>44656665#1,>%4444444444444+,5777756-@%,%,",
">>@+%--><<>>45>+%>>,6565555#%4,,,%4444>>44444$,4,,15,,>@,,,>",
">>$@@@*@@@@.@@@.$%%<5665753+,,,34,>>444444444#%5114,;5>@>>44",
"<$$o*-*-*->1,1-o @@>5554555$,,,;4<>>4>444>>44@45615,15>&#4>>",
"$@@@*<<5<>>1<>1@&$@#>>,6757$%75,,,4>>44>4>4>4+,,>>4655,=@,4>",
"@@%>-,,54><1,>1*o@@-%><4665%%76,,,4>44>4>4444+,,4<<65,<&$>>-",
"@-,6,>144<1>,,-@.-@%%--5415@5755,,,,442>44444+54<4465<>&@>%>",
"->45544454>>>---&@oo@$-<-@@2553%%,,>->>4#*244#,5444*44-&%>>%",
"%-445>5555>%@%>-@@o$@@$%>%@+3%%%%>>,444444%44@>45<44<5;&%%%$",
"-%>--<44>554>1>1<$@4>54,,4%+%%,%$@@@#+#O@###+ #<:**>---o$%%-",
"-@&-=45>>,4>4,>4>@+>>,>44%%%%%%5,,%55%%%,%4>>,@@@.*&&**:@@**",
"--&&%154>>5>>4,4>#+>44%,4>4%%45554455%$54,,,>%%@--><***&*>>>",
"<>&&>455>,4444,4-@@5,>44>4%#4244,,557%+2>>>>>,%-665554<45554",
">>>@>4544554,>,>>*@54,422,4@%%%55,5544@44<>>>4%@54544>-4344>",
">44#-5445444,>,>>@@54>4>>%>@%%155,5455%,54>>>,-@5%44>*444,>,",
"4>4*-545>><4>>,>--@>,2%44>4#%%45554444#14>>>>>>-54>%><>44>>>",
"444*4655,>$%>><%*$+44>4442%%%555,5444>+24%>>>4>@55>14>4>2>>>",
"444*@*54>>>%,>>%-@X442>>44%%%4555,44,1+>4>>>4><*44%4%4>,44,,",
"44<@##%2>4%#@@@@@++44>4444*#>%55555,,,+44,>>4>>@4>>44,5,4,%4",
"54,%+46665655$.@@+@55%>44>##>444,%,%,%+54,>24>>@>->>,5,,,445",
">,,@#55544555$+#++ #%%%%##OO@+OO .+++++5444>>>>@>#*4444<,55,",
",>,#365445554$@4,>>%,#%%4>4+#444$>,>%%$%>4444>>###>%444>,2,,"
};
