/* XPM */
static char *New_Project_2_1678885818[] = {
/* columns rows colors chars-per-pixel */
"100 100 60 1 ",
"  c None",
". c #938177",
"X c #90847D",
"o c #9E877A",
"O c #AD827A",
"+ c #A7887F",
"@ c #AF8F7D",
"# c #B3867D",
"$ c #B18F7E",
"% c #B2907F",
"& c #9E8A89",
"* c #A68885",
"= c #AB8880",
"- c #AD8F8E",
"; c #AE9382",
": c #AC948C",
"> c #B59381",
", c #B99684",
"< c #BD9986",
"1 c #B59B8C",
"2 c #BD9B89",
"3 c #A79C9F",
"4 c #A89F9F",
"5 c #B59E91",
"6 c #BB9E91",
"7 c #BBA192",
"8 c #B3A39D",
"9 c #BEA99E",
"0 c #AAA1A3",
"q c #B7ADA7",
"w c #BAADA5",
"e c #B7AFAC",
"r c #B9AEAA",
"t c #BCB3AD",
"y c #BDB4B3",
"u c #C29387",
"i c #C19C87",
"p c #C49688",
"a c #C19D8A",
"s c #CA9D8B",
"d c #C6A18E",
"f c #CEA58F",
"g c #D0A68F",
"h c #C6A391",
"j c #CFA690",
"k c #CFA891",
"l c #C1AB9D",
"z c #D0A791",
"x c #D0A891",
"c c #C3B2A7",
"v c #C2B3AA",
"b c #C4B9B3",
"n c #C8BCB6",
"m c #C2B6B9",
"M c #C6BFBB",
"N c #CBC2BD",
"B c #CDC4C2",
"V c #D2CAC5",
"C c #D6CECA",
"Z c #D9D2CC",
/* pixels */
"                                        ffjzfjjfzjfzjjjjfzf                                         ",
"                                   jjjjjjjjjfzjjjjjjjjjjzfjjzjfj                                    ",
"                                jfzjzfjjjjjjzfjzzjjzjjjjfjfjzjjjjjj                                 ",
"                              jzjjfzfzjjjjjjfzzfffzfjjjjzjzjfjjjjjjjj                               ",
"                            fzjfjjjjjzjjjzjjffjjzffffgjjjzfzjjjjjjjjjjj                             ",
"                          jjjfjjzjjjzfj                     fgjjjjjjjjjjj                           ",
"                        fjjjzjjzfzjf                           fjjjzjjjjjjf                         ",
"                      jjzjfzfzjff                                 jjjjjjjjjjf                       ",
"                     fjgjjjjjff                                     jfxjjjjjjj                      ",
"                   fjjjjjjjjj  &.o;2<dfxjjjjfzzjjjjjzjjjjjfjzjjjxh<>22zxjzjjjjjj                    ",
"                  fzzjjjzff    :22ddfffjfzjjjjzjjzjjfzfxzzfjfzjjjj<;22  fjjjjjjjj                   ",
"                 jgfjjfzj      2dgggkjjzjjjjfxffzfjzfjjjfjzjzfzjjj<>22    jjzjjjjj                  ",
"                fzfzjjjf       1dkjjgjzfzffzjjfzfjfzjjfjfzjffjfzjx<>22     fjjjjjjf                 ",
"               jjzzfjf         1dkjjjjjffxjjfjzfzjjjjzzjzfzzjzjjjj<%22       jjjjjjj                ",
"              jjjfjzj          1dxkjjjjzjjfjzfzzjjjjjfzffjzfjjjjjk,%<2        jjjjjjj               ",
"             fjjjjjf           5hxgjjjzfjzzjjzfjgjzfzjfzfzjzfjzfzx<>ad         jjjjjjf              ",
"            jjjjjjf            6hjjjfjjzzffzfjzfjjjjjjfjjjzfzzfzjza>sa          fjzfjjg             ",
"           jjjjjzf             5hjjjxjjffzjfxjjjjjjjjzzjjgfzfjjjzz2>ha           fjjjjjf            ",
"          fjjjjjf              6fjgjjjfzzffzjjjjfzjzjfzjjjjjjjjjkzp>a2            jzzfjjf           ",
"         fzjjjzf               7hjjjjjzjzjzjfzjzjfzfjzfjjjjjjjxfzxa>hh             ffzjjjz          ",
"         jjjjjj                5hjjjzfzffjjffzffzjzjzfxffjjzjjjjkzi>dd              jjjjjz          ",
"        jjjjjj                 5fjjjjffzzjjzzfzjzffjfzfzzjjfjgjjjz2>dd               jjjjfj         ",
"       fjjjjjf                 5hjjjfzjfjjjjfzfzjfzjjzfjjjjzzfjjjz<$dd               fjjjjjj        ",
"       zjjjjj                  1djjjzfzzjjxfzfzfjjjjzfzffjfzfzjjjj<>dd                fjjjjj        ",
"      fjgjjf                   5hkjjjjjjjfzzfzkzjjjjzffzzjjzfxfjkk<@da                 gjjjfg       ",
"     fzjjjz                    7hzjjjzjjjjjjzffzjxfjjzjfzjfzzfzjkk<>dd                  jjjzjf      ",
"     jjjjjf                    7hjzjfzjjfzzfffzfzfzjfzjzfjzfjjjfgkd<dd                  jjjjjj      ",
"    fzfjjj                     ljkjjjfzjjjjjjzfzfzfjjjjjzffzfjjzggi<hh                   fzjjjj     ",
"    fjzjzf                     7hzjjzfzfzfzjjjfjzzfzjjjjfzfxzjfzgxa,hh                   jjjfzf     ",
"   fjjfjj                      7hfzzfzzjjffzjjxjfjzfgjjjzjjfjjzjxxd,fd                    jjzfzf    ",
"   jjfzjj                      7kjjffjfzjzjjjjzjzffjjjjjjjfzzffjxxi,dd                    fzjfjf    ",
"   jjzfz                       7hjjjzjjjjjjjjgfjjzfzzfjjzfzjfzfzgxi,dd                     jjzjj    ",
"  fjjjjj                       7hxjjjjzffzffzfjjjjzfzfzfzjxjjfjzzzi,dd                     fzjfzj   ",
"  jjjjj                        7hxjjzffzzfjzjzjjfzfzjjfzzffjjzzfjxi,df                      jjjjj   ",
"  jjjjj                        7jzgjfzzfjzzffjjjfzjzjjjjjjfjzffzzzp>dd                      fjjjj   ",
" jjjjjj                        7hzjjzfzjfzfzzjfxjfzfjjjgjjzjfzjfzxa<dd                      fjjzjf  ",
" jjjjg                         7hjjjffzjjjfjjjjjzffzfzjjfzjfzzfzjzi,dd                       jjjjj  ",
" jjjjj                         7hjjjjzfjjjzjzjjgfzzfzfjjzfzzfjfjjzi>dd                       zfjjj  ",
" zjjjj                         6hxgjzfzjfzzffzfkzzfzjjjzfjjjxfzjjki,dd                       jfzjj  ",
"ffzjzf                         6jgjjjjjjjjjjzfzffkzffzjffzjjjjjjjki,hd                       fjjjjf ",
"fjzfz                          6hjjjzfzzfzfjzfjzjzjjjjfzzfxjjjfzkk2,hh                        zjjjj ",
"fjjff                          7fjjjfzfjzfjzfzzfzfjzzfxffzfjjjjjjki,ds                        fzjjf ",
"jjjzz                          5hjjjfjjzjjfxzffjfjjfjfjzjzfjfzjzjj22hh                        jjzfz ",
"jjzff                          7fjjjzfzfjjjjjjzjfzjjjzfzzfzjjfzfjka,ha                        fjfzj ",
"zfzjf                          7hjjjjjjjfzjzfzzjzfjzfjzfzfzfzfzfzka,hh                        jjjjj ",
"fzfff                          7hjjjzjjjjjjjzffjfzxfzffzjzfzfzzjjza,sh                        fjjjj ",
"jzfzf                          7hjjjjjjzjjjjffzjfzfjjzjjjjzfzkfzjza,hs                        zjjzj ",
"zfzzf                          7jjzjfzjfgjjjzjjjzfzjjzfjzffzffzfkka,ah                        zjjfj ",
"fjfzf                          6hfzjjjjzfzfzjjzfjfzjjjjjjjjkjjjjjka>sa                        jjzfz ",
"zjjjf                          7fzfjjzffzfzjgjjjjjjjjjjjjjffjjfjjka,aa                        fjfzjf",
"jjjjj                          6hzfzfzfzjfjjjjjjgjfzjjjjjfdfdddxxji,aa                        fzjjj ",
"gjzfj                          6hfjjjjzjjzjjjjjjjjjjjjjjjs<d71<gjj2,2a                        fjjjj ",
"jjfjz                          6hfzfgjjjjfzjfzjxjjzjfzjkd7vbntlgzja>a2                        jjjzj ",
"jjzfj                          6jzfzkfjjjjjjzfjfjjfzfkgk<5yNVnlggj<,22                        fjzfz ",
"jjjzj                          hhfzffzjfzffzfzzfjzfjjgkd7wMMVnlggjp>22                        ffffz ",
"jjzff                          6hjzjzfzzfzjjzjfzjjzfjkf6vVCMMvlgxja>a2                        zzjzf ",
"fzjjz                          6jzjzfjzfjjjxjjzfjfkffff9NZZCtqlgjj2>22                        jjjjz ",
"ffzjf                          7hfjjzffzzfjfjjjfjjjkffd9NZZCtwlkjja,22                        jjjfj ",
"jjjjz                          afgjjfzzffzzfjzjzjjkfgff5bVNyetlxjja,22                        jjjjf ",
"jjjjjf                         6hzjjzfzjzjfzjfzfjjgfgff18tt4ttlxjja,22                       gjjzjf ",
" jjjjf                         6dzjfffzjfjzfzfjzjjkfjjfa*&30Ny9xkja,12                       fzjff  ",
" jjjfz                         6hfzzjzjjzffzjjjfjjjjjjfpO-ymCblxzka><2                       zfjjz  ",
" fjjzf                         6jjzffjjffzjjjjjzzjjjjjgpO-mBZblkjki>i2                       jjjjf  ",
" fzjjzf                        6hjjjzjjzzjjjxffzfjjjfkguO*8wv9hjkzi,<2                      fzjjjg  ",
"  jjjjz                        1hzfzfzjjzfzfzjjjjjjjjgfu#=:122dxzzp>22                      jjjjj   ",
"  fjzfj                        2hjzfzfjzfzzjfzfzzfjjjzxpuudgkxfzjj,>2<                      jjjjj   ",
"  jjjjjj                       5djzffzjfgkfzzfjjjjgjfzxjfsfjgzfxzj<><<                     jjjjjz   ",
"   jjjjf                       1fjfzzfjjjfzfjfzjjjjjjjjjffjjkfzfzji><<                     jjjjj    ",
"   fzfzff                      5hxgjxfjjjjjjfzjjfzjfjfzjjjjxjfzfgzi>aa                    jjzjjj    ",
"   gfzzjf                      1djjjjjjjjjjzjjjjzfzzjzjjzfjfzzfzzz<%22                    fzjjjj    ",
"    fzfzjj                     1djzfjjjjjzfjjjjjfjzffjfzjjzjfzfjgj<%2<                   fjjjjf     ",
"    ffjjjj                     1dzfzjjjjzfzffzjgfzjjzjjjjzffzfzfzj<%22                   jjjjjf     ",
"     gjzfjj                    1djjjjjjjzjfzzjfjzfzjzfzzfzfjxjjzjj<@22                  fjjjjf      ",
"     fjjjzj                    1hjjjjjjjffzffjzjfzzffzfjzffzfjjjjj,@22                  jjzfjf      ",
"      fjzfjf                   1djjfjjjjxjfzzfjjjjjjjjjjjzzfjjjjjk2>aa                 gjfzjf       ",
"       jjzfzg                  7fzjxjjjjjjzjfzzfjzfjjzfjjjfzjzfjjjp>aa                fjzjjj        ",
"       jjfjzff                 7jzffzjfzfjjfjfzjjfzfzffzjffzfjfzjki,ha               fzjjjzf        ",
"        fzfzjj                 7hzjzffzfzjjzzfjjjzfzzjjjjzzffzzfjzi,hh               jfzjjj         ",
"         jjjjjf                hhxzjzfjzzjjjfzzfjzfjfzfjjzjzzfjzjza,dd              fzjjjj          ",
"         jjjjjzf               7hjjjfxfzfzfjzjfzzfzfzfjzjfjjfzzfjzi,sh             jfjjjjj          ",
"          fjzfzjj              7hzgjjjjzfzjffzffzfzfjxzfjfzfjjzfzxa>da            fzjjjgf           ",
"           jjzfjjj             1hjzgzjfzzfjzzfjzfzjjjfjzzzfzfjjjjx<>dd           fjjjjzf            ",
"            jjjjjjj            1hzjjfjzfjjjjjzjjzfjjjjfjfzfjzjjjjj<>2d          jzjjjjf             ",
"             fjjjjjj           7hjjjzffzjzfjjzfjzjzfjjzfzfzfzjzfjj<>d2         fjfjjjg              ",
"              jjjjzfj          1hjjjjjjjfzfzfjzjfzfjzfjzffzjzfzzjj2>aa        jjjjjjj               ",
"               fjjfzjjj        1szjjjjjjjjzffzfjzffzfzzfjzjjfzfjzk<>aa      jfjjzfjj                ",
"                fzjjjjjf       1hjjjzjjzzfzzzjfjjjzfzfjzjjfxfjjjjj<>a2     ffzjjjzf                 ",
"                 fzfjjzff      1hjjjjjjjfzfjfzzjfjjxjfzfjjjjzfzjjj<$22    jjzjjjjf                  ",
"                  fjjjjgzjg    1dkzjjjkjkzjzgkfkxjkkjjjjjjjjjjjjjj<$22  fzfzfzjjf                   ",
"                   jjjjjjjjjj  1djkjzjzzzkkkkgkggkkkkkkjgggjjjjjjj<$22fjjjzfzfjj                    ",
"                     jjjfjjjjjf1dkjjkkkzzjjkkkkxkkkkkkjggggjjjzjjj,$<2zfjjzffj                      ",
"                      fzzjfzjfffjj                               jjjjzfzzfjzj                       ",
"                        fzjjjjjjjjjj                           jjjzfjjjjjjf                         ",
"                         fjjjjjjjjjzjjjjk                 fgfjjjfjjjjjzjzf                          ",
"                           jjgjzjjjjjjjzjjkkffjjzfffffjjzfjjjjzjzjzjfzfz                            ",
"                             fgfjzjjjjjjjjjzjjjfzfzjjjjjfzjjjjfjjjjfzf                              ",
"                                ffzjjjjjjjzjfjjfjjjjjjjjjjjjjjjzgff                                 ",
"                                   fjjjjjjfzzjjzjjjjjjjjjjjjjjff                                    ",
"                                       jjjjjjjjjjjjjjjjjjjjf                                        ",
"                                             fffffffff                                              "
};
