/* XPM */
static char *pixil_layer_Background__5_1678817521[] = {
/* columns rows colors chars-per-pixel */
"100 100 3 1 ",
"  c None",
". c black",
"X c #23C9CF",
/* pixels */
"                                                                                                    ",
"                                     ....    ......      ......                                     ",
"                                     ....    ......      ......                                     ",
"                                   ..        ..    ..  ..                                           ",
"                                   ..        ..    ..  ..                                           ",
"                                   ..  ....  ......      ....                                       ",
"                                   ..  ....  ......      ....                                       ",
"                                   ..    ..  ..              ..                                     ",
"                                   ..    ..  ..              ..                                     ",
"                                     ....    ..        ......                                       ",
"                                     ....    ..        ......                                       ",
"                                                                                                    ",
"                                                                                                    ",
"              ........................................................................              ",
"              ........................................................................              ",
"              ..  ..                                                            ..  ..              ",
"              ..  ..                                                            ..  ..              ",
"              ..  ..                                                            ..  ..              ",
"              ..  ..                                                            ..  ..              ",
"              ..  ..                                                            ..  ..              ",
"              ..  ..                                                            ..  ..              ",
"              ..  ..                                                            ..  ..              ",
"              ..  ..                                                            ..  ..              ",
"              ..  ..                                                            ..  ..              ",
"              ..  ..                                                            ..  ..              ",
"              ..  ..                                                            ..  ..              ",
"              ..  ..                                                            ..  ..              ",
"              ..  ..                                                            ..  ..              ",
"              ..  ..                                                            ..  ..              ",
"              ..  ..                                                            ..  ..              ",
"              ..  ..                                                            ..  ..              ",
"              ..  ..                                                            ..  ..              ",
"              ..  ..                                                            ..  ..              ",
"              ..  ..                                                            ..  ..              ",
"              ..  ..                                                            ..  ..              ",
"              ..  ..                                                            ..  ..              ",
"              ..  ..                                                            ..  ..              ",
"              ..  ..                                                            ..  ..              ",
"              ..  ..                                                            ..  ..              ",
"              ..  ..                                                            ..  ..              ",
"              ..  ..                                                            ..  ..              ",
"              ..  ..                                                            ..  ..              ",
"              ..  ..                                                            ..  ..              ",
"              ..  ..                                                            ..  ..              ",
"              ..  ..                                                            ..  ..              ",
"              ..  ..                                                            ..  ..              ",
"              ..  ..                                                            ..  ..              ",
"              ..  ..                                                            ..  ..              ",
"              ..  ..                                                            ..  ..              ",
"              ..  ..                                                            ..  ..              ",
"              ..  ..                                                            ..  ..              ",
"              ..  ..                                                            ..  ..              ",
"              ..  ..                                                            ..  ..              ",
"              ..  ..                                                            ..  ..              ",
"              ..  ..                                                            ..  ..              ",
"              ..  ..                                                            ..  ..              ",
"              ..  ..                                                            ..  ..              ",
"              ..  ..                                                            ..  ..              ",
"              ..  ...                                                          ...  ..              ",
"              ..  ....                                                        ....  ..              ",
"              ..  .....               .......................                .....  ..              ",
"              ........................................................................              ",
"              ..........................XX......XXX......XX...........................              ",
"              ..                      ..XX......XXX......XX..                       ..              ",
"              ........................................................................              ",
"              ........................................................................              ",
"              ........................................................................              ",
"                                                                                                    ",
"                                                                                                    ",
"                                                                                                    ",
"                                                                                                    ",
"                                                                                                    ",
"                                                                                                    ",
"                                                                                                    ",
"                                                                                                    ",
"                                                                                                    ",
"                                                                                                    ",
"                                                                                                    ",
"                                                                                                    ",
"                                                                                                    ",
"                                                                                                    ",
"                                                                                                    ",
"                                                                                                    ",
"                                                                                                    ",
"                                                                                                    ",
"                                                                                                    ",
"                                                                                                    ",
"                                                                                                    ",
"                                                                                                    ",
"                                                                                                    ",
"                                                                                                    ",
"                                                                                                    ",
"                                                                                                    ",
"                                                                                                    ",
"                                                                                                    ",
"                                                                                                    ",
"                                                                                                    ",
"                                                                                                    ",
"                                                                                                    ",
"                                                                                                    "
};
