/* XPM */
static char *_72aaebc227a4c1598e7cf90ff95ec36cK5T3ayzqhGfLKwt[] = {
/* columns rows colors chars-per-pixel */
"106 112 63 1 ",
"  c None",
". c #070707",
"X c #0B0B0B",
"o c #0F1700",
"O c #0B1707",
"+ c #171F07",
"@ c #1F170B",
"# c #131313",
"$ c #1B1B1B",
"% c #2B230F",
"& c #372313",
"* c #332B13",
"= c #3F2F17",
"- c #3F2B1B",
"; c #2F371F",
": c #232323",
"> c #272727",
", c #2F2F2F",
"< c #373737",
"1 c gray23",
"2 c #432F1B",
"3 c #43331B",
"4 c #4B371B",
"5 c #533F1F",
"6 c #4F3B23",
"7 c #5F4323",
"8 c #6B4727",
"9 c #774F2B",
"0 c #7F532F",
"q c #675333",
"w c #434343",
"e c gray28",
"r c #4B4B4B",
"t c gray31",
"y c gray34",
"u c #5B5B5B",
"i c gray39",
"p c gray42",
"a c #6F6F6F",
"s c #777777",
"d c gray50",
"f c #875733",
"g c #8F5F37",
"h c #9B633B",
"j c #A36B3F",
"k c #AB6F43",
"l c #B37347",
"z c #BF7B4B",
"x c #CB7F4F",
"c c #CF8353",
"v c #D78B5B",
"b c #DF9363",
"n c #E79B6B",
"m c #EFA373",
"M c #F7AB7B",
"N c #7092BE",
"B c #838383",
"V c #8B8B8B",
"C c #939393",
"Z c #979797",
"A c gray67",
"S c #FFB383",
"D c #FFBB93",
/* pixels */
"                                                                                                          ",
"                                                                                                          ",
"                                                                                                          ",
"                                                                                                          ",
"                                                                                                          ",
"                                                                                                          ",
"                                                                                                          ",
"                                                                                                          ",
"                                                                                                          ",
"                                                                                                          ",
"                                                                                                          ",
"                                                                                                          ",
"                                                                                                          ",
"                                                                                                          ",
"                                                                                                          ",
"                                                                                                          ",
"                                                                                                          ",
"                                                                                                          ",
"                                                                                                          ",
"                                                                                                          ",
"                                                                                                          ",
"                                                                                                          ",
"                                                                 XXX                                      ",
"                                                                XNNNX                                     ",
"                                                               XNNNNNX                                    ",
"                                                               XNN$NNX                                    ",
"                                                               XN$$$NX                                    ",
"                                                               .NXXXN.                                    ",
"                                                               #$#X#$#                                    ",
"                                                                 X#X                                      ",
"                                                                 #$#                                      ",
"                                                                 ###                                      ",
"                                                          <<     >:>     <1                               ",
"                                                         $<tiyBAusisuABtur1:                              ",
"                                                        .X#+<1,,w>>>w,,<,+#X.                             ",
"                                                        XX#>;<>,,>>>,,><;:###                             ",
"                                                        ..X$:::#:###:#::$$X.X                             ",
"                                                        ..XX############XXX.X                             ",
"                                                         .X###############X.                              ",
"                                                          ,s>###########:p,                               ",
"                                                          ,p1####$#$####<u,                               ",
"                                                          $e>>>>><<<>>>>:1$                               ",
"                                                          $:>>$##:$:##$>:$$                               ",
"                                                          $::####:::####:$$                               ",
"                                                          #<##$##<$<##$##,#                               ",
"                                                          $1$$:$$1:1$$:$$,$                               ",
"                                                          :t::$$$<$<$$$::w$                               ",
"                                                          >e>>:>>>>>>::>>w:                               ",
"                                                         >1r<>>>>,,,,,,><w<:                              ",
"                                                     755:<rw,>>,,<<<<,,,,ew$                              ",
"                                                   79g0:,1e1,,,1wwwww1,,1ww>:                             ",
"                                               75559gf0>,1w<,,<<wwywe<,,111>:                             ",
"                                             4799999898:,,11,,,<wrute<,,1w,,,:                            ",
"                                            48fffghf75$,<,111>,<wruye<,,w11,,:*                           ",
"                                           79f0000ff83@,<,<1w,,<wtite<,,w11>>>>*%                         ",
"                                         7789099999983><1<1we,>1eyptew><e1w>>,,=%                         ",
"                                      89gg098878778874>1<,1tr<,weuatw1,,1ew>:,>7%%                        ",
"                                    7fhh0888885455554=,11,wyt<,1euatw1,<1te::,>77%                        ",
"                                  49gf08999099974344%X<w<,euy1,1eisrw1,<wit:@,>47*                        ",
"                                 *7f9889000fff0987=3o:w1,1tut<,1risww1<<1uy,@,,:=4%                       ",
"                                 =887790fffffff09883o:w<>wuie<,wrisww1<1wiu<@,,:=73*                      ",
"                                *45559ffgggggggff986@:w,>wiiw,,wridww1,1rpi<$,<:7h04%                     ",
"                                *=448ffghhhhhhgfgf94%>w,>wiuw,<wtpBrw1,<raa,$>w:4fg9=                     ",
"                               ***=49fgghhhhhhgfgf073,1>,riy1,<wtpBrw1,<esa,$+w:&89g4                     ",
"                               **%=79fghjjkkkjhggf073,1:<tir<,<wtpBrw1,,wss,$:w$&47f3                     ",
"                               *%%=8ffgjjkklkkkkg007,<1:<tir<,<wtpBrw1,<wpd1$$t,%&37*                     ",
"                               %%*480ghjkklllkkkjf04,11:<uie,,1wypdrw1,<wud1:>1>:&&-%                     ",
"                               %%*480ghjklzxzljkkjf7>w1:1iiw<,1eypdrw1,1wuBw$,1,:=42%%                    ",
"                               %%*580ghjklzxxzljjkg7>r,$1ipw,,1eyasrw1,,wuVw:><,>=87*%                    ",
"                               %%*789ghjkzxccczlkh07>t,$1iaw1,1eypsrw1,<wyCw>:,<>=99=*                    ",
"                               %%=77890gkzxvbvczkl07>t>:wipe1,1rypstw1,<wyZr>:>1:&7f4*                    ",
"                               %%789900fgkzvbbczkkf>,t>>tiir<,1eypstw1<,1uVi,:>1:&=96*                    ",
"                               =9flvczjgffjxvvxzkf9>1r,>riir,,1wtistw1<<1iss1>:1>&&42*                    ",
"                               9j089jlxzkkjzccxxkf7>1r,>riir<,1wtisye1<,1rda,>>1>:&*&%                    ",
"                              904*=450gzlkklzcczkg5:ww>>waiw,,1wtisyrw1,1eBa,>,1>:=%*                     ",
"                              9%%=4890flvbczkzxkkg4>r1>>wsuw,,1wrisurw1<<wds<>><,:==%*                    ",
"                              7%=47gfgkvjjkvbzzkkg=>t<>,wBy1,,1wrisutw1<,wsdw>>,,:=4*%                    ",
"                               8779fgfglxjff0kvzj0:,y,><yBt1,,1wrisutw11<1sBw,>,<:473%                    ",
"                              jgffgjkjgfjklg789cz0:<y,>1iVtw1,1wrusutw1<<1ade,:,1:474%                    ",
"                             fghghffhkkhffjzl078jf:1t,>1aVr1,,1wrisute1<,1iBt<:>1>=54%                    ",
"                             44348f090jzkhfgkzg05f>er>>1sVrw<,1wrusute11,wiBt1>>1,>4=%                    ",
"                             0086445889hzzjgfjxk07:re,>1sdw1,,1wrisute11,wuBy1>%<>>=*%                    ",
"                            48ghkh074789hhkzjfgjz0>yw,>1Bdw1<<1wrisutw11,wusi1>,<,>=%%                    ",
"                            %%=8gjkh000999gkkjgfg:>y1,>1Vse1,<1wtisutw1<<wusaw>><,>=%                     ",
"                            5**%=80hjjgf990fhzljg:,u1>,wVsr1,<1wtisutw1<<wysaw>:<<:*%                     ",
"                            798784*=470fhgf90gkkj:1y,>,rVar1,<1wtisutw1<<wtsar,:<1:&%                     ",
"                          g0444489f873233268999ff:wt,,1yCpr1,1wetisyrw1<1wtist,>,1>%%                     ",
"                         g8888874=%%*43644===6789:rt>,1uCie1,1wetisyrw1<1wypsy,:,1>>%                     ",
"                        9884*=489974*%%%44874==47>te>>1iZuw1,1wetisyrw1,1wyidu,:><>:                      ",
"                        84*=644%%4ff07=%%%=7873==>yw>>1aZtw<,1wrtisyrw1<1eypBy,>><,:                      ",
"                        87990ff9874*79084*%*=754:,uw,><aVr1<,1wrtisyrw1<1wypdi<>+<,:                      ",
"                        90fkzvbckhg95447084*%*37:<yw,>1sde1<,1wryisyrw1<1wtisp1>><,:                      ",
"                        gfknMmmnnczkj053=584=%=3:1ye,>waaw1<<1wrtaayrw1<1wtisa1:><,:                      ",
"                        9hvnSMMnnnnnvzg87*=74=%=:wyw>,rai11,,1wryaayrw1<<wrisa1::,<:                      ",
"                      9fhzmMSmnmMmnmnzxl084*75=%>ry1>,taiw1<<1wruaayrw1<11russ1:><1::                     ",
"                      9jcvmMnnmMMMmnbvxczf8%@44=,tt<:1taue1<<1wriapyrw1<<1wussw:><1>:                     ",
"                     9gzbnMmbnMmMMnbvvzkvg5%%@*>,yr,:1yair1,,1wypaiyte1<<1wysde:,,1>:                     ",
"                   79hlvnmMbbbMnnMMbczjkzz4*%@%:,ye,:1ypitwwwweupaiyreww1wwtsst>,,1>$                     ",
"                  8fkzvbmmMnnbMbvmmSvzjhkk7==*.:<yw,:1tiuytreweypapyewwwerrtssy>>,1,:                     ",
"                  8jzvbMMmmbnnMvvvbMnkjkkj865*@:1tw,>1ryyytw11eyadsptw11wrttasu,:,1,:                     ",
"                9fkznmmnMDvxnmmccczvnlljk9754*%,wtw<,wryrew<<1rusBBsye1<<1wrupu,:,<,:                     ",
"               7jkcmmmbmmDbzmnvzzzzjzvzg9774==%,rtw1werew1<<<wtidVVditw<<<<wett1:><<:$                    ",
"             80lcvbmmmbnmMnvnnzxzkjhgbvg654===>,rrweeeww<,,,<wtpVCCVptw<,,,1wwer<>,1>$                    ",
"            80kcnnnMMmbMmSvvbvzzzhjgjbx754=***>,trrewww1,>>,<wtaVZZVatw<,>,<w11ww1<1>:                    ",
"           6gzcnmnnmmbnmmmzbvvzzjghhzlg44=**%@:1trewwrr<>>>,<wtaVCCVatw<,>,,1w<<1ew1>:                    ",
"         90gzvmbnvbmmvnmnblbzvkkjfhkzh44=*==%o>wew1<wte,>>>,<wtaVVVVatw<,>,,<w1<<1w1,:                    ",
"        79kzvbMbmvbmmbmnnvzbzljjg0jkk9******%O:11<,<1e1,>>,<1eyasBBsaye1<,,,,<w1<,<1,:                    ",
"       3f0kcbmmmmbbmnnnnnccvkkgg90jl04*==**%o%><,>,<11,<11ryuiippppppiiuytw1<,11<>:,,:                    ",
"      3q9jvbmbmnmbmMbbnnbvzcfgfffjkg64==***oo%>,>>,<wwweewww1<<111111<<1wwweewww<>:>>>                    ",
"     &70kzvmMmmbmzmnncbnbzkk0g09hkg64===*%++%%>>>><wew1<,,,<<1wetyytew1<<,,,<1wew<:::>                    ",
"    49gkcnmbmmbmnvnbvcvnzzjhfg0gkk84====*%+%%%:>><ww<,>>,,<1eyipsBBspiye1<,,>>,<we<>::                    ",
"   29glvbbnbmmvMnnnvvvbvklf0gghgj944===*%%%%%%::,ww<>:::>,<1eypaBCCBapye1<,>:::><ww,::                    "
};
