/* XPM */
static char *_38edce80b26422ffc17987cba4a6b21AjWHYDgGsoWeAT6K[] = {
/* columns rows colors chars-per-pixel */
"122 112 64 1 ",
"  c None",
". c black",
"X c #070707",
"o c #0B0B0B",
"O c #0F1700",
"+ c #0B1707",
"@ c #171F07",
"# c #1F170B",
"$ c #131313",
"% c #1B1B1B",
"& c #2B230F",
"* c #372313",
"= c #332B13",
"- c #3F2F17",
"; c #3F2B1B",
": c #2F371F",
"> c #232323",
", c #272727",
"< c #2F2F2F",
"1 c #373737",
"2 c gray23",
"3 c #432F1B",
"4 c #43331B",
"5 c #4B371B",
"6 c #533F1F",
"7 c #4F3B23",
"8 c #5F4323",
"9 c #6B4727",
"0 c #774F2B",
"q c #7F532F",
"w c #675333",
"e c #434343",
"r c gray28",
"t c #4B4B4B",
"y c gray31",
"u c gray34",
"i c #5B5B5B",
"p c gray39",
"a c gray42",
"s c #6F6F6F",
"d c #777777",
"f c gray50",
"g c #875733",
"h c #8F5F37",
"j c #9B633B",
"k c #A36B3F",
"l c #AB6F43",
"z c #B37347",
"x c #BF7B4B",
"c c #CB7F4F",
"v c #CF8353",
"b c #D78B5B",
"n c #DF9363",
"m c #E79B6B",
"M c #EFA373",
"N c #F7AB7B",
"B c #7092BE",
"V c #838383",
"C c #8B8B8B",
"Z c #939393",
"A c #979797",
"S c gray67",
"D c #FFB383",
"F c #FFBB93",
/* pixels */
"                                                                                                                          ",
"                                                                                                                          ",
"                                                                                                                          ",
"                                                                                                                          ",
"                                                                                                                          ",
"                                                                                                                          ",
"                                                                                                                          ",
"                                                                                                                          ",
"                                                                                                                          ",
"                                                                                                                          ",
"                                                                                                                          ",
"                                                                                                                          ",
"                                                                                                                          ",
"                                                                                                                          ",
"                                                                                                                          ",
"                                                                                                                          ",
"                                                                                                                          ",
"                                                                                                                          ",
"                                                                                                                          ",
"                                                                                                                          ",
"                                                                        ooo                                               ",
"                                                                       oBBBo                                              ",
"                                                                      oBBBBBo                                             ",
"                                                                      oBB%BBo                                             ",
"                                                                      oB%%%Bo                                             ",
"                                                                      XBoooBX                                             ",
"                                                                      $%$o$%$                                             ",
"                                                                        o$o                                               ",
"                                                                        $%$                                               ",
"                                                                        $$$                                               ",
"                                                                 11     ,>,     12                                        ",
"                                                                %1ypuVSidpdiSVyit2>                                       ",
"                                                               Xo$@12<<e,,,e<<1<@$oX                                      ",
"                                                               oo$,:1,<<,,,<<,1:>$$$                                      ",
"                                                               XXo%>>>$>$$$>$>>%%oXo                                      ",
"                                                               XXoo$$$$$$$$$$$$oooXo                                      ",
"                                                                Xo$$$$$$$$$$$$$$$oX                                       ",
"                                                                 <d,$$$$$$$$$$$>a<                                        ",
"                                                                 <a2$$$$%$%$$$$1i<                                        ",
"                                                                 %r,,,,,111,,,,>2%                                        ",
"                                                                 %>,,%$$>%>$$%,>%%                                        ",
"                                                                 %>>$$$$>>>$$$$>%%                                        ",
"                                                                 $1$$%$$1%1$$%$$<$                                        ",
"                                                                 %2%%>%%2>2%%>%%<%                                        ",
"                                                                 >y>>%%%1%1%%%>>e%                                        ",
"                                                                 ,r,,>,,,,,,>>,,e>                                        ",
"                                                                ,2t1,,,,<<<<<<,1e1>                                       ",
"                                               ,            866>1te<,,<<1111<<<<re%                                       ",
"                                              %1,%>>%><,>>%%%%><2r2<<<2eeeee2<<2ee,>                                      ",
"                                              $e2,<1eeut222ee<,<2e1<<11eeuer1<<222,>                                      ",
"                                              %upuuippaapiiip2><<22<<<1etiyr1<<2e<<<>                                     ",
"                                              %r2,<12ete222ee%<1<222,<1etiur1<<e22<<>=                                    ",
"                                              .<<%>>%><,>>%%%#<1<12e<<1eypyr1<<e22,,,,=&                                  ",
"                                               %8890q00000094,1212er<,2ruayre,1r2e,,<<-&                                  ",
"                                             90hhq09989889985,21<2yt1<erisye2<<2re,><,8&&                                 ",
"                                           8gjjq999996566665-<22<euy1<2risye2<12yr>><,88&                                 ",
"                                         50hgq9000q00085455&o1e1<riu2<2rpdte2<1epy>#<,58=                                 ",
"                                        =8g0990qqqgggq098-4O>e2<2yiy1<2tpdee2112iu<#<<>-5&                                ",
"                                        -99880qgggggggq0994O>e1,eipr1<etpdee212epi1#<<>-84=                               ",
"                                       =56660gghhhhhhhgg097#>e<,eppe<<etpfee2<2tap1%<1>8jq5&                              ",
"                                       =-559gghjjjjjjhghg05&,e<,epie<1eyaVte2<1tss<%,e>5gh0-                              ",
"                                      ===-50ghhjjjjjjhghgq84<2,<tpu2<1eyaVte2<1rds<%@e>*90h5                              ",
"                                      ==&-80ghjkklllkjhhgq84<2>1ypt1<1eyaVte2<<edd<%>e%*58g4                              ",
"                                      =&&-9gghkkllzllllhqq8<12>1ypt1<1eyaVte2<1eaf2%%y<&*48=                              ",
"                                      &&=59qhjkllzzzlllkgq5<22>1ipr<<2euafte2<1eif2>,2,>**;&                              ",
"                                      &&=59qhjklzxcxzkllkg8,e2>2ppe1<2ruafte2<2eiVe%<2<>-53&&                             ",
"                                      &&=69qhjklzxccxzkklh8,t<%2pae<<2rusdte2<<eiCe>,1<,-98=&                             ",
"                                      &&=890hjklxcvvvxzljq8,y<%2pse2<2ruadte2<1euZe,><1,-00-=                             ",
"                                      &&-8890qhlxcbnbvxlzq8,y,>epar2<2tuadye2<1euAt,>,2>*8g5=                             ",
"                                      &&8900qqghlxbnnvxllg,<y,,yppt1<2ruadye21<2iCp<>,2>*-07=                             ",
"                                      -0gzbvxkhggkcbbcxlg0,2t<,tppt<<2eypdye2112pdd2,>2,**53=                             ",
"                                      0kq90kzcxllkxvvcclg8,2t<,tppt1<2eypdur21<2tfs<,,2,>*=*&                             ",
"                                     0q5=-56qhxzllzxvvxlh6>ee,,espe<<2eypdute2<2rVs<,<2,>-&=                              ",
"                                     0&&-590qgzbnvxlxcllh5,t2,,edie<<2etpdite211efd1,,1<>--&=                             ",
"                                     8&-58hghlbkklbnxxllh-,y1,<eVu2<<2etpdiye21<edfe,,<<>-5=&                             ",
"                                      9880ghghzckggqlbxkq><u<,1uVy2<<2etpdiye2212dVe<,<1>584&                             ",
"                                     khgghklkhgklzh890vxq>1u<,2pCye2<2etidiye2112sfr<><2>585&                             ",
"                                    ghjhjggjlljggkxzq89kg>2y<,2sCt2<<2etpdiyr21<2pVy1>,2,-65&                             ",
"                                    55459gq0qkxljghlxhq6g,rt,,2dCte1<2etidiyr22<epVy2,,2<,5-&                             ",
"                                    qq97556990jxxkhgkclq8>tr<,2dfe2<<2etpdiyr22<eiVu2,&1,,-=&                             ",
"                                   59hjljq85890jjlxkghkxq,ue<,2Vfe2112etpdiye22<eidp2,<1<,-&&                             ",
"                                   &&-9hkljqqq000hllkhgh>,u2<,2Cdr2<12eypdiye211eidse,,1<,-&                              ",
"                                   6==&-9qjkkhg00qgjxzkh><i2,<eCdt2<12eypdiye211eudse,>11>=&                              ",
"                                   809895=-58qgjhg0qhllk>2u<,<tCst2<12eypdiye211eydst<>12>*&                              ",
"                                 hq555590g984344379000gg>ey<<2uZat2<2erypdute212eypdy<,<2,&&                              ",
"                                h9999985-&&=54755---7890>ty,<2iZpr2<2erypdute212euadu<><2,,&                              ",
"                               0995=-590085=&&&55985--58,yr,,2pAie2<2erypdute2<2eupfi<>,1,>                               ",
"                               95=-755&&5ggq8-&&&-8984--,ue,,2sAye1<2etypdute212ruaVu<,,1<>                               ",
"                               9800qgg0985=80q95=&=-865><ie<,1sCt21<2etypdute212euafp1,@1<>                               ",
"                               0qglxbnvljh06558q95=&=48>1ue<,2dfr21<2etupdute212eypda2,,1<>                               ",
"                               hglmNMMmmvxlkq64-695-&-4>2ur<,esse2112etyssute212eypds2>,1<>                               ",
"                               0jbmDNNmmmmmbxh98=-85-&->eue,<tsp22<<2etussute211etpds2>><1>                               ",
"                             0gjxMNDMmMNMmMmxczq95=86-&,tu2,<yspe2112etissute2122tidd2>,12>>                              ",
"                             0kvbMNmmMNNNMmnbcvxg9&#55-<yy1>2ysir2112etpsaute2112eidde>,12,>                              ",
"                            0hxnmNMnmNMNNmnbbxlbh6&&#=,<ut<>2uspt2<<2euaspuyr2112eudfr><<2,>                              ",
"                          80jzbmMNnnnNmmNNnvxklxx5=&#&><ur<>2uapyeeeeriasputree2eeyddy,<<2,%                              ",
"                         9glxbnMMNmmnNnbMMDbxkjll8--=X>1ue<>2ypiuytreruasaureeerttyddu,,<2<>                              ",
"                         9kxbnNNMMnmmNbbbnNmlkllk976=#>2ye<,2tuuuye22rusfdaye22etyysdi<><2<>                              ",
"                       0glxmMMmNFbcmMMvvvxbmzzkl0865=&<eye1<etutre112tidVVdur2112etiai<><1<>                              ",
"                      8klvMMMnMMFnxMmbxxxxkxbxh0885--&<tye2ertre2111eypfCCfpye1111eryy2>,11>%                             ",
"                    9qzvbnMMMnmMNmbmmxcxlkjhnbh765---,<tterrree1<<<1eyaCZZCaye1<<<2eert1,<2,%                             ",
"                   9qlvmmmNNMnNMDbbnbxxxjkhknc865-===,<yttreee2<,,<1eysCAACsye1<,<1e22ee212,>                             ",
"                  7hxvmMmmMMnmMMMxnbbxxkhjjxzh55-==&#>2ytreett1,,,<1eysCZZCsye1<,<<2e112re2,>                             ",
"                0qhxbMnmbnMMbmMmnznxbllkgjlxj55-=--&O,ere21eyr<,,,<1eysCCCCsye1<,<<1e2112e2<>                             ",
"               80lxbnNnMbnMMnMmmbxnxzkkhqkll0======&+>221<12r2<,,<12rusdVVdsur21<<<<1e21<12<>                             ",
"              4gqlvnMMMMnnMmmmmmvvbllhh0qkzq5=--==&O&,1<,<122<122tuippaaaaaappiuye21<221,><<>                             ",
"             4w0kbnMnMmMnMNnnmmnbxvghgggklh75--===OO&,<,,<1eeerreee211222222112eeerreee1,>,,,                             ",
"            *8qlxbMNMMnMxMmmvnmnxllqhq0jlh75---=&@@&&,,,,1ere21<<<112eryuuyre211<<<12ere1>>>,                             ",
"           50hlvmMnMMnMmbmnbvbmxxkjghqhll95----=&@&&&>,,1ee1<,,<<12rupadVVdapur21<<,,<1er1,>>                             ",
"          30hzbnnmnMMbNmmmbbbnblzgqhhjhk055---=&&&&&&>><ee1,>>>,<12ruasVZZVsaur21<,>>>,1ee<>>                             ",
"                                                                                                                          ",
"                                                                                                                          "
};
