/* XPM */
static char *de1847d1ec3c4bd6a1b7bfcd9c55d5a05JdAVfAFDRSKeQqX[] = {
/* columns rows colors chars-per-pixel */
"116 112 76 1 ",
"  c None",
". c black",
"X c #070707",
"o c #0B0B0B",
"O c #0F1700",
"+ c #0B1707",
"@ c #171F07",
"# c #1F170B",
"$ c #131313",
"% c #1B1B1B",
"& c #2B230F",
"* c #372313",
"= c #332B13",
"- c #3F2F17",
"; c #3F2B1B",
": c #2F371F",
"> c #232323",
", c #272727",
"< c #2F2F2F",
"1 c #373737",
"2 c gray23",
"3 c #432F1B",
"4 c #43331B",
"5 c #4B371B",
"6 c #533F1F",
"7 c #732B00",
"8 c #4F3B23",
"9 c #5F4323",
"0 c #6B4727",
"q c #774F2B",
"w c #7F532F",
"e c #675333",
"r c #434343",
"t c gray28",
"y c #4B4B4B",
"u c gray31",
"i c gray34",
"p c #5B5B5B",
"a c gray39",
"s c gray42",
"d c #6F6F6F",
"f c #777777",
"g c gray50",
"h c #874307",
"j c #9B5B13",
"k c #AF7B1F",
"l c #875733",
"z c #8F5F37",
"x c #9B633B",
"c c #A36B3F",
"v c #AB6F43",
"b c #B37347",
"n c #BF7B4B",
"m c #CB7F4F",
"M c #C39B2F",
"N c #CF8353",
"B c #D78B5B",
"V c #D7BB43",
"C c #DF9363",
"Z c #E79B6B",
"A c #EFA373",
"S c #F7AB7B",
"D c #EBDB57",
"F c #FFFF6B",
"G c #FFFF73",
"H c #7092BE",
"J c #838383",
"K c #8B8B8B",
"L c #939393",
"P c #979797",
"I c gray67",
"U c #FFB383",
"Y c #FFBB93",
"T c #FFFF8F",
"R c #FFFFB3",
"E c #FFFFD7",
/* pixels */
"                                                                                                                    ",
"                                                                       hh                                           ",
"                                                                    h7hhhhjh                                        ",
"                                                                 777hhhhjjjhh                                       ",
"                                                                  777hhjjkjjhhh7                                    ",
"                                                                  hhhhjjkkkjj                                       ",
"                                                                7hhjjkkkkkkkjj                                      ",
"                                                                7hhjkkMMMMMMkjh                                     ",
"                                                               hhhhjkkkMMMMMkjh7                                    ",
"                                                              77hhjkkMMVVMkkkjjhh                                   ",
"                                                             hhhhjkkMMVDDVMMkkjhhh                                  ",
"                                                            hhhhjjkkMVDDDDVVMMMkjjhhh                               ",
"                                                            hhhhjMMVDDDGGDDVVMMkkkjhhhh                             ",
"                                                           hhhhjkVVDDTTRTTDVVVMkjjjhHhh                             ",
"                                                           hhhhjMDDGTREEETDDDDMMMkkjh                               ",
"                                                         hjjjjjkMVTGTEEEEEDDDDVMMMkjh                               ",
"                                                       hhjjjjjkMVDDGEEEEEEETGDVMMkkkjh                              ",
"                                                      hjkkMkhjkMVVDGEREEEEETGDVMMMMkj                               ",
"                                                      7jkMkkkkMMMMVDEEEEEEERRDVMMVVMjhh                             ",
"                                                      7hkMMMMMMMMVDTEEEEEEEERTDDDFDMkkkjh                           ",
"                                                    777hkMDDVVVDDGTREEoooEEERTGGGGDVMMMkj                           ",
"                                                    777hjMVGGGDTTRREEoEEEoEERTTTTTDVMMMjh7hjjhhj                    ",
"                                                     hhhkMVDGGGGTRREoREEEEoRRRRRTGDMMMMkjhhjjjkj                    ",
"                                                     hjkMVDDGTRRRRREoEE%EEoRRREERTDVMMMMkjjkkkjh                    ",
"                                                 hhhjkMVDDDDDTREERRRoR%%%EoRRREERDVMMkkkkkkMMkh                     ",
"                                               jkMMMkkMVVVDDGTEEEEERXRoooEXEEEERTDMkkkjkkMVVkj                      ",
"                                               hkMVVVMVMMVDFFTREEERT$%$o$%$EEEEETDMMMMMVVVVMjh                      ",
"                                             7jkkMMVDDDDDDDGTRREEEERRRo$oEEEEEERTDVVVDDGFDMkj                       ",
"                                             7hjjkMVDTTTTDGTRRREEEEEER$%$EEEEEERTDDDDDTTDVMjh                       ",
"                                                 jkkVDTREERRRTTREEEEEE$$$EEEEEETGDDDTRRTDMjh                        ",
"                                                  hjjMDFTEEEERV11DEEED,>,DEEED12VTRRERTFVkj                         ",
"                                                  jkkMDFFTEEEV%1uaiJIpfafpIJupy2>VEERDDVMMjhh                       ",
"                                                    7jMVDTRRVXo$@12<<r,,,r<<1<@$oXERGDDDVkjh                        ",
"                                                   jkMMMMVVDVoo$,:1,<<,,,<<,1:>$$$ERTDVVMjh                         ",
"                                                  hkMMMMMMMkMXXo%>>>$>$$$>$>>%%oXoTVVVVVMj7                         ",
"                                                  7hjMVDVMMkMXXoo$$$$$$$$$$$$oooXoMjhjkMMkh                         ",
"                                                hhh77jkMMMMMMVXo$$$$$$$$$$$$$$$oXVMkkjhjkkj                         ",
"                                                7h  hhjjjjjkMVM<f,$$$$$$$$$$$>s<VVMjjjhhjjh                         ",
"                                                    hjhhhhhjMMM<s2$$$$%$%$$$$1p<MkkhjjjjkMkh                        ",
"                                                 jj777     hhjj%t,,,,,111,,,,>2%jjj  h  7jjh7                       ",
"                                                             hh%>,,%$$>%>$$%,>%%         77h                        ",
"                                                              7%>>$$$$>>>$$$$>%%                                    ",
"                                                               $1$$%$$1%1$$%$$<$                                    ",
"                                                               %2%%>%%2>2%%>%%<%                                    ",
"                                                               >u>>%%%1%1%%%>>r%                                    ",
"                                                               ,t,,>,,,,,,>>,,r>                                    ",
"                                                              ,2y1,,,,<<<<<<,1r1>                                   ",
"                                                          966>1yr<,,<<1111<<<<tr%                                   ",
"                                                        9qzw><2t2<<<2rrrrr2<<2rr,>                                  ",
"                                                    9666qzlw,<2r1<<11rrirt1<<222,>                                  ",
"                                                  59qqqqq0q0><<22<<<1ryput1<<2r<<<>                                 ",
"                                                 50lllzxl96%<1<222,<1rypit1<<r22<<>=                                ",
"                                                9qlwwwwll04#<1<12r<<1ruaut1<<r22,,,,=&                              ",
"                                              990qwqqqqqq04,1212rt<,2tisutr,1t2r,,<<-&                              ",
"                                           0qzzwq0090990095,21<2uy1<rtpdur2<<2tr,><,9&&                             ",
"                                         9lxxw000006566665-<22<riu1<2tpdur2<12ut>><,99&                             ",
"                                       5qzlw0qqqwqqq95455&o1r1<tpi2<2tafyr2<1rau>#<,59=                             ",
"                                      =9lq00qwwwlllwq09-4O>r2<2upu1<2yafrr2112pi<#<<>-5&                            ",
"                                      -0099qwlllllllwq004O>r1,rpat1<ryafrr212rap1#<<>-94=                           ",
"                                     =5666qllzzzzzzzllq08#>r<,raar<<ryagrr2<2ysa1%<1>9xw5&                          ",
"                                     =-550llzxxxxxxzlzlq5&,r<,rapr<1rusJyr2<1ydd<%,r>5lzq-                          ",
"                                    ===-5qlzzxxxxxxzlzlw94<2,<yai2<1rusJyr2<1tfd<%@r>*0qz5                          ",
"                                    ==&-9qlzxccvvvcxzzlw94<2>1uay1<1rusJyr2<<rff<%>r%*59l4                          ",
"                                    =&&-0llzccvvbvvvvzww9<12>1uay1<1rusJyr2<1rsg2%%u<&*49=                          ",
"                                    &&=50wzxcvvbbbvvvclw5<22>1pat<<2risgyr2<1rpg2>,2,>**;&                          ",
"                                    &&=50wzxcvbnmnbcvvcl9,r2>2aar1<2tisgyr2<2rpJr%<2<>-53&&                         ",
"                                    &&=60wzxcvbnmmnbccvz9,y<%2asr<<2tidfyr2<<rpKr>,1<,-09=&                         ",
"                                    &&=90qzxcvnmNNNnbvxw9,u<%2adr2<2tisfyr2<1riLr,><1,-qq-=                         ",
"                                    &&-990qwzvnmBCBNnvbw9,u,>rast2<2yisfur2<1riPy,>,2>*9l5=                         ",
"                                    &&90qqwwlzvnBCCNnvvl,<u,,uaay1<2tisfur21<2pKa<>,2>*-q8=                         ",
"                                    -qlbBNnczllcmBBmnvlq,2y<,yaay<<2ruafur2112aff2,>2,**53=                         ",
"                                    qcw0qcbmnvvcnNNmmvl9,2y<,yaay1<2ruafit21<2ygd<,,2,>*=*&                         ",
"                                   qw5=-56wznbvvbnNNnvz6>rr,,rdar<<2ruafiyr2<2tJd<,<2,>-&=                          ",
"                                   q&&-50qwlbBCNnvnmvvz5,y2,,rfpr<<2ryafpyr211rgf1,,1<>--&=                         ",
"                                   9&-59zlzvBccvBCnnvvz-,u1,<rJi2<<2ryafpur21<rfgr,,<<>-5=&                         ",
"                                    099qlzlzbmcllwvBncw><i<,1iJu2<<2ryafpur2212fJr<,<1>594&                         ",
"                                   czllzcvczlcvbz90qNnw>1i<,2aKur2<2rypfpur2112dgt<><2>595&                         ",
"                                  lzxzxllxvvxllcnbw90cl>2u<,2dKy2<<2ryafput21<2aJu1>,2,-65&                         ",
"                                  55450lwqwcnvxlzvnzw6l,ty,,2fKyr1<2rypfput22<raJu2,,2<,5-&                         ",
"                                  ww0855600qxnnczlcmvw9>yt<,2fgr2<<2ryafput22<rpJi2,&1,,-=&                         ",
"                                 50zxvxw9590qxxvnclzcnw,ir<,2Jgr2112ryafpur22<rpfa2,<1<,-&&                         ",
"                                 &&-0zcvxwwwqqqzvvczlz>,i2<,2Kft2<12ruafpur211rpfdr,,1<,-&                          ",
"                                 6==&-0wxcczlqqwlxnbcz><p2,<rKfy2<12ruafpur211rifdr,>11>=&                          ",
"                                 9q0905=-59wlxzlqwzvvc>2i<,<yKdy2<12ruafpur211rufdy<>12>*&                          ",
"                               zw55550ql094344380qqqll>ru<<2iLsy2<2rtuafiyr212ruafu<,<2,&&                          ",
"                              z0000095-&&=54855---890q>yu,<2pLat2<2rtuafiyr212risfi<><2,,&                          ",
"                             q005=-50qq95=&&&55095--59,ut,,2aPpr2<2rtuafiyr2<2riagp<>,1,>                           ",
"                             05=-855&&5,lw9-&&&-9094--,ir,,2dPur1<2ryuafiyr212tisJi<,,1<>                           ",
"                             09qqwllq0%1,%>>%><,>>%%%><pr<,1dKy21<2ryuafiyr212risga1,@1<>                           ",
"                             qwlvnBCNv$r2,<1rriy222rr>1ir<,2fgt21<2ryiafiyr212ruafs2,,1<>                           ",
"                             zlvZSAAZZ%iaiipaassapppa>2it<,rddr2112ryuddiyr212ruafd2>,1<>                           ",
"                             qxBZUSSZZ%t2,<12ryr222rr>rir,<yda22<<2ryiddiyr211ryafd2>><1>                           ",
"                           qlxnASUAZAS.<<%>>%><,>>%%%,yi2,<udar2112rypddiyr2122ypff2>,12>>                          ",
"                           qcNBASZZASSS%ZCBmNnl0&#55-<uu1>2udpt2112ryadsiyr2112rpffr>,12,>                          ",
"                          qznCZSACZSASSZCBBnvBz6&&#=,<iy<>2iday2<<2risdaiut2112rifgt><<2,>                          ",
"                        9qxbBZASCCCSZZSSCNncvnn5=&#&><it<>2isaurrrrtpsdaiytrr2rruffu,<<2,%                          ",
"                       0lvnBCAASZZCSCBAAUBncxvv9--=X>1ir<>2uapiuytrtisdsitrrrtyyuffi,,<2<>                          ",
"                       0cnBCSSAACZZSBBBCSZvcvvc086=#>2ur<,2yiiiur22tidgfsur22ryuudfp<><2<>                          ",
"                     qlvnZAAZSYBmZAANNNnBZbbcvq965=&<rur1<ryiytr112ypfJJfit2112rypsp<><1<>                          ",
"                    9cvNAAACAAYCnAZBnnnncnBnzq995--&<yur2rtytr2111ruagKKgaur1111rtuu2>,11>%                         ",
"                  0wbNBCAAACZASZBZZnmnvcxzCBz865---,<yyrtttrr1<<<1rusKLLKsur1<<<2rrty1,<2,%                         ",
"                 0wvNZZZSSACSAUBBCBnnnxczcCm965-===,<uyytrrr2<,,<1rudKPPKdur1<,<1r22rr212,>                         ",
"                8znNZAZZAACZAAAnCBBnnczxxnbz55-==&#>2uytrryy1,,,<1rudKLLKdur1<,<<2r112tr2,>                         ",
"              qwznBACZBCAABZAZCbCnBvvclxvnx55-=--&O,rtr21rut<,,,<1rudKKKKdur1<,<<1r2112r2<>                         ",
"             9qvnBCSCABCAACAZZBnCnbcczwcvvq======&+>221<12t2<,,<12tidfJJfdit21<<<<1r21<12<>                         ",
"            4lwvNCAAAACCAZZZZZNNBvvzzqwcbw5=--==&O&,1<,<122<122yipaassssssaapiur21<221,><<>                         ",
"           4eqcBCACAZACASCCZZCBnNlzlllcvz85--===OO&,<,,<1rrrttrrr211222222112rrrttrrr1,>,,,                         ",
"          *9wvnBASAACAnAZZNCZCnvvwzwqxvz85---=&@@&&,,,,1rtr21<<<112rtuiiutr211<<<12rtr1>>>,                         ",
"         5qzvNZACAACAZBZCBNBZnncxlzwzvv05----=&@&&&>,,1rr1<,,<<12tiasfJJfsait21<<,,<1rt1,>>                         ",
"        3qzbBCCZCAABSZZZBBBCBvblwzzxzcq55---=&&&&&&>><rr1,>>>,<12tisdJLLJdsit21<,>>>,1rr<>>                         ",
"                                                                                                                    ",
"                                                                                                                    "
};
