/* XPM */
static char *_e03172156bb4c0ff02cfcf4994fe0f0QeU9TulGOANK9FsX[] = {
/* columns rows colors chars-per-pixel */
"108 112 73 1 ",
"  c None",
". c black",
"X c #070707",
"o c #0B0B0B",
"O c #0F1700",
"+ c #0B1707",
"@ c #171F07",
"# c #1F170B",
"$ c #131313",
"% c #1B1B1B",
"& c #2B230F",
"* c #372313",
"= c #332B13",
"- c #3F2F17",
"; c #3F2B1B",
": c #2F371F",
"> c #232323",
", c #272727",
"< c #2F2F2F",
"1 c #373737",
"2 c gray23",
"3 c #432F1B",
"4 c #43331B",
"5 c #4B371B",
"6 c #533F1F",
"7 c #732B00",
"8 c #4F3B23",
"9 c #5F4323",
"0 c #6B4727",
"q c #774F2B",
"w c #7F532F",
"e c #675333",
"r c #434343",
"t c gray28",
"y c #4B4B4B",
"u c gray31",
"i c gray34",
"p c #5B5B5B",
"a c gray39",
"s c gray42",
"d c #6F6F6F",
"f c #777777",
"g c gray50",
"h c #874307",
"j c #9B5B13",
"k c #AF7B1F",
"l c #875733",
"z c #8F5F37",
"x c #9B633B",
"c c #A36B3F",
"v c #AB6F43",
"b c #B37347",
"n c #BF7B4B",
"m c #CB7F4F",
"M c #C39B2F",
"N c #CF8353",
"B c #D78B5B",
"V c #D7BB43",
"C c #DF9363",
"Z c #E79B6B",
"A c #EFA373",
"S c #F7AB7B",
"D c #EBDB57",
"F c #838383",
"G c #8B8B8B",
"H c #939393",
"J c #979797",
"K c gray67",
"L c #FFB383",
"P c #FFBB93",
"I c #FFFF8F",
"U c #FFFFB3",
"Y c #FFFFD7",
/* pixels */
"                                                                                                            ",
"                                                                                                            ",
"                                                                                                            ",
"                                                                                                            ",
"                                                                                                            ",
"                                                                                                            ",
"                                                                                                            ",
"                                                                                                            ",
"                                                                                                            ",
"                                                                                                            ",
"                                                                                                            ",
"                                                                                                            ",
"                                                                                     7                      ",
"                                                                                     h                      ",
"                                                                                    7hh                     ",
"                                                                                   hhjhh7                   ",
"                                                                                 hjhhjhhh                   ",
"                                                                              7hhjjhjkjhhh7h                ",
"                                                                                 hjjkMkjhhh                 ",
"                                                                                hjkjMDMkjhhh7               ",
"                                                                               hjkMkDoookjhhhh              ",
"                                                                              hhjkMMoDDMokjh77              ",
"                                                                             hhjkMVoVDDDMokjhhh             ",
"                                                                            hjkkMMVoDD%DVoMkjhhh            ",
"                                                                           hhjjkMVDoD%%%DoVMkjhhh           ",
"                                                                          hjkMMMVDDXDoooDXVVMkjjjh          ",
"                                                                          hjkkMVDDD$%$o$%$DDVMkjjjh         ",
"                                                                           jkMVVDDIUDo$oDIDDVVMkjkkjh       ",
"                                                                        jkkkMVDDDIUYD$%$DIIDDDVMkkkh77      ",
"                                                                   hhjh7jkMMVDIIIIUYD$$$DUUIDDDVMMkh77      ",
"                                                                   jjjjhjMMVDD11DUUYD,>,DYUUD12DDMkjh       ",
"                                                                   hjkkkkMMVV%1uaiFKpfafpKFupy2>DVVkjjh     ",
"                                                                     jkMDDVVXo$@12<<r,,,r<<1<@$oXVVDVVMMjh  ",
"                                                                      jkVIIDoo$,:1,<<,,,<<,1:>$$$IIIDVkjjh  ",
"                                                                       hMDIUXXo%>>>$>$$$>$>>%%oXoUIDMkh     ",
"                                                                       hkMVVXXoo$$$$$$$$$$$$oooXoDVMkj      ",
"                                                                        hjMMMXo$$$$$$$$$$$$$$$oXVVMkjh      ",
"                                                                        jjkjjk<f,$$$$$$$$$$$>s<kkMkhhh      ",
"                                                                        jkjhjj<s2$$$$%$%$$$$1p<hhhhh        ",
"                                                                        hh    %t,,,,,111,,,,>2%             ",
"                                                                              %>,,%$$>%>$$%,>%%             ",
"                                                                              %>>$$$$>>>$$$$>%%             ",
"                                                                              $1$$%$$1%1$$%$$<$             ",
"                                                                              %2%%>%%2>2%%>%%<%             ",
"                                                                              >u>>%%%1%1%%%>>r%             ",
"                                                                              ,t,,>,,,,,,>>,,r>             ",
"                                                                             ,2y1,,,,<<<<<<,1r1>            ",
"                                                                         966>1yr<,,<<1111<<<<tr%            ",
"                                                                       9qzw><2t2<<<2rrrrr2<<2rr,>           ",
"                                                                   9666qzlw,<2r1<<11rrirt1<<222,>           ",
"                                                                 59qqqqq0q0><<22<<<1ryput1<<2r<<<>          ",
"                                                                50lllzxl96%<1<222,<1rypit1<<r22<<>=         ",
"                                                               9qlwwwwll04#<1<12r<<1ruaut1<<r22,,,,=&       ",
"                                                             990qwqqqqqq04,1212rt<,2tisutr,1t2r,,<<-&       ",
"                                                          0qzzwq0090990095,21<2uy1<rtpdur2<<2tr,><,9&&      ",
"                                                        9lxxw000006566665-<22<riu1<2tpdur2<12ut>><,99&      ",
"                                                      5qzlw0qqqwqqq95455&o1r1<tpi2<2tafyr2<1rau>#<,59=      ",
"                                                     =9lq00qwwwlllwq09-4O>r2<2upu1<2yafrr2112pi<#<<>-5&     ",
"                                                     -0099qwlllllllwq004O>r1,rpat1<ryafrr212rap1#<<>-94=    ",
"                                                    =5666qllzzzzzzzllq08#>r<,raar<<ryagrr2<2ysa1%<1>9xw5&   ",
"                                                    =-550llzxxxxxxzlzlq5&,r<,rapr<1rusFyr2<1ydd<%,r>5lzq-   ",
"                                                   ===-5qlzzxxxxxxzlzlw94<2,<yai2<1rusFyr2<1tfd<%@r>*0qz5   ",
"                                                   ==&-9qlzxccvvvcxzzlw94<2>1uay1<1rusFyr2<<rff<%>r%*59l4   ",
"                                                   =&&-0llzccvvbvvvvzww9<12>1uay1<1rusFyr2<1rsg2%%u<&*49=   ",
"                                                   &&=50wzxcvvbbbvvvclw5<22>1pat<<2risgyr2<1rpg2>,2,>**;&   ",
"                                                   &&=50wzxcvbnmnbcvvcl9,r2>2aar1<2tisgyr2<2rpFr%<2<>-53&&  ",
"                                                   &&=60wzxcvbnmmnbccvz9,y<%2asr<<2tidfyr2<<rpGr>,1<,-09=&  ",
"                                                   &&=90qzxcvnmNNNnbvxw9,u<%2adr2<2tisfyr2<1riHr,><1,-qq-=  ",
"                                                   &&-990,wzvnmBCBNnvbw9,u,>rast2<2yisfur2<1riJy,>,2>*9l5=  ",
"                                                   &&90q%1,%>>%><,>>%%%,<u,,uaay1<2tisfur21<2pGa<>,2>*-q8=  ",
"                                                   -qlbB$r2,<1rriy222rr,2y<,yaay<<2ruafur2112aff2,>2,**53=  ",
"                                                   qcw0q%iaiipaassapppa,2y<,yaay1<2ruafit21<2ygd<,,2,>*=*&  ",
"                                                  qw5=-5%t2,<12ryr222rr>rr,,rdar<<2ruafiyr2<2tFd<,<2,>-&=   ",
"                                                  q&&-50.<<%>>%><,>>%%%,y2,,rfpr<<2ryafpyr211rgf1,,1<>--&=  ",
"                                                  9&-59zl%vBccvBCnnvvz-,u1,<rFi2<<2ryafpur21<rfgr,,<<>-5=&  ",
"                                                   099qlzlzbmcllwvBncw><i<,1iFu2<<2ryafpur2212fFr<,<1>594&  ",
"                                                  czllzcvczlcvbz90qNnw>1i<,2aGur2<2rypfpur2112dgt<><2>595&  ",
"                                                 lzxzxllxvvxllcnbw90cl>2u<,2dGy2<<2ryafput21<2aFu1>,2,-65&  ",
"                                                 55450lwqwcnvxlzvnzw6l,ty,,2fGyr1<2rypfput22<raFu2,,2<,5-&  ",
"                                                 ww0855600qxnnczlcmvw9>yt<,2fgr2<<2ryafput22<rpFi2,&1,,-=&  ",
"                                                50zxvxw9590qxxvnclzcnw,ir<,2Fgr2112ryafpur22<rpfa2,<1<,-&&  ",
"                                                &&-0zcvxwwwqqqzvvczlz>,i2<,2Gft2<12ruafpur211rpfdr,,1<,-&   ",
"                                                6==&-0wxcczlqqwlxnbcz><p2,<rGfy2<12ruafpur211rifdr,>11>=&   ",
"                                                9q0905=-59wlxzlqwzvvc>2i<,<yGdy2<12ruafpur211rufdy<>12>*&   ",
"                                              zw55550ql094344380qqqll>ru<<2iHsy2<2rtuafiyr212ruafu<,<2,&&   ",
"                                             z0000095-&&=54855---890q>yu,<2pHat2<2rtuafiyr212risfi<><2,,&   ",
"                                            q005=-50qq95=&&&55095--59,ut,,2aJpr2<2rtuafiyr2<2riagp<>,1,>    ",
"                                            05=-855&&5llw9-&&&-9094--,ir,,2dJur1<2ryuafiyr212tisFi<,,1<>    ",
"                                            09qqwllq095=9qw05=&=-965><pr<,1dGy21<2ryuafiyr212risga1,@1<>    ",
"                                            qwlvnBCNvxzq6559w05=&=49>1ir<,2fgt21<2ryiafiyr212ruafs2,,1<>    ",
"                                            zlvZSAAZZNnvcw64-605-&-4>2it<,rddr2112ryuddiyr212ruafd2>,1<>    ",
"                                            qxBZLSSZZZZZBnz09=-95-&->rir,<yda22<<2ryiddiyr211ryafd2>><1>    ",
"                                          qlxnASLAZASAZAZnmbw05=96-&,yi2,<udar2112rypddiyr2122ypff2>,12>>   ",
"                                          qcNBASZZASSSAZCBmNnl0&#55-<uu1>2udpt2112ryadsiyr2112rpffr>,12,>   ",
"                                         qznCZSACZSASSZCBBnvBz6&&#=,<iy<>2iday2<<2risdaiut2112rifgt><<2,>   ",
"                                       9qxbBZASCCCSZZSSCNncvnn5=&#&><it<>2isaurrrrtpsdaiytrr2rruffu,<<2,%   ",
"                                      0lvnBCAASZZCSCBAALBncxvv9--=X>1ir<>2uapiuytrtisdsitrrrtyyuffi,,<2<>   ",
"                                      0cnBCSSAACZZSBBBCSZvcvvc086=#>2ur<,2yiiiur22tidgfsur22ryuudfp<><2<>   ",
"                                    qlvnZAAZSPBmZAANNNnBZbbcvq965=&<rur1<ryiytr112ypfFFfit2112rypsp<><1<>   ",
"                                   9cvNAAACAAPCnAZBnnnncnBnzq995--&<yur2rtytr2111ruagGGgaur1111rtuu2>,11>%  ",
"                                 0wbNBCAAACZASZBZZnmnvcxzCBz865---,<yyrtttrr1<<<1rusGHHGsur1<<<2rrty1,<2,%  ",
"                                0wvNZZZSSACSALBBCBnnnxczcCm965-===,<uyytrrr2<,,<1rudGJJGdur1<,<1r22rr212,>  ",
"                               8znNZAZZAACZAAAnCBBnnczxxnbz55-==&#>2uytrryy1,,,<1rudGHHGdur1<,<<2r112tr2,>  ",
"                             qwznBACZBCAABZAZCbCnBvvclxvnx55-=--&O,rtr21rut<,,,<1rudGGGGdur1<,<<1r2112r2<>  ",
"                            9qvnBCSCABCAACAZZBnCnbcczwcvvq======&+>221<12t2<,,<12tidfFFfdit21<<<<1r21<12<>  ",
"                           4lwvNCAAAACCAZZZZZNNBvvzzqwcbw5=--==&O&,1<,<122<122yipaassssssaapiur21<221,><<>  ",
"                          4eqcBCACAZACASCCZZCBnNlzlllcvz85--===OO&,<,,<1rrrttrrr211222222112rrrttrrr1,>,,,  ",
"                         *9wvnBASAACAnAZZNCZCnvvwzwqxvz85---=&@@&&,,,,1rtr21<<<112rtuiiutr211<<<12rtr1>>>,  ",
"                        5qzvNZACAACAZBZCBNBZnncxlzwzvv05----=&@&&&>,,1rr1<,,<<12tiasfFFfsait21<<,,<1rt1,>>  ",
"                       3qzbBCCZCAABSZZZBBBCBvblwzzxzcq55---=&&&&&&>><rr1,>>>,<12tisdFHHFdsit21<,>>>,1rr<>>  ",
"                                                                                                            ",
"                                                                                                            "
};
