/* XPM */
static char *result[] = {
/* columns rows colors chars-per-pixel */
"60 60 37 1 ",
"  c #0E0D0A",
". c #100F0C",
"X c #14120E",
"o c #19150F",
"O c #161410",
"+ c #1A1612",
"@ c #1D1914",
"# c #1F1C18",
"$ c #221B16",
"% c #291E15",
"& c #241E19",
"* c #281F19",
"= c #272017",
"- c #2B2116",
"; c #26211B",
": c #2A231D",
"> c #2E281E",
", c #322516",
"< c #332817",
"1 c #30271C",
"2 c #33291E",
"3 c #3A2D1D",
"4 c #2B2621",
"5 c #2E2924",
"6 c #2F2B28",
"7 c #302720",
"8 c #332C23",
"9 c #382F23",
"0 c #332E29",
"q c #363027",
"w c #3A3125",
"e c #36302A",
"r c #3A332A",
"t c #3F382D",
"y c #423825",
"u c #413628",
"i c #423B2C",
/* pixels */
" &#;;;;####@O@XX##=##@XO+@oXX .XOO.X++++$+..$*444::*&:*4::#.",
"+8:445>555:4;;@O;:::;;@5==%@O =:*&44448088+.&7:7::*****7886@",
"O::::55555r8;>@@#=#=;;#6=@==@X>=&&*&447080$.*%%****%$$79q88@",
"O>44556;:rr6#;:=>=;=;#;;@@@-<X>#*06*:**467$X***%$%%$%*97328@",
"O5465445q8q;44>@:#;;;;;#$@@=2o==4644*&*&$*$X***$$$$$$>87>qq@",
"O666e54556444>=#>=;44664=@$>2O=44&&*4;$$$*$X*:*$$@$&*798>58@",
"O065544#;46::4=#;:866666:#@:2X:#&#&*&$$$$*$o7:$+#@$=77275;>#",
"Oe64454444:::5&#6566664;$$@=>X=##&4&$#$*&*&.:&$$@o&>>:;:#;5@",
"O856qq544;:444;#06666;&$$&$$*.*$:5;&&$&0:5*.*&$+$:>>55#;;56@",
"O05554:44:::65##0664&&$$@#$$*X&46e4&$$&;58&.@$+o$=:&;;;#456+",
"O5655>>>>w6665;#644;&$$$$$$$&.4444&$@$;005&.oX+$$$=&;;;#;55@",
"O55>4:>>:86654##:*&&$#$$$$$$*.44&$$&4$464*&.+o+$$##@::=4556O",
"O5:::::>586548#+**&$$@$$$&*7@.7&#$;:e8:&$&&.O@$$@:>:;4q654e@",
"X#;;>>89q97>>5X.&*********7&X $&&5001*&&&*$.o++$@=>5;668850O",
" .O@===@+++OOO   XOOOOXX....   X@@$$$$$@@$O.Xoo@@:44:44>;;# ",
" .XOOOOOOO+ooXX O@&::**@+++O. .XOOXXo++OOX. .Xo#@++OOXO.OOX ",
".+:579578885==@.&u9w9884*4*#+X&65::>>>>2>@..@2rqq566;;:;:;# ",
".>0180098886:w#+9w3>*0u4*4*&#X4&$=:8>=>>$$@X$::::5664#44;&$X",
"X>89weq98eq4>2@@98,%60647****X;#;:;>%=&@$=&X:&:&:44444;;#59O",
"X20wqeqw8eq>>w=@2%&56*****$*7X&#$:=>:@O@&=-X:%%&::6644:455qO",
"X900eq28ee7>59#+:%47:$$&$$$*7X&&::==+O$=::=X&$$$485445:4>48o",
"+99022q80::===o+1::*$$#&+$*47X$&==;++#=w7>>X%%&88644:544>4qX",
"+0955w64=8=;$=O+:*&$+$*&*&*47.$*=#+@$=::>>=X%450554445:458qo",
"+7:546>;;=@#$$O+*$$$$**&***$7.#*#+#$=::&&=&X:8071>2>;44>>7qO",
"X>;44:=:#+@@@@OO$$$&*&&;*4$$7X$++$$&-=*%*&*X75:4:4544221578+",
"X&:44::;@=@@@@OO$&*&1;;4;&+$7X++++&==>:&&*&X%**:85454:==:==O",
"X;:::>###=#+@=+O*&;4::;;+O$$1X++$::*=-1:44$.&%$:5544;;&#@+OX",
"X#=::;==$#====Oo::4;&&@X#$:**XX$>718:>7>*&o.$u9:577:#+$=@+@X",
".O#====#$@@@@O  ::&=4&O@&$@++...O++OXOo+XXX X=>@=;;$#@@@O+O ",
"  .....OOO++OO O$@@O.  @&575*.X+####$$+*$X  @:85:::5::;#&#+.",
" .5q:>:;$=;;;8#O##OOO@@$$$400.7t0reree686:OX085&;5:;;;==&:#O",
" O;;==@@#:;&&&5O#OO O$$@@:0e0O5eeeere04%$$+X54&&=:4:;;=:=@#.",
".+;=###@8=#4;;;XO+#4;:$$8e000O4eereq04$$$$#X4&&&&&*&&*:=&@;X",
".=4;;@@=;:44###X:5e5&@&6eeeeqX:eqerq*$$$&4;X4&&47:455:;$@$:X",
"O644;;#;:4;###;+q8=$$$4e660eqX4q08>:*$$46u&X**&657e5:*$$&@=O",
"O666;#44:4;4;6;@5:$$@&50000tqX:qq>==$*4600*X444674*&&$&&#;5O",
".66444:;#@#464;#q=#$$5w0000t0O:8>=&;;66654*O7077$$$&&5&;455O",
"X466444;4#44#;##8$$$:0q0000e0O;>:4:;444:&::o***$##&&:8;4566O",
"X5665>5554;#;4#O>=#;655506469o=4;;444&&$$47o&*$$&;4&&&4:&;5O",
"X66>555;;##44;O.=$$:445564460X&;4&&&$$$$%7&X&*$$;:&&:&;=44&X",
".;78654&;;>;#@o.#477588477784.#;&:&&;;;;*:+.&85:4=:;;:>77:&.",
".#665&&*:6>==#X.+4709527777%O X+>>5=:::;&+. .@+@#=;=;=$#@$+.",
"  X    . .....   O..XXXo+$+o   XXOOOOXooXX+.o++++@==:4;@@+. ",
" #754;;:5>>58>O.&4::>:709u87+ +;558755>:67*O%$$:8rtiiiitwq&.",
"X>&$#$$@#>>5q0@@4$@&788545787.**&&$$#@@@>0>+$&>wrttttuw9922o",
"X@$$@@@$>5555>@O&4908559771:*.&&$@$$;2:w25>o%-2wqq8992822>:X",
".$$$#@;46;;4>5@#555555522:$*$.+$$$&;=5785>=X=288982wtw9>=$=X",
".$$$#46;4;#;;0#@666654>:$$$$$.$$&&45>585>&:o&>>:2wwwyy7&#$>+",
".$$*:4644;;456#O46525:=#$$+$$.4*4444:8874*7o&:*:2982250>&&5@",
".$$&:55:::4;6=OO:554;$$@+$+$$X4444*47q75*11+&$-:11,%&$:%&:4+",
".&*17re785;=>>o+4>=$$$$@+$$**X6*$:&*77:&*,*X$*%%-,%$$$&&:&:@",
"X*:177077888>:oX#@$$$#;=$$O$*.4*$&478:&&$$*X$$&&&$$%&44&&=>+",
"X=:7875729>:&*+X$$$$%==:$$X$&X*$+$4785$$$$&O$&&&$%*:4:*:>2>@",
"X&*&75;:07::$*+X$%%$%-5$$$+$$X&$$&466:&&4*4@&*&&*-15*4493$=@",
".&4444445:5$$&+o$@$&::::*$$$$X$$$*45&$&*444@&*****&4:178>$=+",
"X&&4;:5*5:$@$&XO$@$:92>27*$$$.*$$*&&4444*1,+**:,:4:233>1&&=o",
"O&4:22:&;;@&&;++$$:998931$$$$ $$$$$&;;;4;4*O$*:11882,=&&$&&o",
" &777>;&#O@4:7+X$3y32331*$$$. $7$$$&#&;;44&O$779813<,----:@X",
".;92>===&&;45>OX&>1113<-*$$$. .+*&*&&&;;#+O O&&4>>97-&$$@+oX",
" O:=;$&$@+#@+X XX  . ..          O..X.          .......     "
};
