/* XPM */
static char *result[] = {
/* columns rows colors chars-per-pixel */
"60 60 112 2 ",
"   c #171611",
".  c #181712",
"X  c #1D1B15",
"o  c #211E16",
"O  c #211F18",
"+  c #262117",
"@  c #282317",
"#  c #25221B",
"$  c #2A251D",
"%  c #2D281E",
"&  c #30251F",
"*  c #322A1D",
"=  c #2C2720",
"-  c #2E2921",
";  c #322621",
":  c #332C24",
">  c #3A2E25",
",  c #332F28",
"<  c #3E2F28",
"1  c #363026",
"2  c #3A3226",
"3  c #363129",
"4  c #3D342A",
"5  c #3F392E",
"6  c #3D3731",
"7  c #3E3831",
"8  c #433625",
"9  c #493626",
"0  c #463826",
"q  c #4B3A25",
"w  c #43352C",
"e  c #48372D",
"r  c #44392D",
"t  c #4A3C2E",
"y  c #523C26",
"u  c #523D2A",
"i  c #453730",
"p  c #453B32",
"a  c #4B3D33",
"s  c #4C3F38",
"d  c #513F32",
"f  c #4E402F",
"g  c #5D4225",
"h  c #54422D",
"j  c #5B432C",
"k  c #464134",
"l  c #4D4134",
"z  c #474039",
"x  c #4D433A",
"c  c #524435",
"v  c #594634",
"b  c #554836",
"n  c #5A4936",
"m  c #52453B",
"M  c #594739",
"N  c #55493C",
"B  c #5B4C3C",
"V  c #5E503E",
"C  c #60472F",
"Z  c #644B2D",
"A  c #694E2D",
"S  c #634D34",
"D  c #684F32",
"F  c #614E3B",
"G  c #655235",
"H  c #6B5333",
"J  c #63523D",
"K  c #6A553C",
"L  c #6C583D",
"P  c #725939",
"I  c #795F3D",
"U  c #524740",
"Y  c #554B42",
"T  c #5A4E43",
"R  c #574E48",
"E  c #584F48",
"W  c #5D5144",
"Q  c #57504A",
"!  c #5C534B",
"~  c #5E5750",
"^  c #635444",
"/  c #695741",
"(  c #665945",
")  c #6B5A44",
"_  c #62564B",
"`  c #65594C",
"'  c #6B5C4B",
"]  c #715E45",
"[  c #725F49",
"{  c #605751",
"}  c #645C54",
"|  c #6A5E52",
" . c #6E604D",
".. c #746247",
"X. c #7A6447",
"o. c #72624C",
"O. c #7A674D",
"+. c #6D6154",
"@. c #6D6358",
"#. c #716553",
"$. c #766A54",
"%. c #7B6C53",
"&. c #756758",
"*. c #766858",
"=. c #78695A",
"-. c #7D715A",
";. c #856F49",
":. c #83704B",
">. c #816D50",
",. c #847357",
"<. c #84765A",
"1. c #8B7C5D",
/* pixels */
"X p k k k k k k k 7 7 3 , 3 @ # r r r k t 1 # - 1 1 % @ + o o # $ = $ * - , > > 3 1 X X < m m R m U m s d m m m N x a # ",
": ` Y N B W T ! Q R N N k x 1 1 x b x x m x 1 ( f f h r % X r N a l m N B W / ' ' ^ - O a _ M F M M m u a c v J ( ~ Q 1 ",
"% m N N N T ! R Q V $. .x n 8 1 t t l f p l p ^ r 4 8 r 0 + ) f 4 a s a m Y T ( _ | 7 # d u y j d d u y 0 w n ]  .) ( 4 ",
": B N Y W ! Q N N  .$.! 5 N b k b f l l z l p p r 4 4 j G # B 5 a #._ U N m a T ! ^ e # d e d e e y t 0 0 a / / K V ) 4 ",
"- V Q ! ~ R Y T  .(  .U N W V r x r z z l z x l r 4 4 c G $ x x U _ U m M i U s e c e $ a d a e r w r r a n / / J /  .4 ",
": ~ ~ ~ +.Q N W W ~ R x W N x 4 N l U T Q ! ! ! m 8 4 n J % c m E s s d M s e w w d e $ d M c w r r r p c ^ ' / ^ W ( 4 ",
": ` ~ ~ ! N U k x R W W m V l 3 x U ' ! ~ | ! Q x 4 8 c J $ l k a i e U s w w w w t e O B c w 8 4 2 4 c J ( J Y Y z B 4 ",
"- +.~ Y T Q Q U U Y U x N B l 3 ! W ~ ~ ~ Q Q x r 0 0 r B @ f 4 w i U i w w w s e m a O M a w 4 8 * t n b N x x z z ` 4 ",
"- ~ T Q ' o.W T U p B T T W k p } | { ! ! x p i p 5 < w m $ e w s ! U i i w i [ T W l o h r 4 4 r d v B V W 5 z x Q } 3 ",
"-  .~ ! ! Y Y Y Y B N x ! Q 7 p } ~ Q R s p p w w 4 w e d # a Y ! +.Y s w w i s T ! a o 1 w > ; 2 b b x k x z k N Q ` 1 ",
"% ` W ! ^ Y T V F ] ` ! ! ! 7 p _ T U x a e w w 0 w w e e o T E ! R e w w e s | { ` l o ; $ ; 8 4 t x p l x x r k Y ! 1 ",
"- W R T T N B N T ' ! ~ ! Q 7 4 N a a a p w 8 w w w w t a o R R s w w w d s E { Y x t O ; & 4 w w 5 4 4 x x N Y R W ~ 1 ",
"= W Y m n n N N T _ ! W N ` 4 3 b a a e w w w w w w d F < O W a w i s T ' ' N e w a e o ; w w w r c W x l W ` ! Q W +., ",
"# k l x n J ( ..' ' ^ B T W # # w c c l d c d d d M F e O o i e s Q ' ' F d a t d a 4 o $ 2 > w 4 l N W x ~ ` ' ` ` ' - ",
"X X - 4 t l 0 2 1 : : - % # X X X + $ $ $ # $ $ O O O O X   X = , 4 r 4 r r r 4 4 4 ; o $ % - 3 1 m R T x N N N m k p X ",
"X O # # % - : : : ; % : - % # X # 4 f c b c l , ; > : - O . X = - - $ $ $ * : - - % # . X @ - 4 4 : % : % $ - = $ $ # X ",
"X > M W ^ ) T ( ` ^ ^ W l f 2 + l ,.] ../ [ | M s M M i ; X s E B N b n V B J / V 4 # + 1 )  . .' ^ Q ' x z Y x x x 4 X ",
"O m [ ^ ( | ' ) ( ` ` ^ n  .0 1 ) ..P v M | | T U M s e < & R s w l c / n n B v w w > + t b N N m ! _ ! ! p x x x p t + ",
"$ T / _ +.| ' ' ` ' +.! V J 4 2 [ / Z d _ { ! T F s s d s # s i t V c N l l p 2 r a t @ c l c a N T T ! R Y x k k V ' : ",
"$ J ) #.#.+.[ ] ' +.` V V ) 5 4 / u d W ! s C s s d < d C # s i t l c b b 4 : 1 t N f + c h t i m m ~ W Y N N N ^ W ( % ",
"$ / +.#. .` / ( +.| _ B n ) 4 4 b u T T d w w e w w w d T O i e c c b x 1 - r l x N c + l r w i T { E T Y W Y Y Y W ^ % ",
"; ' ' ' ( H ` } ` N c c l l - 1 B m U a w a w e w i a N ^ & w d c k p 1 - r l  .J V v @ h t a ^ ' _ T m N T Y Y N W ' % ",
": ' / T ^ ..' Y k ^ l r e p $ 1 c d a w ; e d s e e p n J O i d a 5 1 1 t t c N b n c # t m _ ' ^ Y Y T Y ` Y Y T ^ ' % ",
"- ( T T ! ! Y k f l 4 r r w % , d e w i i d s s a m m t F O w a 5 > 4 r f b h l f l a # m _ } / F N K F x N N T V / ' , ",
"= N x R W N x c r 1 4 4 1 2 $ ; e 9 e a c p p x m m r 2 G $ 4 * > 2 4 t b f c u a a e $ F T U N U Y E T T H G J W W ( : ",
"# p x Y N b n k 4 r 4 1 2 8 - % e e a c Z l x N x i 1 8 J % 1 : 1 4 t h v v c l s a s & u v s M _ _ T E T c c z x l l % ",
"# p N N V n r 4 4 l r 4 4 t : % a s m x m m x z > $ r 4 n $ > * 2 c b b f n n m m T w O e u a m T T Y T x r r 4 4 1 : @ ",
"# r l N b f c k t r r r e x ; % m m m x p l 4 - 4 r v c c $ ; 2 V J B ( b N ^ N s s & o w >.] m T ( ^ s r 1 r x 1 1 4 # ",
"X : r x l f t r r 4 1 2 3 - X X N N f k N t # 4 l r 1 % ; o # + - 1 - - - - ; * $ $ O o # c n 4 l p p w 4 4 4 5 : 1 % X ",
". . o @ X X # $ % % : : 1 = X = r 3 , - # # X 3 r W ^ W x X # , 3 6 6 5 4 4 2 a 4 O o o 4 m ( B B N N ^ N N k r p 4 % X ",
"X # W ( B N N k r l l m k ^ 5 = 7 6 - # # 2 w 4 4 r Y } ' # ^ =.+.@.@.$.@.+.` ( ^ N ; # | _ T a p ( N m l a l l l N 4 # ",
"X % l t x t 4 r r N f p p k W - 6 - - # - p r 2 w c ~ @.+.- Q @.+.@.+.o.#.' T e w w > # _ U a p l N B n a l x l l r r # ",
"X : t p p r 4 5 ^ k k B z z k # , , 5 T x m i w _ | } @.` - U #.+.$.#. .+.d e w w e i = U s s a a a s d a m l l e 4 c $ ",
"# x Y k p 4 e t l m R x k p 7 - x W ' W a w p { &.} | @. .# N @. .#.%.W d w i w i T s # U s d s T m T N N m l r r 4 x # ",
"= } Q Q x p k x Y Y x z p 7 k 3 } ` l r 4 4 m @.} } } @. .# N  .` ' ( x t i a s { @.s # M d a T T (  .B m l e p r 4 x $ ",
"= ` ` Q x p x x x x x x U Q x 3 ^ U r 8 8 p _ } @.} } &.#.= x ` ' T l t t s Y { +.+.s & M T U _ ^ N x a a e a e r x W % ",
"= R ! R Y x x N p 4 k Q Q Q x 1  .x 4 0 0 ! | o.} } } =.' - N ( B m s s x R { | Q B l % D ` W m w p r p l W a x R ! ! - ",
"# R { ~ U ! N m x 7 x Y k p 7 1 K t 4 0 N | | ' } } } +.) - m B m m U x T E T s a N m - n m t 8 w w s a m ( m Y T Q ! - ",
"= Q ~ { W J ! R ` R z 4 x T 6 - J r 4 s ! Q E E } ~ R ^ ) % l T m m m R U s i e e B V % t f 0 4 i x m x a a x x p x Q $ ",
"# Q ! J ^ ~ W z l p p U R k % % l e t N U R R _ Q Y U ' ' $ p x m a s e e i w 9 p ( l @ a c r p x U a e s s f f Y T x # ",
"X k ^ ` { ! x p p s N x r r @ $ r Y ^ T W ! _ N L J ^ ) n o r l c d e p a x l p l m - # p / B N W l m c c m V ! ' b r # ",
"X 5 ~ ~ ! l p c N ^ S k k 4 + o 3 N ^ ' ' ^ W W W W n h % X $ : N W T l N N N x p : # X # 1 1 4 5 t a l l a k r 1 1 1 X ",
". X o O o X o X X + o o X X X . X # O O # $ $ - * 4 1 $ X   X @ - = - - % $ % % $ # $ X % : : > 1 1 5 b N N c 4 > : # . ",
". k ^ V b x x m J W W V ( ^ % # s m m m B B / / ] O.) F 1 . , x W T W ^ W ^ V b ^ ( b $ q 8 r c ( $.-.1.<.<.,.%.O. .r # ",
"% V a w w w w 4 a T W (  .` 3 3 Y e 4 a F ' ( ! T Y ^ ) J X l x l p r w w 4 4 r N ' ^ * q t N O.$.%.-.%.%.%.O.) / / K # ",
"# 4 w w < w : i T T T T Q R 3 3 d T [ ' E ! ! / W ^ F v c O p r w w w i k ( b ` ( W B $ q n V ..+. .) ) ) ( K / K B v # ",
"O w w w w 4 z Y ! N z x N W 4 5 _ E _ E E _ ! L J b w c e X 4 w w a s s k V ^ ( W N l $ h J ( ^ ^ ) ) O.%.X.K B x e l % ",
"O w w w a Y ! s R p k x x ` k 3 ! ~ ~ { E m T m 0 r 4 r w X w w a x m Y V W ` W B l v % k V W N V ..o.O.;.:.( t 4 w N 1 ",
"O e w d U Y ! Y U x N x ! ` 3 : Q ~ W K W N k r w < w e w O M a m U N N M ( _ T N d F ; a N l c ( / L J ^ W  .B e s T > ",
"O e w a U _ ^ U N U x U W m $ - x R ! N x r 4 4 > w ; w e # T T T N m c ^ #.^ B M C M ; p e h c n H Z l e r l l a x T > ",
"O e d B ^ [ [ _ ^ B x l V n * 1 N J x t r 0 r 8 < w w e a # ! x i m a m T / m a c Z c $ r l h v j g t w w i a a x m v 1 ",
"O d M F F ^ _ ( ^ ( / / V N 1 # 5 4 8 r w 5 r f i w ; e s # B a e a N W ^ m a e 9 w a $ w e 0 e a e q a s U m x a a F 1 ",
"+ l b J ^ _ T W ( / W c a c & $ 8 w e 0 0 r b c w < ; w a O d w w w s _ _ T a w w w d - a 0 a t e t d m U M m m B n V 2 ",
"# a s m Y T m s ' ^ N x w a : $ w 9 y t f n ( e w w ; e e # a w > e T _ _ c a a m m Y > p d e a u j S B m M M ] ..f c 1 ",
"# r x U T U m T T N B w w e ; - w w w t m n m d d e w e i O d w e s s _ s a a s U Y T , e a l l m m x m N K / / N r h : ",
"# p m m m N B m W N p 4 r l $ - w w e m ) J F J ^ d w e i O s e w s s a U U U Y x S A > t v c n x m m K P L n N t t t : ",
"# p x B / J m l s p i p p m > - w e B [ ] ) / P J e w w w O e i i w w s U U s U s M c ; 4 v b Z F J J L G f q t r t k : ",
"# p J / J n p p p - 4 x m ^ - # e / X.I ) L P F u w w w $ X 4 W i w e i < s U s U T s # 4 V L ../ J I K Z t f v n a 1 @ ",
"o f ) / J l t a a a m Y W B - # l B J K K H A n c e a 4 # . O 4 s i d i w e s s p 3 # X $ r k b B V ) J h l 0 0 > : $ $ ",
"X % x c k t t r 4 4 3 > - = X @ # . X X X X X . . . X . . . . X o # & # O O O o X X X . X + X X X o X o o o o o o X X X "
};
